<?xml version="1.0" encoding="UTF-8"?>
<!DOCTYPE svg PUBLIC "-//W3C//DTD SVG 1.1//EN" "http://www.w3.org/Graphics/SVG/1.1/DTD/svg11.dtd">
<!-- Creator: CorelDRAW 2021 (64 Bit) -->
<svg xmlns="http://www.w3.org/2000/svg" xml:space="preserve" width="1080px" height="1080px" version="1.1" style="shape-rendering:geometricPrecision; text-rendering:geometricPrecision; image-rendering:optimizeQuality; fill-rule:evenodd; clip-rule:evenodd"
viewBox="0 0 1080 1080"
 xmlns:xlink="http://www.w3.org/1999/xlink"
 xmlns:xodm="http://www.corel.com/coreldraw/odm/2003">
 <defs>
  <style type="text/css">
   <![CDATA[
    .fil0 {fill:none;fill-rule:nonzero}
    .fil9 {fill:aqua}
    .fil10 {fill:#4E51FD}
    .fil28 {fill:#7D97F4;fill-rule:nonzero}
    .fil2 {fill:#91B3FA;fill-rule:nonzero}
    .fil3 {fill:#BDD0FB;fill-rule:nonzero}
    .fil11 {fill:white;fill-rule:nonzero}
    .fil67 {fill:url(#id0)}
    .fil13 {fill:url(#id1)}
    .fil34 {fill:url(#id2)}
    .fil30 {fill:url(#id3)}
    .fil68 {fill:url(#id4)}
    .fil39 {fill:url(#id5)}
    .fil63 {fill:url(#id6)}
    .fil22 {fill:url(#id7)}
    .fil18 {fill:url(#id8)}
    .fil48 {fill:url(#id9)}
    .fil16 {fill:url(#id10)}
    .fil42 {fill:url(#id11)}
    .fil32 {fill:url(#id12)}
    .fil62 {fill:url(#id13)}
    .fil64 {fill:url(#id14)}
    .fil53 {fill:url(#id15)}
    .fil66 {fill:url(#id16)}
    .fil33 {fill:url(#id17)}
    .fil58 {fill:url(#id18)}
    .fil80 {fill:url(#id19)}
    .fil15 {fill:url(#id20)}
    .fil52 {fill:url(#id21)}
    .fil20 {fill:url(#id22)}
    .fil12 {fill:url(#id23)}
    .fil78 {fill:url(#id24)}
    .fil75 {fill:url(#id25)}
    .fil17 {fill:url(#id26)}
    .fil7 {fill:url(#id27)}
    .fil44 {fill:url(#id28)}
    .fil38 {fill:url(#id29)}
    .fil25 {fill:url(#id30)}
    .fil35 {fill:url(#id31)}
    .fil57 {fill:url(#id32)}
    .fil74 {fill:url(#id33)}
    .fil4 {fill:url(#id34)}
    .fil5 {fill:url(#id35)}
    .fil49 {fill:url(#id36)}
    .fil45 {fill:url(#id37)}
    .fil37 {fill:url(#id38)}
    .fil19 {fill:url(#id39)}
    .fil14 {fill:url(#id40)}
    .fil41 {fill:url(#id41)}
    .fil23 {fill:url(#id42)}
    .fil70 {fill:url(#id43)}
    .fil71 {fill:url(#id44)}
    .fil21 {fill:url(#id45)}
    .fil69 {fill:url(#id46)}
    .fil61 {fill:url(#id47)}
    .fil60 {fill:url(#id48)}
    .fil36 {fill:url(#id49)}
    .fil72 {fill:url(#id50)}
    .fil51 {fill:url(#id51)}
    .fil56 {fill:url(#id52)}
    .fil76 {fill:url(#id53)}
    .fil47 {fill:url(#id54)}
    .fil6 {fill:url(#id55)}
    .fil77 {fill:url(#id56)}
    .fil73 {fill:url(#id57)}
    .fil1 {fill:url(#id58)}
    .fil59 {fill:url(#id59)}
    .fil24 {fill:url(#id60)}
    .fil55 {fill:url(#id61)}
    .fil27 {fill:url(#id62)}
    .fil31 {fill:url(#id63)}
    .fil79 {fill:url(#id64)}
    .fil46 {fill:url(#id65)}
    .fil40 {fill:url(#id66)}
    .fil26 {fill:url(#id67)}
    .fil50 {fill:url(#id68)}
    .fil8 {fill:url(#id69)}
    .fil29 {fill:url(#id70)}
    .fil65 {fill:url(#id71)}
    .fil43 {fill:url(#id72)}
    .fil54 {fill:url(#id73)}
   ]]>
  </style>
  <linearGradient id="id0" gradientUnits="userSpaceOnUse" x1="193" y1="721" x2="107" y2="721">
   <stop offset="0" style="stop-opacity:1; stop-color:#FEBBBA"/>
   <stop offset="1" style="stop-opacity:1; stop-color:#FF928E"/>
  </linearGradient>
  <linearGradient id="id1" gradientUnits="userSpaceOnUse" xlink:href="#id0" x1="670" y1="993" x2="690" y2="993">
  </linearGradient>
  <linearGradient id="id2" gradientUnits="userSpaceOnUse" xlink:href="#id0" x1="734" y1="1004" x2="759" y2="1004">
  </linearGradient>
  <linearGradient id="id3" gradientUnits="userSpaceOnUse" xlink:href="#id0" x1="839" y1="1002" x2="860" y2="1002">
  </linearGradient>
  <linearGradient id="id4" gradientUnits="userSpaceOnUse" xlink:href="#id0" x1="348" y1="610" x2="186" y2="610">
  </linearGradient>
  <linearGradient id="id5" gradientUnits="userSpaceOnUse" xlink:href="#id0" x1="735" y1="769" x2="794" y2="769">
  </linearGradient>
  <linearGradient id="id6" gradientUnits="userSpaceOnUse" xlink:href="#id0" x1="53" y1="1038" x2="59" y2="990">
  </linearGradient>
  <linearGradient id="id7" gradientUnits="userSpaceOnUse" xlink:href="#id0" x1="676" y1="475" x2="727" y2="476">
  </linearGradient>
  <linearGradient id="id8" gradientUnits="userSpaceOnUse" xlink:href="#id0" x1="500" y1="474" x2="602" y2="475">
  </linearGradient>
  <linearGradient id="id9" gradientUnits="userSpaceOnUse" x1="266" y1="823" x2="472" y2="823">
   <stop offset="0" style="stop-opacity:1; stop-color:#09005D"/>
   <stop offset="1" style="stop-opacity:1; stop-color:#1A0F91"/>
  </linearGradient>
  <linearGradient id="id10" gradientUnits="userSpaceOnUse" xlink:href="#id0" x1="745" y1="992" x2="762" y2="992">
  </linearGradient>
  <linearGradient id="id11" gradientUnits="userSpaceOnUse" xlink:href="#id0" x1="922" y1="579" x2="880" y2="624">
  </linearGradient>
  <linearGradient id="id12" gradientUnits="userSpaceOnUse" x1="705" y1="813" x2="713" y2="1011">
   <stop offset="0" style="stop-opacity:1; stop-color:#4F52FF"/>
   <stop offset="1" style="stop-opacity:1; stop-color:#4042E2"/>
  </linearGradient>
  <linearGradient id="id13" gradientUnits="userSpaceOnUse" xlink:href="#id9" x1="61" y1="1159" x2="60" y2="1281">
  </linearGradient>
  <linearGradient id="id14" gradientUnits="userSpaceOnUse" xlink:href="#id9" x1="61" y1="648" x2="112" y2="926">
  </linearGradient>
  <linearGradient id="id15" gradientUnits="userSpaceOnUse" xlink:href="#id0" x1="392" y1="593" x2="478" y2="567">
  </linearGradient>
  <linearGradient id="id16" gradientUnits="userSpaceOnUse" xlink:href="#id12" x1="71" y1="535" x2="189" y2="887">
  </linearGradient>
  <linearGradient id="id17" gradientUnits="userSpaceOnUse" xlink:href="#id9" x1="810" y1="905" x2="963" y2="905">
  </linearGradient>
  <linearGradient id="id18" gradientUnits="userSpaceOnUse" xlink:href="#id9" x1="564" y1="679" x2="486" y2="762">
  </linearGradient>
  <linearGradient id="id19" gradientUnits="userSpaceOnUse" xlink:href="#id12" x1="278" y1="1639" x2="486" y2="895">
  </linearGradient>
  <linearGradient id="id20" gradientUnits="userSpaceOnUse" xlink:href="#id9" x1="832" y1="929" x2="610" y2="1172">
  </linearGradient>
  <linearGradient id="id21" gradientUnits="userSpaceOnUse" xlink:href="#id0" x1="399" y1="674" x2="386" y2="596">
  </linearGradient>
  <linearGradient id="id22" gradientUnits="userSpaceOnUse" xlink:href="#id0" x1="495" y1="404" x2="522" y2="361">
  </linearGradient>
  <linearGradient id="id23" gradientUnits="userSpaceOnUse" xlink:href="#id9" x1="687" y1="977" x2="462" y2="1217">
  </linearGradient>
  <linearGradient id="id24" gradientUnits="userSpaceOnUse" xlink:href="#id12" x1="-33" y1="1733" x2="175" y2="990">
  </linearGradient>
  <linearGradient id="id25" gradientUnits="userSpaceOnUse" xlink:href="#id12" x1="636" y1="1568" x2="842" y2="827">
  </linearGradient>
  <linearGradient id="id26" gradientUnits="userSpaceOnUse" xlink:href="#id9" x1="827" y1="674" x2="653" y2="932">
  </linearGradient>
  <linearGradient id="id27" gradientUnits="userSpaceOnUse" x1="441" y1="358" x2="419" y2="600">
   <stop offset="0" style="stop-opacity:1; stop-color:#53D8FF"/>
   <stop offset="1" style="stop-opacity:1; stop-color:#3840F7"/>
  </linearGradient>
  <linearGradient id="id28" gradientUnits="userSpaceOnUse" xlink:href="#id9" x1="17797" y1="-4989" x2="17515" y2="-4895">
  </linearGradient>
  <linearGradient id="id29" gradientUnits="userSpaceOnUse" xlink:href="#id9" x1="905" y1="698" x2="1143" y2="294">
  </linearGradient>
  <linearGradient id="id30" gradientUnits="userSpaceOnUse" xlink:href="#id0" x1="729" y1="454" x2="682" y2="433">
  </linearGradient>
  <linearGradient id="id31" gradientUnits="userSpaceOnUse" xlink:href="#id9" x1="945" y1="836" x2="760" y2="1045">
  </linearGradient>
  <linearGradient id="id32" gradientUnits="userSpaceOnUse" xlink:href="#id9" x1="507" y1="750" x2="398" y2="786">
  </linearGradient>
  <linearGradient id="id33" gradientUnits="userSpaceOnUse" xlink:href="#id12" x1="649" y1="1565" x2="854" y2="824">
  </linearGradient>
  <linearGradient id="id34" gradientUnits="userSpaceOnUse" xlink:href="#id9" x1="438" y1="394" x2="426" y2="477">
  </linearGradient>
  <linearGradient id="id35" gradientUnits="userSpaceOnUse" xlink:href="#id27" x1="444" y1="359" x2="422" y2="600">
  </linearGradient>
  <linearGradient id="id36" gradientUnits="userSpaceOnUse" xlink:href="#id9" x1="802" y1="661" x2="659" y2="878">
  </linearGradient>
  <linearGradient id="id37" gradientUnits="userSpaceOnUse" xlink:href="#id0" x1="306" y1="1427" x2="462" y2="798">
  </linearGradient>
  <linearGradient id="id38" gradientUnits="userSpaceOnUse" xlink:href="#id12" x1="1252" y1="256" x2="867" y2="826">
  </linearGradient>
  <linearGradient id="id39" gradientUnits="userSpaceOnUse" xlink:href="#id0" x1="467" y1="453" x2="402" y2="602">
  </linearGradient>
  <linearGradient id="id40" gradientUnits="userSpaceOnUse" xlink:href="#id9" x1="807" y1="733" x2="619" y2="961">
  </linearGradient>
  <linearGradient id="id41" gradientUnits="userSpaceOnUse" xlink:href="#id9" x1="874" y1="549" x2="935" y2="613">
  </linearGradient>
  <linearGradient id="id42" gradientUnits="userSpaceOnUse" xlink:href="#id0" x1="708" y1="444" x2="654" y2="411">
  </linearGradient>
  <linearGradient id="id43" gradientUnits="userSpaceOnUse" xlink:href="#id0" x1="184" y1="430" x2="254" y2="519">
  </linearGradient>
  <linearGradient id="id44" gradientUnits="userSpaceOnUse" x1="290" y1="171" x2="219" y2="380">
   <stop offset="0" style="stop-opacity:1; stop-color:#E1473D"/>
   <stop offset="1" style="stop-opacity:1; stop-color:#E9605A"/>
  </linearGradient>
  <linearGradient id="id45" gradientUnits="userSpaceOnUse" xlink:href="#id0" x1="699" y1="604" x2="827" y2="605">
  </linearGradient>
  <linearGradient id="id46" gradientUnits="userSpaceOnUse" xlink:href="#id0" x1="192" y1="518" x2="135" y2="467">
  </linearGradient>
  <linearGradient id="id47" gradientUnits="userSpaceOnUse" xlink:href="#id0" x1="194" y1="1021" x2="200" y2="972">
  </linearGradient>
  <linearGradient id="id48" gradientUnits="userSpaceOnUse" xlink:href="#id9" x1="226" y1="1151" x2="225" y2="1267">
  </linearGradient>
  <linearGradient id="id49" gradientUnits="userSpaceOnUse" xlink:href="#id0" x1="887" y1="645" x2="899" y2="614">
  </linearGradient>
  <linearGradient id="id50" gradientUnits="userSpaceOnUse" xlink:href="#id0" x1="208" y1="491" x2="162" y2="443">
  </linearGradient>
  <linearGradient id="id51" gradientUnits="userSpaceOnUse" xlink:href="#id12" x1="225" y1="997" x2="341" y2="734">
  </linearGradient>
  <linearGradient id="id52" gradientUnits="userSpaceOnUse" xlink:href="#id0" x1="369" y1="767" x2="543" y2="767">
  </linearGradient>
  <linearGradient id="id53" gradientUnits="userSpaceOnUse" xlink:href="#id12" x1="-27" y1="1728" x2="179" y2="987">
  </linearGradient>
  <linearGradient id="id54" gradientUnits="userSpaceOnUse" xlink:href="#id0" x1="490" y1="1027" x2="522" y2="562">
  </linearGradient>
  <linearGradient id="id55" gradientUnits="userSpaceOnUse" xlink:href="#id27" x1="441" y1="359" x2="419" y2="600">
  </linearGradient>
  <linearGradient id="id56" gradientUnits="userSpaceOnUse" xlink:href="#id12" x1="-39" y1="1732" x2="167" y2="990">
  </linearGradient>
  <linearGradient id="id57" gradientUnits="userSpaceOnUse" xlink:href="#id0" x1="114" y1="501" x2="58" y2="443">
  </linearGradient>
  <linearGradient id="id58" gradientUnits="userSpaceOnUse" x1="1133" y1="1319" x2="289" y2="219">
   <stop offset="0" style="stop-opacity:1; stop-color:#DAE3FE"/>
   <stop offset="1" style="stop-opacity:1; stop-color:#E9EFFD"/>
  </linearGradient>
  <linearGradient id="id59" gradientUnits="userSpaceOnUse" xlink:href="#id9" x1="589" y1="683" x2="521" y2="759">
  </linearGradient>
  <linearGradient id="id60" gradientUnits="userSpaceOnUse" xlink:href="#id9" x1="657" y1="386" x2="726" y2="436">
  </linearGradient>
  <linearGradient id="id61" gradientUnits="userSpaceOnUse" xlink:href="#id0" x1="367" y1="582" x2="427" y2="553">
  </linearGradient>
  <linearGradient id="id62" gradientUnits="userSpaceOnUse" xlink:href="#id0" x1="673" y1="612" x2="712" y2="612">
  </linearGradient>
  <linearGradient id="id63" gradientUnits="userSpaceOnUse" xlink:href="#id0" x1="558" y1="1002" x2="580" y2="1002">
  </linearGradient>
  <linearGradient id="id64" gradientUnits="userSpaceOnUse" xlink:href="#id9" x1="241" y1="545" x2="207" y2="686">
  </linearGradient>
  <linearGradient id="id65" gradientUnits="userSpaceOnUse" xlink:href="#id9" x1="638" y1="676" x2="494" y2="912">
  </linearGradient>
  <linearGradient id="id66" gradientUnits="userSpaceOnUse" xlink:href="#id0" x1="893" y1="580" x2="841" y2="634">
  </linearGradient>
  <linearGradient id="id67" gradientUnits="userSpaceOnUse" xlink:href="#id9" x1="631" y1="534" x2="702" y2="829">
  </linearGradient>
  <linearGradient id="id68" gradientUnits="userSpaceOnUse" xlink:href="#id9" x1="370" y1="485" x2="342" y2="638">
  </linearGradient>
  <linearGradient id="id69" gradientUnits="userSpaceOnUse" xlink:href="#id27" x1="439" y1="358" x2="417" y2="600">
  </linearGradient>
  <linearGradient id="id70" gradientUnits="userSpaceOnUse" xlink:href="#id12" x1="816" y1="811" x2="825" y2="1015">
  </linearGradient>
  <linearGradient id="id71" gradientUnits="userSpaceOnUse" xlink:href="#id12" x1="108" y1="825" x2="102" y2="811">
  </linearGradient>
  <linearGradient id="id72" gradientUnits="userSpaceOnUse" xlink:href="#id9" x1="-11890" y1="-12627" x2="-11682" y2="-12407">
  </linearGradient>
  <linearGradient id="id73" gradientUnits="userSpaceOnUse" xlink:href="#id9" x1="377" y1="515" x2="481" y2="618">
  </linearGradient>
 </defs>
 <g id="Camada_x0020_1">
  <metadata id="CorelCorpID_0Corel-Layer"/>
  <polygon class="fil0" points="1080,1080 0,1080 0,0 1080,0 "/>
  <path class="fil1" d="M146 913c21,22 41,37 57,48 187,134 409,95 456,86 70,-14 204,-41 301,-156 147,-173 124,-445 10,-625 -21,-33 -131,-215 -355,-245 -136,-18 -294,18 -408,114 -240,201 -223,608 -62,778z"/>
  <path class="fil2" d="M1045 371c1,0 2,-2 2,-3 0,-4 0,-8 0,-12 0,-2 -1,-3 -3,-3 -4,0 -3,4 -3,15 0,2 1,3 3,3 0,0 1,0 1,0z"/>
  <path class="fil2" d="M612 129c19,-11 23,-10 21,-14 -1,-3 -4,-1 -4,-1 -7,3 -14,7 -20,11 -1,1 -2,3 -1,4 1,1 3,2 4,1zm78 -34c0,-2 -2,-2 -4,-2 -7,2 -15,4 -22,6 -4,1 -2,7 2,6 7,-2 14,-4 22,-6 2,0 3,-2 2,-4zm-126 68c17,-15 21,-15 18,-18 -1,-1 -3,-2 -4,-1 -6,5 -12,9 -18,15 -3,3 1,7 4,4zm184 -76c0,-2 -1,-3 -3,-3 -8,0 -15,1 -23,2 -4,0 -3,6 1,6 7,-1 15,-2 22,-2 2,0 3,-1 3,-3zm57 6c1,0 2,-1 2,-2 0,-2 -1,-3 -2,-3 -7,-1 -15,-2 -23,-3 -2,0 -3,1 -3,3 0,2 1,3 3,3 7,1 15,2 22,3 1,0 1,0 2,0zm57 15c1,0 1,-1 2,-2 1,-2 0,-3 -2,-4 -7,-3 -14,-5 -22,-7 -2,0 -3,0 -4,2 0,2 0,3 2,4 7,2 14,4 21,7 1,0 2,0 2,0zm54 25c1,-1 1,-3 -1,-4 -6,-4 -13,-8 -20,-11 -3,-2 -6,3 -3,5 7,3 13,7 19,11 1,1 3,0 4,-1zm45 37c1,-1 1,-3 0,-4 -5,-5 -11,-10 -17,-15 -3,-2 -7,2 -4,4 6,5 11,10 16,15 1,1 3,1 4,0zm38 41c-4,-6 -9,-12 -13,-18 -2,-3 -7,1 -5,4 5,6 9,12 13,18 2,3 7,0 5,-3zm27 52c-3,-7 -6,-14 -9,-21 -2,-4 -7,-1 -5,3 3,7 6,13 9,20 1,1 2,2 4,2 2,-1 2,-2 2,-4zm16 57c-1,-7 -3,-15 -5,-22 0,-2 -2,-2 -4,-2 -4,1 -1,3 2,25 0,2 2,3 3,2 2,0 3,-2 2,-3z"/>
  <path class="fil2" d="M531 198c6,-8 10,-10 7,-13 -1,-1 -3,-1 -4,0 -7,8 -10,11 -7,13 1,1 3,1 4,-1z"/>
  <path class="fil2" d="M467 415c1,-1 2,-2 2,-3 0,-4 -1,-8 -1,-11 0,-2 -2,-3 -3,-3 -2,0 -3,2 -3,3 0,4 1,8 1,12 0,2 2,3 3,2 0,0 1,0 1,0z"/>
  <path class="fil2" d="M482 476c1,-1 2,-2 2,-4 -3,-7 -5,-15 -7,-23 0,-2 -2,-2 -4,-2 -2,0 -3,2 -2,4 2,8 5,15 7,23 1,2 2,2 4,2 0,0 0,0 0,0zm28 56c4,-2 0,-4 -11,-24 -2,-3 -7,-1 -5,3 4,7 8,14 12,21 1,1 3,2 4,1zm40 48c3,-3 -1,-4 -16,-21 -3,-3 -7,1 -5,4 5,6 11,12 17,18 1,1 3,1 4,0zm49 39c1,0 1,-1 1,-1 1,-1 0,-3 -1,-4 -7,-4 -13,-9 -20,-13 -1,-1 -3,-1 -4,1 -1,1 -1,3 1,4 7,5 13,9 20,14 1,1 2,1 3,0zm57 27c1,0 1,-1 2,-2 1,-2 0,-3 -2,-4 -8,-3 -15,-5 -22,-9 -1,-1 -3,0 -4,2 -1,1 0,3 1,4 7,3 15,6 23,9 1,0 2,0 2,0zm62 14c1,0 2,-1 2,-2 0,-2 -1,-3 -3,-3 -8,-1 -16,-2 -24,-4 -2,0 -3,1 -4,2 0,2 1,3 2,3 8,2 16,3 24,4 1,0 1,0 2,0zm64 0c1,-1 2,-2 2,-3 0,-2 -2,-3 -3,-3 -8,1 -16,1 -24,2 -2,0 -3,1 -3,3 0,2 1,3 3,3 8,0 16,-1 25,-2 0,0 1,0 1,0zm154 -64c6,-5 13,-11 19,-16 1,-1 1,-3 0,-4 -3,-3 -4,1 -22,16 -1,1 -1,3 0,4 1,1 3,1 4,0zm-90 46c-1,-4 -4,-1 -27,5 -2,0 -3,2 -2,4 0,2 2,3 4,2 8,-2 16,-4 24,-7 2,-1 2,-2 2,-4zm35 -12c7,-4 15,-8 22,-12 1,-1 2,-3 1,-4 -2,-4 -4,0 -25,11 -1,1 -2,2 -1,4 1,3 4,1 4,1z"/>
  <path class="fil2" d="M982 549c6,-8 10,-11 7,-13 -3,-2 -5,2 -11,10 -1,1 -1,3 0,4 1,1 3,1 4,-1z"/>
  <path class="fil2" d="M945 478l-42 -2c-12,16 -26,30 -43,42 1,41 4,43 0,45l-47 20c-1,1 -3,0 -4,-1l-28 -31c-20,3 -40,3 -60,0l-28 31c-1,1 -3,1 -4,1l-47 -19c-1,-1 -2,-2 -2,-3l3 -42c-16,-11 -30,-25 -42,-41l-42 3c-1,0 -3,-1 -3,-2l-19 -46c-1,-1 0,-3 1,-4l32 -28c-3,-20 -3,-40 1,-59 -30,-27 -34,-27 -32,-31 20,-45 19,-49 23,-49l42 2c12,-16 26,-30 43,-42 -1,-40 -4,-43 0,-45 47,-19 48,-22 51,-19l28 31c20,-3 40,-3 60,0 28,-30 28,-34 32,-32 46,19 49,18 49,22l-3 42c16,11 30,25 42,41 40,-2 44,-5 46,-1 18,46 21,47 18,50l-32 28c3,20 3,40 -1,59 30,27 34,27 32,31 -20,45 -19,49 -23,49z"/>
  <path class="fil3" d="M747 331c22,-3 43,11 46,34 3,22 -13,42 -35,46 -22,3 -43,-12 -46,-34 -3,-22 13,-42 35,-46zm12 84l0 0 0 0zm43 -51c-4,-27 -29,-45 -56,-41 -27,4 -46,29 -42,56 4,27 29,45 56,41l0 0c27,-4 46,-29 42,-56z"/>
  <path class="fil3" d="M804 483l0 0c7,-3 13,-7 19,-11 2,-1 2,-4 2,-5 0,0 0,0 0,-1 -1,-2 -4,-2 -6,-1 -7,5 -14,9 -22,12l0 0c-59,24 -126,-1 -152,-58 -1,-1 -1,-3 -2,-4 -24,-60 5,-128 66,-153 60,-25 129,3 154,62 15,35 6,60 7,64 2,4 8,3 8,-1 4,-23 1,-48 -10,-71 -45,-98 -190,-94 -233,6 -13,31 -14,65 -1,96 1,2 1,3 2,5 13,29 36,51 66,63 31,13 66,12 97,-1 2,-1 3,-1 5,-2z"/>
  <path class="fil2" d="M436 298c-7,8 -16,16 -25,22l0 24c0,3 -2,2 -28,11 -2,1 -2,-1 -16,-20 -11,1 -23,0 -33,-3l-17 16c-2,2 -3,0 -27,-13 -1,0 -1,-1 -1,-2l3 -23c-8,-7 -16,-16 -22,-25 -23,-1 -25,1 -25,-2 -8,-27 -10,-28 -8,-29l19 -14c-1,-11 0,-23 3,-33l-16 -17c-2,-2 0,-3 13,-27 1,-2 2,0 25,2 7,-8 16,-16 25,-22l0 -24c0,-3 2,-2 28,-11 2,-1 2,1 16,20 11,-1 23,0 33,3l17 -16c1,-1 2,-1 2,0l25 13c1,0 1,1 1,2l-3 23c8,7 16,16 22,25 23,1 25,-1 25,2 8,27 10,28 8,29l-19 14c1,11 0,23 -3,33 15,17 18,17 17,19l-13 25c-1,2 -3,0 -25,-2z"/>
  <path class="fil3" d="M378 230c1,11 -8,21 -19,22l0 0c-18,1 -29,-21 -17,-34 12,-14 35,-6 36,12zm-19 26l0 0 0 0zm28 -27c-1,-16 -15,-29 -31,-28 -16,1 -29,15 -28,31 1,16 15,29 31,28l0 0c16,-1 29,-15 28,-31z"/>
  <path class="fil2" d="M506 275c1,-4 2,-8 3,-12 0,-2 -1,-3 -2,-3 -4,-1 -3,4 -6,13 0,2 0,3 2,4 2,0 3,0 4,-2z"/>
  <path class="fil2" d="M343 80c0,-2 -2,-3 -3,-3 -8,1 -16,2 -24,5 -4,1 -2,7 2,6 7,-2 15,-4 23,-4 2,0 3,-2 3,-3zm60 9c1,0 1,-1 2,-2 0,-2 0,-3 -2,-4 -8,-2 -16,-4 -24,-5 -2,0 -3,1 -3,3 0,2 1,3 3,3 8,1 15,3 23,5 1,0 1,0 2,0zm54 30c0,0 1,0 1,-1 1,-1 1,-3 0,-4 -6,-5 -13,-10 -20,-14 -1,-1 -3,0 -4,1 -1,1 0,3 1,4 7,4 13,9 19,14 1,1 2,1 3,0zm38 49c1,-1 2,-2 1,-4 -4,-7 -8,-14 -12,-21 -2,-3 -7,0 -5,3 4,6 8,13 12,20 1,3 4,1 4,1zm17 57c0,-8 -1,-16 -3,-24 -1,-4 -7,-3 -6,1 4,21 1,26 6,26 2,0 3,-1 3,-3z"/>
  <path class="fil2" d="M272 108c9,-6 13,-7 11,-10 -1,-1 -3,-2 -4,-1 -3,2 -7,4 -10,6 -1,1 -2,3 -1,4 1,1 3,2 4,1z"/>
  <path class="fil2" d="M209 212c1,-11 4,-14 0,-15 -2,0 -3,1 -3,2 -1,4 -1,8 -2,12 0,2 1,3 3,3 2,0 3,-1 3,-3z"/>
  <path class="fil2" d="M213 272c-6,-21 -3,-26 -8,-25 -2,0 -3,2 -3,3 1,8 3,16 5,23 0,2 2,2 4,2 2,0 2,-2 2,-4zm27 57c4,-3 -2,-5 -13,-23 -2,-3 -7,0 -5,3 4,7 9,13 14,20 1,1 3,1 4,0zm48 38c2,-4 -4,-4 -21,-16 -3,-2 -7,2 -4,5 6,5 13,9 20,13 1,1 3,0 4,-1zm59 16c0,-2 -1,-3 -3,-3 -21,-2 -25,-6 -26,-1 0,2 1,3 2,4 8,2 16,3 24,4 2,0 3,-1 3,-3zm60 -8c-2,-5 -5,0 -26,4 -4,1 -3,6 1,6 8,-1 16,-3 23,-6 2,0 2,-2 2,-4z"/>
  <path class="fil2" d="M441 361c3,-2 7,-4 10,-7 1,-1 2,-3 1,-4 -2,-3 -5,0 -14,6 -1,1 -2,3 -1,4 1,1 3,2 4,1z"/>
  <path class="fil3" d="M393 294c2,-1 3,-4 2,-6 -1,-2 -4,-3 -6,-2 -4,2 -8,4 -12,6 -1,0 -23,9 -49,-4 -51,-26 -45,-100 10,-118 31,-10 64,5 78,34 13,29 -2,44 8,47 2,1 5,-1 5,-3 3,-13 2,-26 -2,-39 -12,-38 -53,-59 -92,-47 -41,13 -62,60 -44,100 15,32 52,50 88,39l0 0c5,-2 10,-4 14,-6z"/>
  <path class="fil4" d="M405 399c0,-1 2,-3 4,-4 -3,-1 -4,-3 -4,-4 0,-5 15,-7 32,-6 17,1 31,6 31,11 0,1 -2,3 -4,4 3,1 4,3 4,4 0,1 -2,3 -4,4 3,1 4,3 4,4 0,1 -2,3 -4,4 3,1 4,3 4,4 0,2 -3,4 -8,5 0,1 0,3 0,5 -1,8 -10,15 -23,15 -12,0 -23,-9 -23,-17 0,-2 0,-4 0,-5 -6,-2 -10,-4 -9,-7 0,-1 2,-3 4,-4 -3,-1 -4,-3 -4,-4 0,-1 2,-3 4,-4 -3,-1 -4,-3 -4,-4z"/>
  <path class="fil5" d="M445 427c5,0 10,0 14,-1 0,0 0,0 0,0 0,0 0,0 0,0 -6,1 -14,1 -23,1 -7,-1 -14,-2 -19,-3 0,0 0,0 -1,0 0,0 0,0 0,1 6,2 12,3 19,3 3,0 6,0 9,0z"/>
  <path class="fil6" d="M445 419c7,0 13,-1 17,-2 0,0 0,0 0,-1 0,0 0,0 -1,0 -6,2 -16,2 -26,1 -10,-1 -20,-3 -25,-5 0,0 0,0 -1,0 0,0 0,0 0,1 6,3 15,5 26,6 3,0 6,0 9,0z"/>
  <path class="fil7" d="M445 411c7,0 14,-1 18,-2 0,0 0,0 0,-1 0,0 0,0 -1,0 -6,2 -16,3 -27,2 -10,-1 -20,-3 -25,-5 0,0 0,0 -1,0 0,0 0,0 0,1 6,3 15,5 26,6 3,0 6,0 9,0z"/>
  <path class="fil8" d="M445 403c6,0 11,0 15,-1 0,0 0,0 0,-1 0,0 0,0 -1,0 -6,1 -15,2 -24,1 -10,-1 -19,-3 -25,-5 0,0 0,0 -1,0 0,0 0,0 0,1 6,3 15,5 25,6 3,0 6,0 9,0z"/>
  <path class="fil9" d="M480 359c2,-7 6,-14 11,-21 10,-13 27,-40 29,-76 3,-53 -44,-79 -86,-75 -43,4 -85,35 -80,84 3,30 20,53 32,66 8,8 14,19 17,30 4,14 13,31 34,32 28,1 39,-24 43,-40z"/>
  <path class="fil10" d="M429 388l-15 -97c0,-2 -1,-3 -2,-3 -1,0 -1,2 -1,4 0,0 0,0 0,0l17 96c0,1 0,1 1,1 0,0 0,-1 0,-2z"/>
  <path class="fil10" d="M445 389l15 -97c0,-2 1,-3 2,-3 1,0 1,2 1,4 0,0 0,0 0,0l-17 96c0,1 0,1 -1,1 0,0 0,-1 0,-2z"/>
  <path class="fil11" d="M414 283c0,-1 1,-1 2,-1l8 4 3 -8c0,0 1,-1 1,-1 1,0 2,0 3,1l0 0 7 12 6 -18 0 0c0,0 0,-1 1,-1 1,-1 2,0 3,1l10 13c0,1 0,1 0,2 -1,0 -2,0 -2,0l-8 -9 -8 17 0 0c0,0 0,1 -1,1 -1,0 -2,0 -2,-1l-7 -12 -3 6 0 0c0,0 0,0 0,0 0,1 -1,1 -2,1l-10 -5c-1,0 -1,-1 -1,-2z"/>
  <path class="fil11" d="M385 325c0,0 1,0 1,0 1,-1 1,-2 0,-3 -3,-3 -5,-7 -7,-11 -1,-1 -2,-1 -3,-1 -1,1 -1,2 -1,3 2,4 5,7 7,11 0,1 1,1 2,1z"/>
  <path class="fil11" d="M373 304c0,0 1,0 1,0 1,0 1,-2 1,-2 -16,-36 -2,-67 -2,-67 0,-1 0,-2 -1,-3 -1,0 -2,0 -3,1 -1,1 -14,32 2,70 0,1 1,1 2,1z"/>
  <path class="fil12" d="M688 994c0,0 2,13 4,26 1,5 -3,10 -9,10 -17,1 -55,3 -68,2 -2,0 -3,-2 -3,-4 1,-2 2,-3 3,-4l61 -29 11 -2z"/>
  <path class="fil13" d="M690 986l-2 16c0,0 -11,5 -18,0l4 -18 16 2z"/>
  <path class="fil14" d="M685 689c1,4 6,206 -14,296 0,1 0,3 2,4 3,1 10,3 18,3 2,0 5,-2 5,-4 6,-21 35,-126 37,-227 3,-112 0,-4 0,-4l-3 -69 -44 0z"/>
  <path class="fil15" d="M759 1000c0,0 4,7 8,24 1,3 -2,6 -5,7 -6,1 -15,1 -22,1 -3,0 -6,-3 -5,-6 1,-6 3,-17 11,-25l14 -1z"/>
  <path class="fil16" d="M762 980l-4 24c0,0 -4,3 -13,1l2 -26 15 1z"/>
  <path class="fil17" d="M771 695c19,106 -1,263 -8,294 0,2 -2,3 -4,4 -3,1 -9,1 -14,0 -2,-1 -3,-2 -3,-4 -1,-25 -1,-177 -18,-237 -1,-3 -3,-6 -5,-7l-32 -22 -3 -37 87 10z"/>
  <path class="fil9" d="M657 494c53,-1 111,13 111,13 17,92 5,198 5,198 -41,11 -87,-6 -87,-6 -7,-38 -40,-146 -40,-146 -26,-3 -47,-10 -65,-20 13,-16 19,-35 22,-47 19,6 38,9 54,8z"/>
  <path class="fil18" d="M500 418c5,-6 12,-3 12,-3 8,33 49,59 91,72 -3,12 -9,31 -22,47 -70,-38 -81,-115 -81,-115z"/>
  <path class="fil19" d="M501 419c-1,2 6,4 9,-3 0,-3 2,-18 0,-21 -11,-15 -32,-33 -32,-33 -3,4 -1,7 -1,7l10 10c-2,4 -5,7 -6,12 -1,4 0,7 2,10 2,3 4,7 7,11 4,6 11,6 11,6z"/>
  <path class="fil20" d="M493 387l9 8 3 8 -8 9c0,0 -3,-15 -5,-19 -2,-3 -1,-5 1,-6z"/>
  <path class="fil9" d="M748 558l20 -51c0,0 50,33 58,76 -9,1 -26,3 -43,12 -4,-20 -35,-36 -35,-36z"/>
  <path class="fil21" d="M705 607c0,0 56,31 74,4 4,-6 5,-11 4,-16 17,-9 34,-11 43,-12 3,13 1,26 -6,40 -32,60 -122,-2 -122,-2l7 -14z"/>
  <path class="fil22" d="M710 450l17 48c0,1 0,2 -1,2 -5,3 -21,10 -41,-2 -2,-1 -4,-3 -4,-6l-6 -42 34 0z"/>
  <path class="fil23" d="M673 406c0,0 -18,35 -16,49 3,14 25,13 45,1l14 -38 -43 -12z"/>
  <path class="fil24" d="M701 438c-1,0 -1,-1 -1,-2 1,-2 4,-7 5,-11 0,0 3,-2 -8,-5 -12,-3 -29,-7 -33,-17 -4,-10 6,-34 21,-15 1,1 2,1 2,0 2,-3 9,-10 18,-6 8,4 9,10 9,13 0,1 1,2 2,1 4,-1 15,-2 19,9 4,9 2,14 -1,16 -1,1 0,2 1,2 3,1 6,3 6,10 0,9 -11,8 -13,8 0,0 -1,0 -1,0 -2,3 -14,15 -26,16 -1,0 -2,-1 -2,-2l5 -15c0,-1 0,-1 -1,-2l-3 -1z"/>
  <path class="fil25" d="M699 440c0,0 13,-9 14,-2 1,8 -12,11 -18,8l4 -7z"/>
  <path class="fil26" d="M717 655l-30 -106c0,-1 -1,-2 -3,-2 -6,-1 -21,-2 -40,-4 -22,-2 -48,-3 -63,-2 -2,0 -4,2 -3,4 9,18 45,90 63,113 1,1 2,1 3,1l70 -1c2,0 4,-2 3,-4z"/>
  <path class="fil27" d="M709 630c0,0 4,-17 3,-24 -2,-6 -5,-14 -16,-12 -11,2 -24,6 -24,6 0,0 1,8 9,5l-5 4c0,0 1,6 8,3l-5 5c0,0 3,5 8,2 5,-3 8,12 22,10z"/>
  <path class="fil2" d="M646 575c0,5 -4,9 -9,9 -5,0 -9,-4 -9,-9 0,-5 4,-9 9,-9 5,0 9,4 9,9z"/>
  <path class="fil2" d="M683 581l2 -1 -6 -21c-1,-3 -4,-6 -7,-7 -20,-4 -71,-5 -73,-5l0 2c1,0 54,1 73,5 3,1 5,2 5,5l6 21z"/>
  <path class="fil28" d="M1042 877c3,5 16,113 18,153 0,3 -2,5 -5,5l0 0c-2,0 -4,-2 -5,-4l-24 -151 15 -3z"/>
  <path class="fil28" d="M939 877c-3,5 -16,113 -18,153 0,3 2,5 5,5l0 0c2,0 4,-2 5,-4l24 -151 -15 -3z"/>
  <path class="fil28" d="M1062 869l0 1c0,9 -7,15 -16,16l-109 2c-9,0 -17,-6 -17,-15l0 -1c0,-9 7,-16 16,-16l109 -2c9,0 17,7 17,15z"/>
  <path class="fil2" d="M833 1027c19,0 28,-2 32,-3 -1,3 -4,6 -7,6l-68 0c-2,0 -4,-2 -3,-4 8,1 24,2 47,2z"/>
  <path class="fil29" d="M786 1025c0,0 0,-1 1,-1 5,-7 16,-17 30,-17 21,0 28,3 44,0l4 13c0,1 0,3 0,4 -4,2 -12,3 -32,3 -23,0 -39,-1 -47,-2z"/>
  <path class="fil30" d="M856 993l5 16c0,0 -10,5 -20,1l-2 -14 17 -3z"/>
  <path class="fil31" d="M714 1017c15,12 23,16 27,17 -3,2 -6,2 -9,0l-53 -43c-2,-1 -2,-4 0,-5 6,5 18,17 36,31z"/>
  <path class="fil32" d="M678 986c0,0 1,0 1,-1 8,-2 23,-3 34,6 16,13 20,20 34,28l-5 12c-1,1 -1,2 -2,3 -4,-1 -12,-5 -27,-17 -18,-14 -30,-25 -36,-31z"/>
  <path class="fil33" d="M956 812c0,0 -116,9 -139,21 -24,11 19,168 19,168 0,0 6,3 21,-1 0,0 -15,-116 -4,-141l125 -21 -22 -26z"/>
  <path class="fil34" d="M759 997c-1,1 -12,22 -12,22 0,0 -12,-3 -14,-10l10 -19 15 7z"/>
  <path class="fil35" d="M1026 811c0,0 4,9 4,21 0,17 -14,30 -30,31l-137 6c-3,0 -5,2 -6,5 -3,12 -19,51 -96,127 -2,2 -5,2 -8,1l-11 -7c-1,-1 -2,-2 -1,-3l80 -136c4,-7 11,-12 19,-14l117 -30 70 -1z"/>
  <path class="fil36" d="M891 598c0,0 15,26 30,38l-31 17c0,0 -7,-27 -23,-35l24 -20z"/>
  <path class="fil37" d="M1028 812c0,0 -37,9 -72,0 0,0 -49,-66 -68,-84 0,0 -30,48 -98,55l-4 -8c0,0 54,-25 71,-63 17,-38 23,-55 38,-64 9,-6 15,-10 18,-13 2,-1 4,-1 6,0 16,10 91,61 110,179z"/>
  <path class="fil38" d="M890 726c1,0 1,0 2,-1 12,-15 18,-32 19,-33 0,-1 0,-3 -1,-3 -1,0 -3,0 -3,1 0,0 -7,17 -18,32 -1,1 -1,3 0,3 0,0 1,0 1,0z"/>
  <path class="fil39" d="M794 769l-8 -2 -23 -5c-3,-1 -6,0 -8,1l-20 13 55 0 4 -6z"/>
  <path class="fil40" d="M868 559c0,0 -14,24 -17,37 -2,13 -6,21 8,26 15,5 29,-1 37,-13 0,0 14,-19 12,-27 -1,-9 -41,-22 -41,-22z"/>
  <path class="fil41" d="M893 598l-2 0c0,0 10,-15 3,-19 -7,-4 -34,-13 -38,-24 -5,-10 2,-22 10,-24 1,0 1,0 1,1l0 1c0,1 2,1 2,0 0,-1 2,-1 2,0 1,3 6,9 19,13 18,6 30,15 28,28 0,1 1,1 1,1 2,-1 4,-1 6,2 5,5 1,16 -12,24 -1,0 -1,1 0,2 2,2 5,5 -4,8 -9,3 -13,2 -15,1 0,0 -1,-1 -1,-1l2 -11c0,-1 0,-1 -1,-1l-4 -1z"/>
  <path class="fil42" d="M892 601c0,0 6,-16 13,-10 7,5 -6,17 -12,17l-1 -7z"/>
  <path class="fil43" d="M815 786c0,0 0,0 0,0l-117 0c-3,0 -5,-2 -5,-5 0,-3 2,-5 5,-5l117 0c3,0 5,2 5,5 0,3 -2,5 -5,5z"/>
  <path class="fil44" d="M652 671c0,0 0,0 0,0l49 107c1,3 0,6 -3,7 -3,1 -6,0 -7,-3l-49 -107c-1,-3 0,-6 3,-7 3,-1 6,0 7,2z"/>
  <polygon class="fil28" points="356,1028 344,1028 344,894 356,894 "/>
  <path class="fil28" d="M296 1030l109 0 0 0c0,-4 -4,-8 -8,-8l-92 0c-4,0 -8,4 -8,8l0 0z"/>
  <path class="fil28" d="M280 889c0,7 6,13 13,13l110 0c7,0 13,-6 13,-13l0 -12c0,-7 -6,-13 -13,-13l-110 0c-7,0 -13,6 -13,13l0 12z"/>
  <path class="fil45" d="M442 804c0,0 18,3 39,17 3,2 5,6 5,10 -2,20 -13,83 -46,145 -2,3 -2,7 -2,11l6 27 11 10 -28 0 -19 -50 8 -3c6,-2 10,-8 11,-14l1 -54c-1,-24 15,-41 15,-41l-45 -2 44 -56z"/>
  <path class="fil46" d="M465 1029c3,3 -27,8 -42,0 0,0 -21,-36 -21,-55 0,0 2,-4 14,-3 0,0 7,43 14,48 7,5 21,0 21,0 0,0 10,4 14,9z"/>
  <path class="fil47" d="M403 864c0,0 48,-6 48,-6 0,0 -2,15 3,35 5,20 75,107 75,107l-7 23c23,8 45,9 67,4l-46 -27c0,0 -43,-145 -69,-171l-48 -17 -24 52z"/>
  <path class="fil48" d="M296 779c0,0 -28,41 -30,60 -2,19 8,26 36,28 29,1 106,1 106,1l66 -56c0,0 -48,-17 -60,-22 -12,-5 -118,-10 -118,-10z"/>
  <path class="fil49" d="M525 1014c0,0 -8,8 -3,16 0,0 63,11 80,6 0,0 -4,-8 -23,-17l1 1c2,1 1,4 -2,4 -13,-1 -39,-3 -54,-10z"/>
  <path class="fil50" d="M415 519c-56,-10 -83,36 -81,46 0,1 -1,2 -2,2 -6,-2 -21,-4 -30,7 -8,10 -2,19 3,24 1,1 0,3 -1,3 -12,-2 -38,-2 -42,22 -4,23 12,29 21,31 2,0 2,2 1,3 -5,3 -10,9 -8,21 3,19 40,17 45,17 0,0 1,0 1,0l59 -34c0,0 1,-1 1,-1l12 -69c0,-1 0,-1 0,-2l39 -54c14,-2 -15,-16 -16,-17z"/>
  <path class="fil51" d="M370 774c0,0 32,-31 48,-51 9,-11 11,-25 7,-39 -7,-24 -20,-49 -21,-53 -2,-6 -38,-6 -38,-6 0,0 -71,46 -98,124l31 10c0,0 18,-31 37,-51 0,0 -32,42 -33,59l67 7z"/>
  <path class="fil52" d="M409 597c0,1 -10,32 -10,33 -1,1 -21,2 -30,-5l23 -45 17 17z"/>
  <path class="fil53" d="M446 558c0,0 5,18 -8,42 -13,24 -27,24 -34,16 -8,-8 -17,-21 -15,-44 2,-23 51,-37 58,-14z"/>
  <path class="fil54" d="M406 573c0,0 21,-32 40,-7l0 9c0,0 23,-3 19,-24 -4,-21 -24,-34 -49,-25 -25,9 -40,18 -42,37 -2,18 13,14 13,14 0,0 5,-13 11,-14 7,-1 5,9 5,9l2 1z"/>
  <path class="fil55" d="M401 573c0,0 11,-16 0,-19 -11,-2 -9,16 -8,23l8 -4z"/>
  <path class="fil56" d="M436 776l-24 -23 -33 14c0,0 -32,5 -51,0 -19,-5 -19,-5 -19,-5l-42 -13 -7 19c-2,5 0,10 4,13 4,3 8,5 11,7 6,2 136,-2 136,-2l23 -9z"/>
  <path class="fil57" d="M346 787c0,0 0,0 0,0l137 0c3,0 6,-3 6,-6 0,-3 -3,-6 -6,-6l-137 0c-3,0 -6,3 -6,6 0,3 3,6 6,6z"/>
  <path class="fil58" d="M606 663l-114 0c-8,0 -16,5 -20,12l-53 111 141 0c5,0 10,-3 12,-8l41 -103c2,-6 -2,-12 -8,-12z"/>
  <path class="fil59" d="M526 720c-2,8 -1,15 4,17 5,2 11,-3 13,-11 2,-8 1,-15 -4,-17 -5,-2 -11,3 -13,11z"/>
  <path class="fil60" d="M191 1013c0,0 -1,8 -2,17 0,4 3,8 7,8 14,1 46,4 66,1 3,0 4,-4 2,-6 -8,-8 -29,-23 -62,-26l-11 6z"/>
  <path class="fil61" d="M184 995l7 17c1,2 3,4 6,4 2,0 4,-1 6,-1 4,-1 6,-5 5,-9l-5 -18 -18 7z"/>
  <path class="fil62" d="M63 1027c0,0 14,12 20,27 2,4 -2,9 -6,9l-29 0c-4,0 -8,-4 -7,-8 2,-10 7,-28 22,-28z"/>
  <path class="fil63" d="M46 1012c0,0 3,13 5,21 0,2 2,2 4,2 4,-2 8,-2 11,-2 1,0 2,-1 2,-2l0 -21 -22 2z"/>
  <path class="fil64" d="M121 727l86 263c0,0 -17,11 -24,10l-102 -211c0,0 -18,130 -9,223l-29 2c0,0 -48,-239 -12,-320l91 33z"/>
  <path class="fil65" d="M81 787c0,0 0,0 0,0 0,0 -1,0 -1,-1l3 -27c0,0 0,-1 1,-1 0,0 1,0 1,1l-3 27c0,0 0,1 -1,1z"/>
  <path class="fil66" d="M137 496c0,0 -70,6 -60,56 0,0 -39,73 -57,158 -1,3 1,5 4,6l116 20c3,1 6,-1 7,-5l28 -107 11 50 34 -9 -29 -147c0,0 -4,-21 -55,-22z"/>
  <path class="fil2" d="M176 619c0,0 0,0 0,0 0,0 -1,-1 -1,-1l10 -44c0,0 1,-1 1,-1 0,0 1,1 1,1l-10 44c0,0 0,1 -1,1z"/>
  <path class="fil67" d="M169 751c-4,-2 -8,-3 -12,-2l-8 2c-2,0 -3,-1 -4,-3l-8 -74c-10,5 -26,4 -31,4l19 88 67 0 -24 -15z"/>
  <path class="fil68" d="M348 590l-2 -7c-1,-4 -4,-7 -8,-9l-37 -15c0,0 -1,-5 8,-8 8,-3 6,-13 6,-13 0,0 -11,5 -28,13 -10,5 -15,13 -18,19l-83 102 10 7c13,9 31,5 38,-9l45 -87c23,7 46,8 69,5z"/>
  <path class="fil69" d="M160 449l-21 60c0,0 19,15 33,10l11 -34c0,0 -8,-42 -22,-35z"/>
  <path class="fil70" d="M224 427c0,1 -21,58 -21,58l-33 -12 11 -57c0,0 42,-4 42,11z"/>
  <path class="fil71" d="M187 430l-8 30c0,0 0,1 0,1 0,2 1,11 9,10 8,-1 15,-2 19,0 2,1 3,3 2,5 -2,5 -6,17 -12,27 -1,2 -4,3 -6,2 -6,-3 -19,-9 -28,-16 -1,-1 -2,-3 -2,-4 1,-8 6,-31 6,-37 0,-6 -7,-11 -10,-13 -1,-1 -2,-2 -2,-3 -1,-4 -2,-13 10,-15 2,0 4,-3 4,-5 -1,-5 -1,-12 8,-14 9,-3 15,3 18,7 1,2 3,2 5,1 1,0 2,-1 4,1 2,2 5,1 6,-1 3,-4 8,-8 16,-5 15,5 14,22 9,31 -5,9 -21,3 -29,-3 -6,-5 -14,-2 -18,0 -1,1 -2,2 -2,3z"/>
  <path class="fil72" d="M166 457c0,0 9,-17 3,-22 -6,-5 -16,-4 -15,9 0,16 12,13 12,13z"/>
  <path class="fil73" d="M113 680c-5,0 -8,0 -9,0l-1 0 -25 -118c0,0 0,-1 1,-1 0,0 1,0 1,1l25 117c4,0 24,2 35,-6l-22 -103 5 -9c0,0 1,-1 1,0 0,0 1,1 0,1l-4 8 22 103 0 0c-8,6 -20,7 -28,7z"/>
  <path class="fil74" d="M875 1041c1,0 1,0 2,0 2,-1 3,-4 2,-6l-93 -235c-1,-2 -4,-4 -6,-3 -2,1 -3,4 -2,6l93 235c1,2 2,3 4,3z"/>
  <path class="fil75" d="M770 1041c2,0 3,-1 4,-3l93 -235c1,-2 0,-5 -2,-6 -2,-1 -5,0 -6,3l-93 235c-1,2 0,5 2,6 1,0 1,0 2,0z"/>
  <path class="fil76" d="M245 1041c1,0 1,0 2,0 2,-1 3,-4 2,-6l-93 -235c-1,-2 -4,-4 -6,-3 -2,1 -3,4 -2,6l93 235c1,2 2,3 4,3z"/>
  <path class="fil77" d="M140 1041c2,0 3,-1 4,-3l93 -235c1,-2 0,-5 -2,-6 -2,-1 -5,0 -6,3l-93 235c-1,2 0,5 2,6 1,0 1,0 2,0z"/>
  <path class="fil78" d="M258 782l-134 0 0 -14 134 0c-3,0 -3,14 0,14z"/>
  <path class="fil79" d="M125 782c-1,0 -1,-1 -1,-1l0 -11c0,-1 1,-1 1,-1l136 0c1,0 1,-1 1,-1l0 -1c0,-1 -1,-1 -1,-1l-145 0c-3,0 -6,3 -6,6l0 9c0,3 2,5 5,5l145 0c1,0 1,-1 1,-1l0 -1c0,-1 -1,-1 -1,-1l-136 0z"/>
  <path class="fil80" d="M104 792c0,-2 0,-3 2,-4 2,-1 4,-2 6,-2l805 0c3,0 6,1 8,3 2,2 2,4 1,6l-9 13c-2,3 -6,5 -11,5l-788 0c-4,0 -8,-2 -9,-5l-4 -15z"/>
 </g>
</svg>
