<?xml version="1.0" encoding="UTF-8"?>
<!DOCTYPE svg PUBLIC "-//W3C//DTD SVG 1.1//EN" "http://www.w3.org/Graphics/SVG/1.1/DTD/svg11.dtd">
<!-- Creator: CorelDRAW 2021 (64 Bit) -->
<svg xmlns="http://www.w3.org/2000/svg" xml:space="preserve" width="1080px" height="1080px" version="1.1" style="shape-rendering:geometricPrecision; text-rendering:geometricPrecision; image-rendering:optimizeQuality; fill-rule:evenodd; clip-rule:evenodd"
viewBox="0 0 1080 1080"
 xmlns:xlink="http://www.w3.org/1999/xlink"
 xmlns:xodm="http://www.corel.com/coreldraw/odm/2003">
 <defs>
  <style type="text/css">
   <![CDATA[
    .fil0 {fill:none;fill-rule:nonzero}
    .fil40 {fill:aqua}
    .fil39 {fill:#15D0FF}
    .fil37 {fill:#1BC3FF}
    .fil41 {fill:#4E51FD}
    .fil4 {fill:#91B3FA;fill-rule:nonzero}
    .fil2 {fill:#BDD0FB;fill-rule:nonzero}
    .fil5 {fill:#C0D6FC;fill-rule:nonzero}
    .fil3 {fill:#DCE6FD;fill-rule:nonzero}
    .fil11 {fill:#DEE8FD;fill-rule:nonzero}
    .fil8 {fill:#FCFCFC;fill-rule:nonzero}
    .fil38 {fill:white;fill-rule:nonzero}
    .fil49 {fill:url(#id0)}
    .fil32 {fill:url(#id1)}
    .fil50 {fill:url(#id2)}
    .fil33 {fill:url(#id3)}
    .fil35 {fill:url(#id4)}
    .fil45 {fill:url(#id5)}
    .fil36 {fill:url(#id6)}
    .fil6 {fill:url(#id7)}
    .fil58 {fill:url(#id8)}
    .fil1 {fill:url(#id9)}
    .fil56 {fill:url(#id10)}
    .fil57 {fill:url(#id11)}
    .fil29 {fill:url(#id12)}
    .fil54 {fill:url(#id13)}
    .fil27 {fill:url(#id14)}
    .fil21 {fill:url(#id15)}
    .fil52 {fill:url(#id16)}
    .fil55 {fill:url(#id17)}
    .fil17 {fill:url(#id18)}
    .fil15 {fill:url(#id19)}
    .fil20 {fill:url(#id20)}
    .fil16 {fill:url(#id21)}
    .fil47 {fill:url(#id22)}
    .fil42 {fill:url(#id23)}
    .fil9 {fill:url(#id24)}
    .fil24 {fill:url(#id25)}
    .fil18 {fill:url(#id26)}
    .fil30 {fill:url(#id27)}
    .fil53 {fill:url(#id28)}
    .fil25 {fill:url(#id29)}
    .fil44 {fill:url(#id30)}
    .fil28 {fill:url(#id31)}
    .fil19 {fill:url(#id32)}
    .fil7 {fill:url(#id33)}
    .fil59 {fill:url(#id34)}
    .fil12 {fill:url(#id35)}
    .fil23 {fill:url(#id36)}
    .fil22 {fill:url(#id37)}
    .fil26 {fill:url(#id38)}
    .fil10 {fill:url(#id39)}
    .fil51 {fill:url(#id40)}
    .fil13 {fill:url(#id41)}
    .fil43 {fill:url(#id42)}
    .fil34 {fill:url(#id43)}
    .fil31 {fill:url(#id44)}
    .fil48 {fill:url(#id45)}
    .fil46 {fill:url(#id46)}
    .fil14 {fill:url(#id47)}
   ]]>
  </style>
  <linearGradient id="id0" gradientUnits="userSpaceOnUse" x1="304" y1="1045" x2="381" y2="1045">
   <stop offset="0" style="stop-opacity:1; stop-color:#09005D"/>
   <stop offset="1" style="stop-opacity:1; stop-color:#1A0F91"/>
  </linearGradient>
  <linearGradient id="id1" gradientUnits="userSpaceOnUse" x1="769" y1="1027" x2="746" y2="1027">
   <stop offset="0" style="stop-opacity:1; stop-color:#FEBBBA"/>
   <stop offset="1" style="stop-opacity:1; stop-color:#FF928E"/>
  </linearGradient>
  <linearGradient id="id2" gradientUnits="userSpaceOnUse" xlink:href="#id1" x1="319" y1="993" x2="314" y2="1082">
  </linearGradient>
  <linearGradient id="id3" gradientUnits="userSpaceOnUse" x1="939" y1="1064" x2="909" y2="1064">
   <stop offset="0" style="stop-opacity:1; stop-color:#4F52FF"/>
   <stop offset="1" style="stop-opacity:1; stop-color:#4042E2"/>
  </linearGradient>
  <linearGradient id="id4" gradientUnits="userSpaceOnUse" xlink:href="#id1" x1="915" y1="1008" x2="888" y2="1008">
  </linearGradient>
  <linearGradient id="id5" gradientUnits="userSpaceOnUse" xlink:href="#id0" x1="223" y1="1044" x2="275" y2="1044">
  </linearGradient>
  <linearGradient id="id6" gradientUnits="userSpaceOnUse" xlink:href="#id0" x1="920" y1="1045" x2="499" y2="469">
  </linearGradient>
  <linearGradient id="id7" gradientUnits="userSpaceOnUse" xlink:href="#id3" x1="1293" y1="2236" x2="409" y2="-754">
  </linearGradient>
  <linearGradient id="id8" gradientUnits="userSpaceOnUse" xlink:href="#id1" x1="499" y1="450" x2="349" y2="520">
  </linearGradient>
  <linearGradient id="id9" gradientUnits="userSpaceOnUse" x1="1155" y1="1084" x2="397" y2="395">
   <stop offset="0" style="stop-opacity:1; stop-color:#DAE3FE"/>
   <stop offset="1" style="stop-opacity:1; stop-color:#E9EFFD"/>
  </linearGradient>
  <linearGradient id="id10" gradientUnits="userSpaceOnUse" xlink:href="#id1" x1="498" y1="451" x2="348" y2="511">
  </linearGradient>
  <linearGradient id="id11" gradientUnits="userSpaceOnUse" xlink:href="#id1" x1="496" y1="435" x2="445" y2="481">
  </linearGradient>
  <linearGradient id="id12" gradientUnits="userSpaceOnUse" xlink:href="#id1" x1="654" y1="374" x2="709" y2="395">
  </linearGradient>
  <linearGradient id="id13" gradientUnits="userSpaceOnUse" xlink:href="#id0" x1="259" y1="300" x2="314" y2="369">
  </linearGradient>
  <linearGradient id="id14" gradientUnits="userSpaceOnUse" xlink:href="#id1" x1="651" y1="365" x2="717" y2="391">
  </linearGradient>
  <linearGradient id="id15" gradientUnits="userSpaceOnUse" x1="1123" y1="1084" x2="401" y2="395">
   <stop offset="0" style="stop-opacity:1; stop-color:#C4D5FD"/>
   <stop offset="1" style="stop-opacity:1; stop-color:#CEDDFC"/>
  </linearGradient>
  <linearGradient id="id16" gradientUnits="userSpaceOnUse" xlink:href="#id1" x1="256" y1="435" x2="328" y2="393">
  </linearGradient>
  <linearGradient id="id17" gradientUnits="userSpaceOnUse" xlink:href="#id1" x1="309" y1="416" x2="278" y2="365">
  </linearGradient>
  <linearGradient id="id18" gradientUnits="userSpaceOnUse" xlink:href="#id15" x1="1151" y1="1084" x2="403" y2="395">
  </linearGradient>
  <linearGradient id="id19" gradientUnits="userSpaceOnUse" xlink:href="#id15" x1="1150" y1="1084" x2="434" y2="395">
  </linearGradient>
  <linearGradient id="id20" gradientUnits="userSpaceOnUse" xlink:href="#id15" x1="1159" y1="1084" x2="378" y2="395">
  </linearGradient>
  <linearGradient id="id21" gradientUnits="userSpaceOnUse" xlink:href="#id15" x1="1158" y1="1084" x2="377" y2="395">
  </linearGradient>
  <linearGradient id="id22" gradientUnits="userSpaceOnUse" xlink:href="#id1" x1="236" y1="983" x2="226" y2="1072">
  </linearGradient>
  <linearGradient id="id23" gradientUnits="userSpaceOnUse" xlink:href="#id1" x1="807" y1="591" x2="745" y2="706">
  </linearGradient>
  <linearGradient id="id24" gradientUnits="userSpaceOnUse" xlink:href="#id15" x1="1157" y1="1084" x2="375" y2="395">
  </linearGradient>
  <linearGradient id="id25" gradientUnits="userSpaceOnUse" xlink:href="#id0" x1="529" y1="591" x2="708" y2="396">
  </linearGradient>
  <linearGradient id="id26" gradientUnits="userSpaceOnUse" xlink:href="#id15" x1="1155" y1="1084" x2="392" y2="395">
  </linearGradient>
  <linearGradient id="id27" gradientUnits="userSpaceOnUse" xlink:href="#id3" x1="777" y1="1065" x2="695" y2="1065">
  </linearGradient>
  <linearGradient id="id28" gradientUnits="userSpaceOnUse" xlink:href="#id1" x1="332" y1="405" x2="293" y2="345">
  </linearGradient>
  <linearGradient id="id29" gradientUnits="userSpaceOnUse" xlink:href="#id0" x1="618" y1="666" x2="770" y2="471">
  </linearGradient>
  <linearGradient id="id30" gradientUnits="userSpaceOnUse" xlink:href="#id0" x1="768" y1="501" x2="809" y2="337">
  </linearGradient>
  <linearGradient id="id31" gradientUnits="userSpaceOnUse" xlink:href="#id0" x1="698" y1="401" x2="645" y2="346">
  </linearGradient>
  <linearGradient id="id32" gradientUnits="userSpaceOnUse" xlink:href="#id15" x1="1149" y1="1084" x2="417" y2="395">
  </linearGradient>
  <linearGradient id="id33" gradientUnits="userSpaceOnUse" xlink:href="#id3" x1="681" y1="1616" x2="-190" y2="-1298">
  </linearGradient>
  <linearGradient id="id34" gradientUnits="userSpaceOnUse" xlink:href="#id1" x1="561" y1="567" x2="126" y2="497">
  </linearGradient>
  <linearGradient id="id35" gradientUnits="userSpaceOnUse" xlink:href="#id15" x1="1160" y1="1083" x2="371" y2="394">
  </linearGradient>
  <linearGradient id="id36" gradientUnits="userSpaceOnUse" xlink:href="#id1" x1="441" y1="563" x2="453" y2="559">
  </linearGradient>
  <linearGradient id="id37" gradientUnits="userSpaceOnUse" xlink:href="#id15" x1="1160" y1="1084" x2="372" y2="395">
  </linearGradient>
  <linearGradient id="id38" gradientUnits="userSpaceOnUse" xlink:href="#id1" x1="703" y1="452" x2="685" y2="399">
  </linearGradient>
  <linearGradient id="id39" gradientUnits="userSpaceOnUse" xlink:href="#id15" x1="1147" y1="1084" x2="388" y2="395">
  </linearGradient>
  <linearGradient id="id40" gradientUnits="userSpaceOnUse" xlink:href="#id0" x1="324" y1="656" x2="154" y2="1198">
  </linearGradient>
  <linearGradient id="id41" gradientUnits="userSpaceOnUse" xlink:href="#id15" x1="1158" y1="1084" x2="375" y2="395">
  </linearGradient>
  <linearGradient id="id42" gradientUnits="userSpaceOnUse" xlink:href="#id0" x1="647" y1="691" x2="809" y2="495">
  </linearGradient>
  <linearGradient id="id43" gradientUnits="userSpaceOnUse" xlink:href="#id0" x1="814" y1="973" x2="992" y2="1091">
  </linearGradient>
  <linearGradient id="id44" gradientUnits="userSpaceOnUse" xlink:href="#id0" x1="974" y1="990" x2="678" y2="1073">
  </linearGradient>
  <linearGradient id="id45" gradientUnits="userSpaceOnUse" xlink:href="#id3" x1="390" y1="1025" x2="196" y2="1178">
  </linearGradient>
  <linearGradient id="id46" gradientUnits="userSpaceOnUse" xlink:href="#id3" x1="356" y1="997" x2="161" y2="1121">
  </linearGradient>
  <linearGradient id="id47" gradientUnits="userSpaceOnUse" xlink:href="#id15" x1="1147" y1="1084" x2="416" y2="395">
  </linearGradient>
 </defs>
 <g id="Camada_x0020_1">
  <metadata id="CorelCorpID_0Corel-Layer"/>
  <polygon class="fil0" points="0,1080 1080,1080 1080,0 0,0 "/>
  <path class="fil1" d="M495 1070c-26,0 -52,-2 -78,-6 -38,-6 -143,-23 -236,-106 -151,-135 -202,-381 -127,-589 9,54 27,108 62,158 51,72 131,92 131,92 -35,-26 -66,-62 -79,-129 121,-142 96,-292 70,-369 96,-72 214,-111 329,-111 4,0 9,0 13,0 32,1 138,5 248,67 0,0 0,0 0,0 0,0 0,0 1,0 23,13 45,28 67,46 19,16 61,53 99,112 2,3 4,6 5,9 0,0 -1,0 -1,1 -1,1 -2,3 -1,4 1,1 2,1 3,1 0,0 0,0 1,0 0,0 1,0 1,0 0,0 1,0 1,-1 8,13 15,27 21,41l-86 0c-7,0 -14,-4 -18,-10 -4,-6 -4,-14 0,-20 12,-21 15,-45 8,-71 -8,-27 -26,-45 -50,-51 -5,-1 -11,-2 -17,-2 -17,0 -35,5 -51,14 0,-3 0,-6 0,-9 0,-2 -1,-3 -3,-3 0,0 0,0 0,0 -2,0 -3,1 -3,3 0,4 0,7 0,11 0,1 0,1 1,2 -3,2 -6,4 -9,7 0,0 -1,0 -1,0 0,0 0,0 0,0 -3,0 -6,0 -9,1 0,0 -1,0 -1,0 -1,0 -2,1 -2,2 0,1 1,2 2,2 0,0 0,0 0,0 0,0 1,0 1,0 2,0 4,0 5,0 -3,3 -6,5 -8,8 -19,21 -18,51 3,87 4,7 4,14 0,21 -4,6 -10,10 -18,10l-138 0c-1,0 -3,1 -3,3l0 164c0,2 -1,3 -1,3 -1,0 -2,1 -3,1 -6,0 -17,-5 -25,-10 -14,-9 -30,-14 -47,-14 -17,0 -35,5 -53,15 -32,19 -55,50 -54,74 1,26 4,55 13,77 11,26 29,39 54,39 1,0 2,0 3,0 35,-2 69,-18 92,-32 2,-1 5,-2 7,-2 2,0 5,1 7,2 4,2 7,7 7,12l0 175c0,1 1,3 3,3l130 0c6,0 12,3 15,8 3,5 4,11 1,16 -17,35 -17,95 6,115 10,8 30,16 51,19 -101,71 -222,111 -340,111zm225 -791c0,0 -1,0 -1,0 -1,0 -1,2 -1,3 1,2 1,3 2,5 0,1 1,1 2,1 0,0 0,0 0,0 0,0 0,0 1,0 1,-1 1,-2 1,-3 -1,-1 -1,-3 -2,-4 0,-1 -1,-1 -2,-1zm204 -12c-2,0 -3,1 -3,3 0,2 1,3 3,3 3,0 6,0 9,0 1,0 1,0 2,0 0,0 0,0 1,0 2,0 3,-2 3,-3 0,-2 -1,-3 -3,-3 0,0 0,0 0,0 -1,0 -1,0 -2,0 -3,0 -6,0 -8,0 0,0 0,0 0,0zm-210 -7c0,0 0,0 0,0 -1,0 -2,1 -2,2 0,1 0,1 0,2 1,3 1,6 2,8 0,1 1,1 2,1 0,0 0,0 0,0 0,0 0,0 0,0 1,0 2,-1 1,-2 -1,-3 -1,-5 -2,-8 0,-1 0,-1 0,-2 0,-1 -1,-2 -2,-2zm247 4c0,0 -1,0 -1,0 -3,1 -7,1 -10,2 -2,0 -3,2 -3,4 0,2 2,3 3,3 0,0 0,0 0,0 1,0 3,0 4,-1 2,0 4,-1 6,-1 2,0 3,-2 2,-4 0,-1 -2,-2 -3,-2zm26 -9c0,0 -1,0 -1,0 -3,1 -6,3 -9,4 -2,1 -2,2 -2,4 0,1 2,2 3,2 0,0 0,0 1,0 0,0 0,0 1,0 3,-1 7,-3 10,-4 2,-1 2,-3 1,-4 -1,-1 -2,-2 -3,-2zm-274 -15c-1,0 -2,1 -2,2 0,3 0,7 0,10 0,1 1,2 2,2 0,0 0,0 0,0 0,0 0,0 0,0 1,0 2,-1 2,-2 0,-3 0,-7 0,-10 0,-1 -1,-2 -2,-2 0,0 0,0 0,0zm4 -20c-1,0 -2,1 -2,1 -1,3 -2,7 -3,10 0,1 0,2 2,2 0,0 0,0 0,0 0,0 0,0 0,0 1,0 1,-1 2,-2 1,-3 2,-7 3,-10 0,-1 0,-2 -1,-3 0,0 0,0 -1,0zm9 -18c-1,0 -1,0 -2,1 -2,3 -4,6 -5,9 0,1 0,2 1,3 0,0 1,0 1,0 0,0 0,0 0,0 1,0 1,0 1,-1 1,-3 3,-6 5,-9 1,-1 0,-2 -1,-3 0,0 -1,0 -1,0zm13 -16c0,0 -1,0 -1,1 -3,2 -5,5 -7,8 -1,1 -1,2 0,3 0,0 1,0 1,0 0,0 0,0 0,0 0,0 1,0 1,-1 2,-3 4,-5 7,-7 1,-1 1,-2 0,-3 0,0 -1,-1 -1,-1zm17 -12c0,0 -1,0 -1,0 -3,2 -6,4 -9,6 -1,1 -1,2 0,3 0,1 1,1 2,1 0,0 0,0 0,0 0,0 1,0 1,0 3,-2 6,-4 8,-5 1,-1 1,-2 1,-3 0,-1 -1,-1 -2,-1zm19 -8c0,0 0,0 0,0 -3,1 -7,2 -10,3 -1,0 -2,2 -1,3 0,1 1,1 2,1 0,0 0,0 0,0 0,0 0,0 0,0 3,-1 6,-2 10,-3 1,0 2,-1 1,-2 0,-1 -1,-1 -2,-1zm37 -52c-1,0 -3,1 -3,2 -1,4 -2,7 -2,11 0,2 1,3 3,4 0,0 0,0 1,0 0,0 0,0 1,0 1,0 2,-1 3,-3 1,-3 1,-7 2,-10 0,-2 -1,-3 -2,-4 0,0 -1,0 -1,0zm10 -26c-1,0 -2,1 -3,2 -2,3 -3,7 -4,10 -1,2 0,3 2,4 0,0 1,0 1,0 0,0 0,0 1,0 1,0 2,-1 2,-2 1,-3 3,-6 4,-9 1,-2 0,-4 -1,-4 0,0 -1,0 -1,0zm115 781c-3,-15 -8,-28 -16,-40 -4,-5 -4,-12 -1,-18 3,-6 9,-9 15,-9l51 0c-15,24 -32,46 -50,67zm39 -230c-12,0 -23,-5 -33,-13 -25,-24 -33,-73 -33,-100 0,-15 12,-43 37,-56 7,-4 17,-7 29,-7 16,0 37,6 61,23 4,3 8,4 13,4 3,0 7,-1 10,-2 4,-2 8,-6 10,-10 3,48 -1,96 -10,143 -3,-1 -6,-2 -9,-2 -4,0 -8,1 -11,3 -19,11 -40,17 -61,18 -1,0 -2,0 -2,0zm-806 -425c-1,-9 -3,-17 -5,-25 9,-9 18,-19 27,-27 -6,15 -13,33 -22,52z"/>
  <path class="fil2" d="M59 41c-1,-4 5,-7 8,-4 37,30 124,118 103,274 -27,195 19,266 78,309 0,0 -80,-20 -131,-92 -124,-177 -41,-412 -58,-486z"/>
  <path class="fil3" d="M217 605c-1,0 -2,0 -3,-1 -21,-14 -39,-30 -55,-48 -8,-9 -15,-19 -21,-29 -3,-5 -6,-10 -9,-15 -3,-5 -5,-10 -8,-16 -9,-21 -14,-44 -16,-66 -2,-22 -1,-45 0,-67 1,-22 2,-44 2,-66 0,-22 -1,-44 -3,-66 -2,-22 -4,-44 -8,-66 -3,-22 -7,-44 -12,-65 0,-1 0,-1 1,-1 0,0 0,0 0,0 1,0 1,0 1,1 6,22 10,43 15,65 4,22 7,44 9,66 1,6 1,11 2,17 0,6 1,11 1,17 1,11 1,22 1,33 0,19 0,37 0,56 -4,27 -3,51 0,73 0,1 0,2 0,4 1,11 2,22 5,32 3,11 6,21 10,31 9,20 21,40 35,57 7,9 15,17 24,25 2,2 4,4 7,6 2,2 5,4 7,6 5,4 9,7 14,11l0 0c2,1 2,4 1,6 -1,1 -2,2 -4,2z"/>
  <path class="fil4" d="M153 507c-4,5 -12,3 -15,-3 -15,-33 -49,-130 7,-241 47,-94 63,-150 69,-175 1,-5 9,-6 11,-1 25,56 90,247 -72,420z"/>
  <path class="fil5" d="M145 503c0,0 0,0 0,0 -1,0 -3,-1 -3,-3 0,-2 3,-161 63,-295 0,-1 1,-2 2,-2 0,0 1,0 1,0 1,1 2,2 1,3 -59,133 -62,291 -62,293 0,1 -1,2 -2,2 0,0 0,0 0,0z"/>
  <path class="fil6" d="M860 956c-29,0 -59,-9 -72,-19 -20,-16 -22,-72 -5,-108 3,-7 3,-15 -1,-21 -4,-7 -12,-11 -19,-11l-127 0 0 -172c0,-7 -4,-13 -10,-16 -3,-2 -6,-3 -9,-3 -3,0 -7,1 -10,3 -22,13 -56,30 -90,31 -1,0 -2,0 -3,0 -23,0 -39,-12 -49,-35 -9,-22 -12,-51 -13,-76 -1,-22 21,-52 51,-69 17,-10 34,-14 50,-14 16,0 31,4 44,13 1,1 17,11 28,11 2,0 4,0 5,-1 2,-1 4,-3 4,-8l0 -162 135 0c9,0 18,-5 22,-13 5,-8 5,-18 0,-26 -24,-42 -15,-67 -3,-81 19,-22 48,-35 75,-35 5,0 11,1 16,2 16,4 37,15 47,48 7,24 5,47 -7,66 -5,8 -5,18 0,26 5,8 13,13 22,13l126 0 0 169c0,6 -3,12 -9,15 -2,1 -5,2 -8,2 -3,0 -7,-1 -10,-3 -26,-18 -47,-24 -64,-24 -13,0 -23,3 -31,8 -27,14 -40,44 -40,61 0,28 9,79 35,104 10,10 22,15 36,15 1,0 2,0 3,0 22,-1 43,-7 63,-19 3,-2 6,-2 8,-2 3,0 6,1 8,2 5,3 8,8 8,14l0 157 -131 0c-8,0 -16,4 -20,12 -4,7 -4,16 1,23 12,18 18,41 18,67 0,23 -10,39 -30,49 -13,6 -29,9 -45,9zm-150 -531c-37,0 -64,9 -64,9l-5 30c-4,27 4,52 14,78 30,80 39,105 48,147 9,3 18,4 27,4 25,0 47,-10 67,-33 1,-2 1,-4 2,-6l18 -3c2,0 3,-2 3,-4 0,-3 0,-7 -1,-11 -1,-4 -5,-7 -10,-7 0,0 -1,0 -1,0 -1,0 -2,0 -3,0 42,-163 -37,-197 -37,-197 -21,-6 -41,-8 -59,-8zm83 -96c-1,0 -2,1 -2,2 0,1 1,2 2,2 1,0 2,0 4,0 2,0 4,0 7,0 0,0 0,0 0,0 1,0 2,-1 2,-2 0,-1 -1,-2 -2,-2 0,0 0,0 0,0 -2,0 -4,0 -6,0 -1,0 -2,0 -3,0 0,0 0,0 0,0zm-20 -3c-1,0 -2,1 -2,1 0,1 0,2 1,2 3,1 7,2 10,2 0,0 0,0 0,0 0,0 0,0 0,0 1,0 1,-1 2,-2 0,-1 -1,-2 -2,-2 -3,-1 -6,-1 -10,-2 0,0 0,0 -1,0zm50 -1c0,0 0,0 -1,0 -3,1 -6,2 -10,3 -1,0 -2,1 -2,2 0,1 1,2 2,2 0,0 0,0 0,0l0 0c3,-1 7,-2 10,-3 1,0 2,-1 1,-2 0,-1 -1,-1 -2,-1zm-64 -5c-1,0 -1,0 -2,1 0,1 0,2 1,3 1,1 3,1 5,2 0,0 1,0 1,0 0,0 0,0 0,0 1,0 1,-1 1,-1 0,-1 0,-2 -1,-3 -1,-1 -3,-1 -4,-2 0,0 -1,0 -1,0zm82 -4c0,0 -1,0 -1,0 -3,2 -6,3 -9,5 -1,0 -1,2 -1,3 0,1 1,1 2,1 0,0 0,0 0,0 0,0 0,0 0,0 3,-1 6,-3 9,-5 1,-1 1,-2 1,-3 0,-1 -1,-1 -2,-1zm16 -13c-1,0 -1,0 -1,1 -2,2 -5,5 -7,7 -1,1 -1,2 0,3 0,0 1,1 2,1 0,0 0,0 0,0 0,0 1,0 1,0 3,-2 5,-5 8,-7 1,-1 1,-2 0,-3 0,0 -1,-1 -1,-1zm12 -16c-1,0 -1,0 -2,1 -2,3 -3,6 -5,8 -1,1 0,2 0,3 0,0 1,0 1,0 0,0 0,0 0,0 0,0 1,0 1,-1 2,-3 4,-6 6,-9 1,-1 0,-2 -1,-3 0,0 -1,0 -1,0zm8 -19c-1,0 -2,1 -2,1 -1,3 -2,6 -3,9 0,1 0,2 1,3 0,0 1,0 1,0 0,0 0,0 0,0 1,0 1,-1 1,-1 1,-3 3,-6 3,-10 0,-1 0,-2 -1,-2 0,0 0,0 -1,0zm21 -7c-1,0 -3,1 -3,2 -1,2 0,3 2,4 3,1 7,2 10,3 0,0 0,0 1,0 0,0 0,0 1,0 1,0 2,-1 3,-2 0,-2 -1,-3 -2,-4 -3,-1 -7,-2 -10,-3 0,0 -1,0 -1,0zm-21 -8c-1,0 -2,1 -3,2 -1,2 0,3 1,4 2,1 3,2 5,2 0,0 1,0 1,0 0,0 0,0 1,0 1,0 2,-1 2,-2 1,-2 0,-3 -2,-4 -1,-1 -3,-1 -4,-2 0,0 -1,0 -1,0zm-66 -86c0,0 0,0 -1,0l0 0c-2,0 -3,2 -2,4 1,4 2,7 3,11 0,1 2,2 3,2 0,0 0,0 1,0 0,0 0,0 0,0 2,0 3,-2 2,-4 -1,-3 -2,-7 -3,-10 0,-2 -2,-3 -3,-3z"/>
  <path class="fil7" d="M142 615c-15,10 -35,20 -58,22 -50,5 -70,-50 -72,-97 -2,-47 40,-92 77,-87 18,2 37,14 52,25 12,9 30,0 30,-15l0 -170 172 0c14,0 24,-15 18,-28 -14,-29 -29,-74 -8,-93 33,-30 122,-30 137,15 8,25 -3,55 -15,77 -7,13 2,29 17,29l147 0 0 158c0,17 -19,27 -33,18 -64,-45 -133,2 -139,55 -7,62 32,115 75,110 22,-3 46,-15 65,-26 14,-8 32,2 32,18l0 174 -169 0c-19,0 -32,-20 -24,-38 10,-21 51,-46 49,-66 -5,-40 -94,-50 -142,-42 -37,6 -18,63 2,109 8,18 -5,37 -24,37l-161 0 0 -168c0,-15 -17,-24 -30,-15z"/>
  <path class="fil8" d="M635 796l127 0c8,0 15,4 19,11 4,6 5,14 1,21 -17,36 -15,92 5,108 20,17 81,28 117,11 20,-10 30,-26 30,-49 0,-27 -6,-49 -18,-67 -5,-7 -5,-16 -1,-23 4,-7 11,-12 20,-12l131 0 0 -157c0,-6 -3,-11 -8,-14 -5,-3 -12,-3 -17,0 -20,12 -41,18 -63,19 -15,1 -28,-4 -39,-15 -26,-25 -35,-76 -35,-104 0,-17 12,-47 40,-61 19,-10 51,-15 96,16 5,4 12,4 17,1 6,-3 9,-8 9,-15l0 -169 -126 0c-9,0 -18,-5 -22,-13 -5,-8 -5,-18 0,-26 12,-20 14,-42 7,-66 -9,-33 -30,-44 -47,-48 -30,-7 -67,7 -90,33 -12,13 -21,38 3,81 5,8 5,18 0,26 -5,8 -13,13 -22,13l-135 0 0 162c0,5 -2,7 -4,8 -10,5 -32,-10 -33,-10 -27,-18 -62,-18 -95,1 -30,17 -52,47 -51,69 1,25 4,54 13,76 11,25 28,36 52,35 34,-1 68,-18 90,-31 6,-4 13,-4 19,0 6,3 10,10 10,16l0 172zm225 165c-7,0 -14,0 -21,-1 -23,-3 -44,-10 -55,-19 -23,-19 -23,-79 -6,-115 3,-5 2,-11 -1,-16 -3,-5 -9,-8 -15,-8l-130 0c-1,0 -3,-1 -3,-3l0 -175c0,-5 -3,-10 -7,-12 -4,-3 -10,-2 -14,0 -23,14 -58,30 -92,32 -27,1 -46,-12 -57,-38 -10,-23 -12,-52 -13,-77 -1,-24 21,-55 54,-74 34,-20 71,-20 100,-1 10,7 24,12 28,10 0,0 1,-1 1,-3l0 -164c0,-1 1,-3 3,-3l138 0c7,0 14,-4 18,-10 4,-6 4,-14 0,-21 -20,-36 -21,-66 -3,-87 25,-28 64,-42 95,-35 25,6 42,24 50,51 7,26 5,49 -8,71 -4,6 -4,14 0,20 4,7 10,10 18,10l129 0c1,0 3,1 3,3l0 172c0,8 -4,15 -12,19 -7,4 -16,3 -23,-1 -43,-30 -73,-25 -90,-16 -25,13 -37,41 -37,56 0,27 9,77 33,100 10,10 22,14 35,13 21,-1 41,-7 61,-18 7,-4 15,-4 22,0 7,4 11,11 11,19l0 160c0,1 -1,3 -3,3l-133 0c-6,0 -12,3 -15,9 -3,6 -3,12 1,18 12,19 19,42 19,70 0,25 -11,43 -33,54 -13,6 -29,9 -47,9z"/>
  <path class="fil9" d="M806 156c0,0 -1,-1 -1,-2 0,-4 0,-7 0,-11 0,-2 1,-3 3,-3 0,0 0,0 0,0 2,0 3,1 3,3 0,3 0,6 0,9 -2,1 -4,2 -6,3z"/>
  <path class="fil10" d="M810 129c0,0 0,0 -1,0 -2,0 -3,-2 -3,-4 1,-4 1,-7 2,-11 0,-1 2,-2 3,-2 0,0 1,0 1,0 2,0 3,2 2,4 -1,3 -2,7 -2,10 0,1 -1,2 -3,3 0,0 0,0 -1,0zm7 -27c0,0 -1,0 -1,0 -2,-1 -2,-3 -2,-4 1,-3 3,-7 4,-10 1,-1 2,-2 3,-2 0,0 1,0 1,0 2,1 2,3 1,4 -2,3 -3,6 -4,9 0,1 -1,2 -2,2 0,0 0,0 -1,0z"/>
  <path class="fil11" d="M830 78c0,0 -1,0 -1,0 0,0 -1,0 -1,-1 -1,-1 -2,-3 -1,-4 2,-3 4,-6 7,-9 1,-1 2,-1 2,-1 1,0 1,0 2,1 1,1 2,3 0,4 -2,3 -4,5 -6,8 -1,1 -1,1 -2,1 0,0 0,0 -1,0z"/>
  <path class="fil12" d="M829 78c0,0 0,0 -1,0 0,0 0,0 0,0 0,0 1,0 1,1z"/>
  <path class="fil13" d="M849 57c-1,0 -2,0 -2,-1 -1,-1 -1,-3 0,-5 3,-2 5,-5 8,-7 1,0 1,-1 2,-1 1,0 2,0 3,1 1,1 1,3 -1,4 -3,2 -5,4 -8,7 0,0 -1,1 -2,1 0,0 0,0 -1,0zm22 -16c-1,0 -2,-1 -3,-2 -1,-2 0,-3 1,-4 3,-2 6,-3 10,-5 0,0 1,0 1,0 1,0 2,1 3,2 1,2 0,3 -2,4 -3,1 -6,3 -9,5 0,0 -1,0 -1,0 0,0 0,0 -1,0zm26 -11c-1,0 -3,-1 -3,-2 -1,-2 0,-3 2,-4 3,-1 7,-2 11,-3l0 0c0,0 0,0 1,0 1,0 3,1 3,3 0,2 -1,3 -2,4 -3,1 -7,2 -10,3 0,0 0,0 0,0 0,0 0,0 -1,0zm65 -2c0,0 -1,0 -1,0 -3,-1 -7,-2 -10,-2 -2,0 -3,-2 -3,-4 0,-2 2,-3 3,-3 0,0 0,0 1,0 4,1 7,1 11,2 2,0 3,2 2,4 0,1 -1,2 -3,2 0,0 0,0 -1,0zm-38 -3c-2,0 -3,-1 -3,-3 0,-2 1,-3 3,-3 3,0 6,0 9,0 1,0 1,0 2,0 2,0 3,1 3,3 0,2 -1,3 -3,3 0,0 0,0 -1,0 0,0 0,0 0,0 -1,0 -1,0 -2,0 -3,0 -6,0 -8,0 0,0 0,0 0,0z"/>
  <path class="fil14" d="M983 36c0,0 -1,0 -1,0 -2,-1 -3,-1 -5,-2 -2,-1 -2,-3 -2,-4 1,-1 2,-2 3,-2 0,0 1,0 1,0 2,1 3,1 5,2 2,1 2,3 2,4 0,1 -1,2 -2,2 0,0 0,0 -1,0z"/>
  <path class="fil15" d="M1049 107c-1,0 -3,-1 -3,-2 -1,-2 -1,-3 -2,-5 -1,-2 0,-3 2,-4 0,0 1,0 1,0 1,0 2,1 3,2 1,2 1,3 2,5 1,2 0,3 -2,4 0,0 0,0 0,0 0,0 0,0 -1,0z"/>
  <path class="fil16" d="M932 273c-3,0 -6,0 -9,0 -2,0 -3,-2 -3,-3 0,-2 2,-3 3,-3 0,0 0,0 0,0 3,0 6,0 8,0 1,0 1,0 2,0 0,0 0,0 0,0 2,0 3,1 3,3 0,2 -1,3 -3,3 0,0 0,0 -1,0 -1,0 -1,0 -2,0zm19 -1c-2,0 -3,-1 -3,-3 0,-2 1,-3 3,-4 3,-1 7,-1 10,-2 0,0 1,0 1,0 1,0 3,1 3,2 0,2 -1,3 -2,4 -2,0 -4,1 -6,1 -1,0 -3,1 -4,1 0,0 0,0 0,0z"/>
  <path class="fil17" d="M978 265c-1,0 -2,-1 -3,-2 -1,-2 0,-3 2,-4 3,-1 6,-3 9,-4 0,0 1,0 1,0 1,0 2,1 3,2 1,2 0,3 -1,4 -3,2 -6,3 -10,4 0,0 0,0 -1,0 0,0 0,0 -1,0z"/>
  <path class="fil18" d="M1004 251c-1,-2 -2,-4 -3,-5 2,-2 5,-3 7,-5 1,0 1,-1 2,-1 1,0 2,0 2,1 1,1 1,3 0,4 -3,2 -5,4 -8,6z"/>
  <path class="fil19" d="M1002 252c-1,0 -2,0 -3,-1 -1,-1 -1,-3 1,-4 0,0 1,0 1,-1 1,2 2,4 3,5 0,0 -1,0 -1,1 0,0 -1,0 -1,0 0,0 0,0 -1,0z"/>
  <path class="fil20" d="M1023 234c-1,0 -2,0 -2,-1 -1,-1 -1,-3 0,-5 2,-2 5,-5 7,-8 1,-1 2,-1 2,-1 1,0 1,0 2,1 1,1 2,3 1,4 -2,3 -5,5 -7,8 0,1 -1,1 -2,1 0,0 0,0 -1,0zm16 -22c-1,0 -1,0 -2,0 -2,-1 -2,-3 -1,-4 2,-3 3,-6 5,-9 1,-1 2,-2 3,-2 0,0 1,0 1,0 2,1 2,3 1,4 -2,3 -3,6 -5,9 0,1 -1,1 -2,2 0,0 0,0 -1,0zm11 -25c0,0 -1,0 -1,0 -2,-1 -3,-2 -2,-4 1,-3 2,-7 3,-10 0,-1 2,-2 3,-2 0,0 0,0 1,0 2,0 3,2 2,4 -1,3 -2,7 -3,10 0,1 -1,2 -2,2 0,0 0,0 -1,0zm6 -27c0,0 0,0 0,0 -2,0 -3,-2 -3,-3 0,-3 1,-7 1,-10 0,-2 1,-3 3,-3 0,0 0,0 0,0 2,0 3,1 3,3 0,4 0,7 -1,11 0,1 -1,3 -3,3 0,0 0,0 -1,0zm0 -27c-2,0 -3,-1 -3,-3 0,-2 -1,-5 -1,-7 0,-1 0,-2 -1,-3 0,-2 1,-3 2,-4 0,0 0,0 1,0 1,0 3,1 3,3 0,1 0,2 1,3 0,3 1,5 1,8 0,2 -1,3 -3,4 0,0 0,0 0,0 0,0 0,0 0,0z"/>
  <path class="fil4" d="M879 225c0,0 1,0 2,0l16 -9c8,4 16,7 24,8l7 17c0,1 1,1 1,1l22 -2c1,0 1,0 1,-1l4 -18c8,-3 16,-7 23,-12l17 7c1,0 1,0 2,0l14 -17c0,0 0,-1 0,-2l-9 -16c4,-8 7,-16 8,-24l17 -7c1,0 1,-1 1,-1l-2 -22c0,-1 -1,-1 -1,-1l-18 -4c-3,-8 -7,-16 -12,-23l7 -17c0,-1 0,-1 0,-2l-17 -14c0,0 -1,0 -2,0l-16 9c-8,-4 -16,-7 -24,-8l-7 -17c0,-1 -1,-1 -2,-1l-22 2c-1,0 -1,1 -1,1l-4 18c-8,3 -16,7 -23,12l-17 -7c-1,0 -1,0 -2,0l-14 17c0,0 0,1 0,2l9 16c-4,8 -7,16 -8,24l-17 7c-1,0 -1,1 -1,1l2 22c0,1 1,1 1,1l18 4c3,8 7,16 12,23l-7 17c0,1 0,1 0,2l17 14z"/>
  <path class="fil2" d="M929 128c-1,0 -2,0 -2,1 -9,3 -13,13 -10,21 3,9 13,13 21,10 9,-3 13,-13 10,-21 -1,-4 -4,-8 -9,-10 -3,-2 -7,-2 -10,-1zm7 38c-10,2 -21,-4 -25,-14 -4,-11 2,-24 14,-28 6,-2 11,-2 17,1 5,3 9,7 11,13 4,11 -2,24 -14,28 -1,0 -2,1 -3,1z"/>
  <path class="fil2" d="M943 197c-2,0 -4,1 -5,1 -1,0 -1,0 -2,0 -3,0 -6,0 -9,0 0,0 0,0 0,0 0,0 0,0 0,0 0,0 0,0 -1,0 -1,0 -1,-1 -1,-1 0,0 0,0 0,0 0,-1 1,-1 1,-1 4,0 7,1 11,0 18,-2 33,-12 41,-27 4,-8 7,-18 6,-28 0,-2 0,-4 -1,-5 -2,-12 -8,-22 -17,-30 -10,-9 -24,-13 -37,-12 -28,2 -49,27 -47,55 0,2 0,3 1,5 1,7 4,14 9,20 0,0 0,0 0,1 0,0 0,1 -1,1 -1,0 -1,0 -2,0 -5,-6 -8,-14 -9,-21 0,-2 -1,-4 -1,-5 -2,-30 20,-56 49,-58 14,-1 28,3 39,13 10,8 16,19 18,31 0,2 1,4 1,5 1,14 -3,28 -13,39 -8,10 -19,16 -31,18z"/>
  <path class="fil21" d="M722 287c-1,0 -1,0 -2,-1 -1,-1 -1,-3 -2,-5 0,-1 0,-2 1,-3 0,0 1,0 1,0 1,0 1,0 2,1 1,1 1,3 2,4 0,1 0,2 -1,3 0,0 0,0 -1,0 0,0 0,0 0,0z"/>
  <path class="fil22" d="M717 273c-1,0 -2,-1 -2,-1 -1,-3 -1,-6 -2,-8 0,-1 0,-1 0,-2 0,-1 1,-2 2,-2 0,0 0,0 0,0 1,0 2,1 2,2 0,1 0,1 0,2 1,3 1,5 2,8 0,1 0,2 -1,2 0,0 0,0 0,0 0,0 0,0 0,0zm-3 -20c-1,0 -2,-1 -2,-2 0,-3 0,-7 0,-10 0,-1 1,-2 2,-2 0,0 0,0 0,0 1,0 2,1 2,2 0,3 0,7 0,10 0,1 -1,2 -2,2 0,0 0,0 0,0 0,0 0,0 0,0zm2 -20c0,0 0,0 0,0 -1,0 -2,-1 -2,-2 1,-3 2,-7 3,-10 0,-1 1,-1 2,-1 0,0 0,0 1,0 1,0 2,1 1,3 -1,3 -2,6 -3,10 0,1 -1,1 -2,2 0,0 0,0 0,0zm7 -19c0,0 -1,0 -1,0 -1,0 -1,-2 -1,-3 2,-3 3,-6 5,-9 0,-1 1,-1 2,-1 0,0 1,0 1,0 1,1 1,2 1,3 -2,3 -3,6 -5,9 0,1 -1,1 -1,1 0,0 0,0 0,0zm11 -17c0,0 -1,0 -1,0 -1,-1 -1,-2 0,-3 2,-3 5,-5 7,-8 0,0 1,-1 1,-1 1,0 1,0 1,1 1,1 1,2 0,3 -2,2 -5,5 -7,7 0,0 -1,1 -1,1 0,0 0,0 0,0zm15 -14c-1,0 -1,0 -2,-1 -1,-1 0,-2 0,-3 3,-2 6,-4 9,-6 0,0 1,0 1,0 1,0 1,0 2,1 1,1 0,2 -1,3 -3,2 -6,3 -8,5 0,0 -1,0 -1,0 0,0 0,0 0,0zm18 -10c-1,0 -2,0 -2,-1 0,-1 0,-2 1,-3 3,-1 7,-2 10,-3 0,0 0,0 0,0 1,0 2,1 2,1 0,1 0,2 -1,2 -3,1 -6,2 -10,3 0,0 0,0 0,0 0,0 0,0 0,0zm20 -5c-1,0 -2,-1 -2,-2 0,-1 1,-2 2,-2 0,0 1,0 1,0 3,0 6,-1 9,-1 0,0 0,0 0,0 0,0 1,0 1,0 -1,1 -3,2 -4,4 -2,0 -4,0 -5,0 0,0 -1,0 -1,0 0,0 0,0 0,0z"/>
  <path class="fil4" d="M761 300c0,0 1,0 1,0l10 -6c5,3 11,4 16,5l5 11c0,0 1,1 1,1l15 -1c0,0 1,0 1,-1l3 -12c6,-2 11,-4 15,-8l11 4c0,0 1,0 1,0l9 -11c0,0 0,-1 0,-1l-6 -10c3,-5 4,-11 5,-16l11 -5c0,0 1,-1 1,-1l-1 -15c0,0 0,-1 -1,-1l-12 -3c-2,-6 -4,-11 -8,-15l4 -11c0,0 0,-1 0,-1l-11 -9c0,0 -1,0 -1,0l-10 6c-5,-3 -11,-4 -16,-5l-5 -11c0,0 -1,-1 -1,-1l-15 1c0,0 -1,0 -1,1l-3 12c-6,2 -11,4 -15,8l-11 -4c0,0 -1,0 -1,0l-9 11c0,0 0,1 0,1l6 10c-3,5 -4,11 -5,16l-11 5c0,0 -1,1 -1,1l1 15c0,0 0,1 1,1l12 3c2,6 4,11 8,15l-4 11c0,0 0,1 0,1l11 9z"/>
  <path class="fil2" d="M794 236c-1,0 -1,0 -2,0 -6,2 -9,8 -7,14 1,3 3,5 6,6 3,1 6,1 8,1 3,-1 5,-3 6,-6 1,-3 1,-6 1,-8 -2,-5 -7,-8 -12,-7zm5 25c-3,1 -6,0 -9,-1 -4,-2 -6,-5 -8,-9 -3,-8 1,-16 9,-19 8,-3 16,1 19,9 1,4 1,8 -1,11 -2,4 -5,6 -9,8 -1,0 -1,0 -2,1z"/>
  <path class="fil2" d="M803 283c-1,0 -2,0 -4,0 -3,0 -5,0 -8,0 0,0 0,0 0,0 -1,0 -2,-1 -2,-2 0,0 0,0 0,-1 0,-1 1,-2 2,-2 2,0 5,0 7,0l0 0c0,0 0,0 0,0 6,-1 11,-2 15,-5 2,-2 5,-4 7,-6l0 0c0,0 0,0 0,0 6,-7 8,-15 8,-24 0,-1 0,-2 0,-3 -1,-7 -5,-14 -11,-19 -7,-6 -15,-8 -24,-8 -9,1 -17,5 -23,12 -6,7 -8,15 -8,24 0,1 0,2 0,3 1,5 3,9 6,13 0,0 0,1 0,1 0,1 0,2 -1,2 -1,1 -2,0 -3,0 -3,-4 -5,-9 -6,-15 0,-1 0,-2 -1,-4 -1,-10 2,-19 9,-27 6,-8 15,-12 25,-13 10,-1 19,2 27,9 7,6 11,13 13,21 0,1 0,3 1,4 2,19 -12,36 -30,40z"/>
  <path class="fil23" d="M477 546c0,0 -6,-16 -13,-14 -7,1 -15,7 -15,7l-11 15c0,0 31,12 42,5 0,0 32,6 72,-1 -6,-12 -9,-25 -11,-34 -20,12 -42,20 -65,22z"/>
  <path class="fil24" d="M646 433c0,0 -46,58 -104,91 2,10 6,22 11,34 30,-5 66,-17 96,-43l-3 -82z"/>
  <path class="fil25" d="M729 692c-9,0 -18,-1 -27,-4 -9,-42 -18,-67 -48,-147 -9,-25 -18,-51 -14,-78l5 -30c0,0 27,-9 64,-9 18,0 38,2 59,8 0,0 78,34 37,197 -17,2 -55,7 -75,18 -2,1 -4,3 -4,6 0,2 0,6 1,9 1,1 2,2 3,2 0,0 0,0 1,0l67 -11c-1,2 -1,4 -2,6 -20,22 -42,33 -67,33z"/>
  <path class="fil26" d="M656 395l15 36c1,2 3,4 5,4 9,1 30,4 44,-5 2,-1 2,-3 1,-5l-28 -40 -37 10z"/>
  <path class="fil27" d="M671 340c-1,1 -27,52 -27,52l30 14 32 -45c0,0 -24,-31 -35,-21z"/>
  <path class="fil28" d="M693 366l-15 25c0,0 0,1 -1,1 -2,2 -8,6 -12,0 -4,-6 -8,-11 -12,-13 -2,-1 -5,0 -6,2 -2,5 -7,15 -10,24 -1,2 0,5 3,6 6,2 18,7 28,8 2,0 3,0 4,-2 5,-6 17,-23 22,-28 4,-4 11,-3 15,-2 1,0 3,0 4,-1 3,-2 9,-7 4,-16 -1,-2 -1,-5 1,-6 4,-3 8,-7 4,-15 -4,-8 -11,-8 -16,-8 -2,0 -4,-1 -5,-3 0,-1 -1,-2 -2,-2 -3,-1 -4,-3 -4,-5 1,-4 0,-10 -7,-14 -13,-7 -24,4 -27,14 -3,10 11,16 20,18 7,1 10,8 12,12 1,1 0,3 0,4z"/>
  <path class="fil29" d="M687 397c0,0 6,-15 14,-14 7,1 13,8 4,16 -11,10 -18,-2 -18,-2z"/>
  <path class="fil30" d="M697 1062c14,1 38,3 58,4 12,1 18,-1 22,-2 0,0 0,1 0,1 0,2 -2,4 -4,4 -36,2 -65,1 -75,0 -2,0 -3,-2 -2,-4 1,-1 1,-2 2,-3z"/>
  <path class="fil31" d="M755 1066c-19,-1 -44,-3 -58,-4 14,-17 58,-28 58,-28l12 0c9,12 10,24 10,30 -4,2 -10,3 -22,2z"/>
  <path class="fil32" d="M769 1013l-1 23c0,2 -2,5 -4,5 -2,0 -6,0 -9,-1 -2,-1 -4,-3 -4,-5l-4 -22 23 0z"/>
  <path class="fil33" d="M930 1066c6,-1 9,-4 10,-7l0 0c1,4 -1,7 -5,9 -5,2 -11,2 -15,2 -5,0 -9,-2 -11,-5l0 0c5,2 11,3 21,1z"/>
  <path class="fil34" d="M901 1013l10 0c16,0 25,32 28,45 -1,3 -4,7 -10,7 -10,1 -17,1 -21,-1 -8,-11 -13,-27 -15,-37 -2,-11 7,-15 7,-15z"/>
  <path class="fil35" d="M910 992l6 23c1,3 -1,6 -3,7 -3,2 -8,3 -12,3 -2,0 -4,-2 -4,-3l-8 -24 22 -5z"/>
  <path class="fil36" d="M917 998c-7,6 -30,7 -30,7 -83,-198 -117,-253 -117,-253 12,75 3,267 3,267 -14,6 -31,0 -31,0 -1,-122 -18,-254 -41,-338 56,-1 86,-13 96,-21 47,75 120,338 120,338z"/>
  <path class="fil37" d="M686 737l10 64c2,11 12,19 23,17l154 -19c8,-1 13,-7 13,-15 0,-17 0,-46 -7,-73l-193 25z"/>
  <path class="fil38" d="M880 739c0,0 0,0 0,0 0,-1 0,-2 0,-3 0,0 0,0 0,0 0,0 0,0 0,0 0,1 0,2 0,3 0,0 0,0 0,0l0 0zm1 12c0,0 0,0 0,0 0,-1 0,-2 0,-3 0,0 0,0 0,0 0,0 0,0 0,0 0,1 0,2 0,3 0,0 0,0 0,0l0 0zm1 12c0,0 0,0 0,0 0,-1 0,-2 0,-3 0,0 0,0 0,0 0,0 0,0 0,0 0,1 0,2 0,4 0,0 0,0 0,0l0 0zm-187 1c0,0 0,0 0,0l-1 -3c0,0 0,0 0,0 0,0 0,0 1,0l1 3c0,0 0,0 0,1l0 0zm187 11c0,0 0,0 0,0 0,-1 0,-2 0,-4 0,0 0,0 0,0 0,0 0,0 0,0 0,1 0,2 0,4 0,0 0,0 0,0l0 0zm-185 1c0,0 0,0 0,0l-1 -3c0,0 0,0 0,-1 0,0 0,0 1,0l1 3c0,0 0,0 0,1l0 0zm184 11c0,0 0,0 0,0 0,0 0,0 0,-1 0,-1 0,-2 0,-3l0 0c0,0 0,0 0,0l0 0c0,0 0,0 0,0l0 0c0,1 0,2 0,3 0,0 0,0 0,0zm-183 1c0,0 0,0 0,0l-1 -3c0,0 0,0 0,-1 0,0 0,0 1,0l1 3c0,0 0,0 0,1l0 0zm176 8c0,0 0,0 0,0 0,0 0,0 0,-1 1,-1 2,-1 3,-2 0,0 0,0 1,0 0,0 0,0 0,1 -1,1 -2,2 -3,2 0,0 0,0 0,0zm-11 3c0,0 0,0 0,0 0,0 0,0 0,0l3 0c0,0 0,0 0,0 0,0 0,0 0,0l-3 0 0 0zm-163 1c0,0 0,0 0,0l-1 -3c0,0 0,0 0,-1 0,0 0,0 1,0l1 3c0,0 0,0 0,1l0 0zm151 1c0,0 0,0 0,0 0,0 0,0 0,0l3 0c0,0 0,0 0,0 0,0 0,0 0,0l-3 0 0 0zm-12 1c0,0 0,0 0,0 0,0 0,0 0,0l3 0c0,0 0,0 0,0 0,0 0,0 0,0l-3 0 0 0zm-12 1c0,0 0,0 0,0 0,0 0,0 0,0l3 0c0,0 0,0 0,0 0,0 0,0 0,0l-3 0 0 0zm-12 1c0,0 0,0 0,0 0,0 0,0 0,0l3 0c0,0 0,0 0,0 0,0 0,0 0,0l-3 0 0 0zm-12 1c0,0 0,0 0,0 0,0 0,0 0,0l3 0c0,0 0,0 0,0 0,0 0,0 0,0l-3 0 0 0zm-12 1c0,0 0,0 0,0 0,0 0,0 0,0l3 0c0,0 0,0 0,0 0,0 0,0 0,0l-3 0 0 0zm-12 1c0,0 0,0 0,0 0,0 0,0 0,0l3 0c0,0 0,0 0,0 0,0 0,0 0,0l-3 0 0 0zm-76 1c0,0 0,0 0,0 -1,-1 -2,-2 -2,-3 0,0 0,0 0,-1 0,0 0,0 1,0 1,1 1,2 2,3 0,0 0,0 0,1 0,0 0,0 0,0zm65 0c0,0 0,0 0,0 0,0 0,0 0,0l3 0c0,0 0,0 0,0 0,0 0,0 0,0l-3 0 0 0zm-12 1c0,0 0,0 0,0 0,0 0,0 0,0l3 0c0,0 0,0 0,0 0,0 0,0 0,0l-3 0 0 0zm-12 1c0,0 0,0 0,0 0,0 0,0 0,0l3 0c0,0 0,0 0,0 0,0 0,0 0,0l-3 0 0 0zm-12 1c0,0 0,0 0,0 0,0 0,0 0,0l3 0c0,0 0,0 0,0 0,0 0,0 0,0l-3 0 0 0zm-20 1l0 0c-1,0 -2,-1 -3,-1 0,0 0,0 0,-1 0,0 0,0 1,0 1,0 2,1 3,1 0,0 0,0 0,1 0,0 0,0 0,0zm8 0c0,0 0,0 0,0 0,0 0,0 0,0l3 0c0,0 0,0 0,0 0,0 0,0 0,0l-3 0 0 0z"/>
  <path class="fil39" d="M726 684l0 -5c0,-1 1,-2 3,-3 5,-1 16,-4 23,-1l2 6 -27 3z"/>
  <path class="fil40" d="M740 678c-1,0 -2,1 -3,0 -1,0 -2,-1 -3,-3l-2 -15 8 -1 2 15c0,1 -1,3 -2,3z"/>
  <path class="fil39" d="M802 675l0 -5c0,-1 1,-2 3,-3 5,-1 16,-4 23,-1l2 6 -27 3z"/>
  <path class="fil40" d="M816 668c-1,0 -2,1 -3,0 -1,0 -2,-1 -3,-3l-2 -17 8 -1 2 17c0,1 -1,3 -2,3z"/>
  <path class="fil37" d="M731 664c-2,0 -3,-1 -3,-2 -1,-3 -1,-6 -1,-9 0,-3 2,-5 4,-6 20,-11 57,-16 75,-18 1,0 2,0 3,0 0,0 1,0 1,0 4,0 8,3 10,7 1,4 1,8 1,11 0,2 -2,4 -3,4l-18 3 -67 11c0,0 0,0 -1,0zm23 -24c0,0 0,0 0,0 -7,1 -16,5 -21,7 -3,1 -4,3 -5,6 0,3 0,7 0,7 0,1 1,1 1,1 0,0 0,0 0,0 1,0 1,-1 1,-1 0,0 -1,-3 0,-6 0,-2 2,-4 3,-4 4,-2 13,-5 20,-7 1,0 1,-1 1,-1 0,-1 -1,-1 -1,-1z"/>
  <path class="fil40" d="M730 661c-1,0 -1,0 -1,-1 0,0 -1,-3 0,-7 0,-3 2,-5 5,-6 5,-2 13,-6 21,-7 0,0 0,0 0,0 1,0 1,0 1,1 0,1 0,1 -1,1 -7,1 -17,5 -20,7 -2,1 -3,2 -3,4 0,3 0,6 0,6 0,1 0,1 -1,1 0,0 0,0 0,0z"/>
  <path class="fil40" d="M686 688c27,-4 146,-20 181,-21 3,0 6,2 7,5 3,9 10,30 12,51 0,3 -2,6 -4,6l-77 25 -28 4 -86 -6c-3,0 -6,-2 -6,-5 -2,-11 -6,-35 -5,-52 0,-3 3,-6 6,-7z"/>
  <path class="fil41" d="M853 675c0,0 0,0 0,0 0,0 0,0 0,0 1,0 2,0 4,0 0,0 0,0 0,0 0,0 0,0 0,0 -1,0 -2,0 -3,0l0 0zm-12 1c0,0 0,0 0,0 0,0 0,0 0,0 1,0 2,0 3,0 0,0 0,0 0,0 0,0 0,0 0,0 -1,0 -2,0 -3,0l0 0zm26 0c0,0 0,0 0,0l0 -1c-1,0 -1,0 -2,0l0 0c0,0 0,0 0,0 0,0 0,0 0,0 1,0 1,0 2,0 0,0 1,0 1,0l1 1c0,0 0,0 0,1 0,0 0,0 0,0zm-37 1c0,0 0,0 0,0 0,0 0,0 0,0l4 0c0,0 0,0 0,0 0,0 0,0 0,0l-3 0 0 0zm-12 1c0,0 0,0 0,0 0,0 0,0 0,0l3 0c0,0 0,0 0,0 0,0 0,0 0,0l-3 0 0 0zm-12 1c0,0 0,0 0,0 0,0 0,0 0,0l3 0c0,0 0,0 0,0 0,0 0,0 0,0l-3 0 0 0zm-12 1c0,0 0,0 0,0 0,0 0,0 0,0l3 0c0,0 0,0 0,0 0,0 0,0 0,0l-3 0 0 0zm-12 1c0,0 0,0 0,0 0,0 0,0 0,0l3 0c0,0 0,0 0,0 0,0 0,0 0,0l-3 0 0 0zm-12 1c0,0 0,0 0,0 0,0 0,0 0,0l3 0c0,0 0,0 0,0 0,0 0,0 0,0l-3 0 0 0zm-12 1c0,0 0,0 0,0 0,0 0,0 0,0l3 0c0,0 0,0 0,0 0,0 0,0 0,0l-3 0 0 0zm-12 1c0,0 0,0 0,0 0,0 0,0 0,0l3 0c0,0 0,0 1,0 0,0 0,0 0,0l-3 0 0 0zm122 1c0,0 0,0 0,0 0,-1 -1,-2 -1,-3 0,0 0,0 0,-1 0,0 0,0 1,0 0,1 1,2 1,3 0,0 0,0 0,1 0,0 0,0 0,0zm-134 1c0,0 0,0 0,0 0,0 0,0 0,-1l3 0c0,0 0,0 0,0 0,0 0,0 0,1l-3 0 0 0zm-12 2c0,0 0,0 0,0 0,0 0,0 0,-1l3 0c0,0 0,0 1,0 0,0 0,0 0,0l-3 0 0 0zm-12 2c0,0 0,0 0,0 0,0 0,0 0,0l3 0c0,0 0,0 1,0 0,0 0,0 0,0l-3 0 0 0zm-12 2c0,0 0,0 0,0 0,0 0,0 0,-1l3 0c0,0 0,0 0,0 0,0 0,0 0,0l-3 0 0 0zm-12 2c0,0 0,0 0,0 0,0 0,0 0,-1l3 0c0,0 0,0 0,0 0,0 0,0 0,1l-3 0 0 0zm183 4c0,0 0,0 0,0 0,-1 -1,-2 -1,-3 0,0 0,0 0,-1 0,0 0,0 1,0 0,1 1,2 1,3 0,0 0,0 0,1 0,0 0,0 0,0zm-188 4c0,0 0,0 0,0 0,-1 0,-2 0,-3l0 -1c0,0 0,0 0,0l0 0c0,0 0,0 0,0l0 1c0,1 0,2 0,3 0,0 0,0 0,0l0 0zm190 7c0,0 0,0 0,0 0,-1 0,-2 -1,-3 0,0 0,0 0,-1 0,0 0,0 1,0 0,1 0,2 1,3 0,0 0,0 0,1l0 0zm-189 4c0,0 0,0 0,0 0,-1 0,-2 0,-4 0,0 0,0 0,0 0,0 0,0 0,0 0,1 0,2 0,3 0,0 0,0 0,0l0 0zm191 7c0,0 0,0 0,0 0,-1 0,-2 0,-3 0,0 0,0 0,0 0,0 0,0 1,0 0,1 0,2 0,3 0,0 0,0 0,0l0 0zm-190 4c0,0 0,0 0,0 0,-1 0,-2 0,-3 0,0 0,0 0,0 0,0 0,0 0,0 0,1 0,2 0,3 0,0 0,0 0,0l0 0zm181 1c0,0 0,0 0,0 0,0 0,0 0,-1l3 -1c0,0 0,0 1,0 0,0 0,0 0,1l-3 1c0,0 0,0 0,0zm-11 4c0,0 0,0 0,0 0,0 0,0 0,-1l3 -1c0,0 0,0 1,0 0,0 0,0 0,1l-3 1c0,0 0,0 0,0zm-11 4c0,0 0,0 0,0 0,0 0,0 0,-1l3 -1c0,0 0,0 1,0 0,0 0,0 0,1l-3 1c0,0 0,0 0,0zm-11 4c0,0 0,0 0,0 0,0 0,0 0,-1l3 -1c0,0 0,0 1,0 0,0 0,0 0,1l-3 1c0,0 0,0 0,0zm-146 0c0,0 0,0 0,0 0,-1 0,-2 -1,-3 0,0 0,0 0,-1 0,0 0,0 1,0 0,1 0,2 1,3 0,0 0,0 0,1l0 0zm135 3c0,0 0,0 0,0 0,0 0,0 0,-1l3 -1c0,0 0,0 1,0 0,0 0,0 0,1l-3 1c0,0 0,0 0,0zm-11 4c0,0 0,0 0,0 0,0 0,0 0,-1l3 -1c0,0 0,0 1,0 0,0 0,0 0,1l-3 1c0,0 0,0 0,0zm-119 1l0 0 -4 0 0 0c0,0 0,-1 0,-1 0,0 0,0 0,0l3 0c0,0 0,0 0,0 0,0 0,0 0,0zm12 1l0 0 -4 0c0,0 0,0 0,0 0,0 0,0 0,0l4 0c0,0 0,0 0,0 0,0 0,0 0,0zm12 1l0 0 -4 0c0,0 0,0 0,0 0,0 0,0 0,0l3 0c0,0 0,0 0,0 0,0 0,0 0,0zm85 1c0,0 0,0 0,0 0,0 0,0 0,0l0 0 3 -1c0,0 0,0 1,0 0,0 0,0 0,1l-3 1 0 0zm-73 0l0 0 -4 0c0,0 0,0 0,0 0,0 0,0 0,0l4 0c0,0 0,0 0,0 0,0 0,0 0,0zm12 1l0 0 -4 0c0,0 0,0 0,0 0,0 0,0 0,0l4 0c0,0 0,0 0,0 0,0 0,0 0,0zm50 1c0,0 0,0 0,0 0,0 0,0 0,-1l3 0c0,0 0,0 1,0 0,0 0,0 0,0l-3 0 0 0zm-38 0l0 0 -3 0c0,0 0,0 0,0 0,0 0,0 0,0l4 0c0,0 0,0 0,0 0,0 0,0 0,0zm12 1l0 0 -4 0c0,0 0,0 0,0 0,0 0,0 0,0l4 0c0,0 0,0 0,0 0,0 0,0 0,0zm15 0c0,0 0,0 0,0 0,0 0,0 0,0l3 0c0,0 0,0 0,0 0,0 0,0 0,1l-3 0 0 0zm-3 0l0 0 -4 0c0,0 0,0 0,0 0,0 0,0 0,0l4 0c0,0 0,0 0,0 0,0 0,0 0,0z"/>
  <path class="fil41" d="M803 766l-24 3c-3,0 -6,-2 -7,-5l-6 -23c-1,-4 2,-7 5,-8l29 -4c4,0 7,2 7,6l1 24c0,3 -2,6 -6,7z"/>
  <path class="fil37" d="M800 762l-19 2c-2,0 -5,-1 -5,-4l-4 -18c-1,-3 1,-6 4,-6l22 -3c3,0 5,2 5,5l1 18c0,3 -2,5 -4,5z"/>
  <path class="fil42" d="M785 575c6,24 6,47 5,56 0,3 -3,6 -6,6 -4,0 -9,1 -13,1 -5,0 -10,-3 -14,-5 -2,-1 -4,1 -3,3 2,3 5,6 8,9 2,1 8,4 8,7 0,1 -1,2 -1,2 -3,4 -9,6 -14,8 -1,0 -1,0 -2,1 0,3 10,7 13,8 4,1 8,2 12,1 10,-1 20,-8 25,-17 15,-23 22,-50 25,-71 -14,-14 -34,-10 -42,-8z"/>
  <path class="fil43" d="M828 585c11,-82 -52,-145 -52,-145l-38 44c29,36 42,68 48,94 8,-2 28,-6 42,7z"/>
  <path class="fil44" d="M785 577c-1,0 -2,-1 -2,-2 -8,-32 -24,-63 -48,-93 -1,-1 -1,-2 0,-3 1,-1 2,-1 3,0 25,31 41,63 49,95 0,1 0,3 -2,3 0,0 0,0 -1,0z"/>
  <path class="fil45" d="M275 1063c0,0 0,-1 0,-1 -6,-24 -36,-39 -36,-39l-12 1c-7,21 -6,34 -5,40 0,0 0,0 0,0 10,1 30,1 53,-1z"/>
  <path class="fil46" d="M223 1065c1,2 2,3 4,4 14,3 36,1 46,-1 2,0 4,-2 4,-4 -23,3 -43,2 -53,1z"/>
  <path class="fil47" d="M223 1007l5 24c0,2 2,3 3,3 2,0 5,0 8,0 3,0 4,-3 4,-6l-4 -22 -17 0z"/>
  <path class="fil48" d="M327 1064c-13,0 -20,-2 -23,-3 0,1 0,3 0,4 0,1 1,3 2,3l72 0c2,0 4,-3 3,-5 -9,1 -34,3 -54,2z"/>
  <path class="fil49" d="M381 1062c0,0 0,0 0,-1 -6,-9 -23,-27 -55,-34l-15 0c0,0 -7,12 -7,34 4,1 10,3 23,3 20,1 44,-1 54,-2z"/>
  <path class="fil50" d="M307 1004c0,1 3,18 5,25 0,2 2,3 3,3 3,0 7,0 11,-1 2,-1 3,-3 3,-5l-2 -27 -20 5z"/>
  <path class="fil51" d="M295 685c0,0 21,146 36,319 0,3 -2,6 -5,7 -5,1 -12,2 -17,2 -3,0 -6,-2 -6,-5 -5,-31 -42,-194 -52,-230 0,0 -11,153 -8,233 0,2 -1,4 -3,4 -3,0 -8,1 -14,0 -2,0 -4,-2 -4,-4 -4,-26 -25,-180 -24,-290 0,-6 7,-58 7,-58l90 24z"/>
  <path class="fil40" d="M202 694c-2,-1 -4,-3 -4,-5 -3,-27 -16,-197 70,-266 0,0 5,-13 46,19 41,32 19,65 9,111 -12,56 -32,101 -23,135 1,2 -1,5 -3,6 -32,12 -63,12 -94,1z"/>
  <path class="fil52" d="M301 372c0,2 -34,51 -34,51 0,0 6,12 36,22l25 -52 -27 -21z"/>
  <path class="fil53" d="M328 344c0,0 12,28 13,43 1,15 4,24 -13,27 -17,3 -31,-6 -39,-20 0,0 -12,-23 -9,-32 3,-9 49,-18 49,-18z"/>
  <path class="fil54" d="M295 383l1 0c1,-1 2,-2 1,-3 -2,-5 -7,-15 -1,-18 8,-3 39,-10 45,-20 6,-11 1,-24 -8,-28 -1,0 -1,0 -2,1l-1 1c0,1 -2,1 -2,0 0,-1 -2,-1 -2,0 -2,3 -8,9 -22,11 -21,4 -35,12 -35,27 0,1 -1,1 -2,1 -2,-1 -4,-1 -7,1 -6,5 -3,17 9,28 1,0 1,1 0,2 -2,2 -6,5 3,10 9,5 16,5 19,4 1,0 1,-1 1,-1l-3 -13c0,-1 0,-1 1,-1l4 0z"/>
  <path class="fil55" d="M295 386c0,0 -5,-18 -13,-13 -8,5 4,20 11,21l2 -8z"/>
  <path class="fil40" d="M326 456l2 64c7,2 13,4 19,5 4,-12 12,-27 19,-39 -25,-9 -41,-31 -41,-31z"/>
  <path class="fil56" d="M452 455c-35,37 -63,40 -86,32 -7,11 -15,26 -19,39 93,20 114,-65 114,-65l-10 -5z"/>
  <path class="fil57" d="M459 451c0,0 4,-4 11,-3 7,1 14,4 19,0 5,-4 6,1 6,1l-14 10 -22 -9z"/>
  <path class="fil58" d="M451 458c0,0 3,-11 11,-10 8,2 27,12 32,10 5,-2 11,-6 14,-5l-6 7c0,0 14,-8 17,-3l-24 13c0,0 -35,-4 -44,-12z"/>
  <path class="fil59" d="M287 539c0,0 65,55 136,31 4,-1 9,-1 13,1l20 11c9,4 19,2 24,-7 3,-5 5,-10 6,-15l-40 -16 3 -5c0,0 -19,-2 -24,12 0,0 -37,15 -99,-53 0,0 -28,24 -39,41z"/>
  <path class="fil41" d="M284 539c0,0 0,0 -1,0 -27,-19 -40,-48 -41,-49 0,-1 0,-1 1,-1 1,0 1,0 1,1 0,0 13,30 40,48 1,0 1,1 0,2 0,0 -1,0 -1,0z"/>
  <path class="fil41" d="M325 497c0,0 -1,0 -1,-1 0,0 -8,-13 -24,-42 -5,-9 -11,-14 -19,-17 -13,-4 -25,3 -26,3 -1,0 -1,0 -2,0 0,-1 0,-1 0,-2 1,0 13,-7 27,-4 8,2 15,8 21,18 16,29 24,42 24,42 0,1 0,1 0,2 0,0 0,0 -1,0z"/>
 </g>
</svg>
