<?xml version="1.0" encoding="UTF-8"?>
<!DOCTYPE svg PUBLIC "-//W3C//DTD SVG 1.1//EN" "http://www.w3.org/Graphics/SVG/1.1/DTD/svg11.dtd">
<!-- Creator: CorelDRAW 2021 (64 Bit) -->
<svg xmlns="http://www.w3.org/2000/svg" xml:space="preserve" width="1080px" height="1080px" version="1.1" style="shape-rendering:geometricPrecision; text-rendering:geometricPrecision; image-rendering:optimizeQuality; fill-rule:evenodd; clip-rule:evenodd"
viewBox="0 0 1080 1080"
 xmlns:xlink="http://www.w3.org/1999/xlink"
 xmlns:xodm="http://www.corel.com/coreldraw/odm/2003">
 <defs>
  <style type="text/css">
   <![CDATA[
    .fil0 {fill:none;fill-rule:nonzero}
    .fil21 {fill:aqua}
    .fil36 {fill:#4E51FD}
    .fil12 {fill:#7D97F4;fill-rule:nonzero}
    .fil46 {fill:#8BABF8;fill-rule:nonzero}
    .fil4 {fill:#91B3FA;fill-rule:nonzero}
    .fil47 {fill:#AABFF9;fill-rule:nonzero}
    .fil2 {fill:#BDD0FB;fill-rule:nonzero}
    .fil5 {fill:#C0D6FC;fill-rule:nonzero}
    .fil3 {fill:#DCE6FD;fill-rule:nonzero}
    .fil11 {fill:#F2F6FE;fill-rule:nonzero}
    .fil60 {fill:url(#id0)}
    .fil15 {fill:url(#id1)}
    .fil37 {fill:url(#id2)}
    .fil63 {fill:url(#id3)}
    .fil38 {fill:url(#id4)}
    .fil13 {fill:url(#id5)}
    .fil6 {fill:url(#id6)}
    .fil41 {fill:url(#id7)}
    .fil22 {fill:url(#id8)}
    .fil43 {fill:url(#id9)}
    .fil31 {fill:url(#id10)}
    .fil32 {fill:url(#id11)}
    .fil68 {fill:url(#id12)}
    .fil69 {fill:url(#id13)}
    .fil74 {fill:url(#id14)}
    .fil33 {fill:url(#id15)}
    .fil65 {fill:url(#id16)}
    .fil58 {fill:url(#id17)}
    .fil27 {fill:url(#id18)}
    .fil57 {fill:url(#id19)}
    .fil24 {fill:url(#id20)}
    .fil25 {fill:url(#id21)}
    .fil28 {fill:url(#id22)}
    .fil40 {fill:url(#id23)}
    .fil7 {fill:url(#id24)}
    .fil14 {fill:url(#id25)}
    .fil34 {fill:url(#id26)}
    .fil51 {fill:url(#id27)}
    .fil42 {fill:url(#id28)}
    .fil62 {fill:url(#id29)}
    .fil59 {fill:url(#id30)}
    .fil54 {fill:url(#id31)}
    .fil35 {fill:url(#id32)}
    .fil50 {fill:url(#id33)}
    .fil71 {fill:url(#id34)}
    .fil45 {fill:url(#id35)}
    .fil72 {fill:url(#id36)}
    .fil30 {fill:url(#id37)}
    .fil56 {fill:url(#id38)}
    .fil64 {fill:url(#id39)}
    .fil52 {fill:url(#id40)}
    .fil1 {fill:url(#id41)}
    .fil8 {fill:url(#id42)}
    .fil9 {fill:url(#id43)}
    .fil10 {fill:url(#id44)}
    .fil49 {fill:url(#id45)}
    .fil19 {fill:url(#id46)}
    .fil29 {fill:url(#id47)}
    .fil44 {fill:url(#id48)}
    .fil73 {fill:url(#id49)}
    .fil18 {fill:url(#id50)}
    .fil66 {fill:url(#id51)}
    .fil39 {fill:url(#id52)}
    .fil16 {fill:url(#id53)}
    .fil26 {fill:url(#id54)}
    .fil23 {fill:url(#id55)}
    .fil67 {fill:url(#id56)}
    .fil61 {fill:url(#id57)}
    .fil48 {fill:url(#id58)}
    .fil70 {fill:url(#id59)}
    .fil20 {fill:url(#id60)}
    .fil17 {fill:url(#id61)}
    .fil53 {fill:url(#id62)}
    .fil55 {fill:url(#id63)}
   ]]>
  </style>
  <linearGradient id="id0" gradientUnits="userSpaceOnUse" x1="226" y1="1026" x2="244" y2="1026">
   <stop offset="0" style="stop-opacity:1; stop-color:#FEBBBA"/>
   <stop offset="1" style="stop-opacity:1; stop-color:#FF928E"/>
  </linearGradient>
  <linearGradient id="id1" gradientUnits="userSpaceOnUse" xlink:href="#id0" x1="608" y1="939" x2="755" y2="939">
  </linearGradient>
  <linearGradient id="id2" gradientUnits="userSpaceOnUse" xlink:href="#id0" x1="990" y1="783" x2="921" y2="783">
  </linearGradient>
  <linearGradient id="id3" gradientUnits="userSpaceOnUse" xlink:href="#id0" x1="163" y1="1025" x2="178" y2="1025">
  </linearGradient>
  <linearGradient id="id4" gradientUnits="userSpaceOnUse" xlink:href="#id0" x1="927" y1="695" x2="799" y2="695">
  </linearGradient>
  <linearGradient id="id5" gradientUnits="userSpaceOnUse" xlink:href="#id0" x1="691" y1="936" x2="760" y2="936">
  </linearGradient>
  <linearGradient id="id6" gradientUnits="userSpaceOnUse" x1="914" y1="261" x2="160" y2="836">
   <stop offset="0" style="stop-opacity:1; stop-color:#4F52FF"/>
   <stop offset="1" style="stop-opacity:1; stop-color:#4042E2"/>
  </linearGradient>
  <linearGradient id="id7" gradientUnits="userSpaceOnUse" x1="950" y1="569" x2="886" y2="569">
   <stop offset="0" style="stop-opacity:1; stop-color:#09005D"/>
   <stop offset="1" style="stop-opacity:1; stop-color:#1A0F91"/>
  </linearGradient>
  <linearGradient id="id8" gradientUnits="userSpaceOnUse" xlink:href="#id0" x1="774" y1="746" x2="764" y2="684">
  </linearGradient>
  <linearGradient id="id9" gradientUnits="userSpaceOnUse" xlink:href="#id6" x1="926" y1="887" x2="926" y2="860">
  </linearGradient>
  <linearGradient id="id10" gradientUnits="userSpaceOnUse" xlink:href="#id0" x1="918" y1="1020" x2="923" y2="981">
  </linearGradient>
  <linearGradient id="id11" gradientUnits="userSpaceOnUse" xlink:href="#id7" x1="1025" y1="1129" x2="1024" y2="1226">
  </linearGradient>
  <linearGradient id="id12" gradientUnits="userSpaceOnUse" xlink:href="#id0" x1="107" y1="687" x2="219" y2="688">
  </linearGradient>
  <linearGradient id="id13" gradientUnits="userSpaceOnUse" xlink:href="#id0" x1="194" y1="575" x2="238" y2="575">
  </linearGradient>
  <linearGradient id="id14" gradientUnits="userSpaceOnUse" xlink:href="#id0" x1="207" y1="693" x2="242" y2="693">
  </linearGradient>
  <linearGradient id="id15" gradientUnits="userSpaceOnUse" xlink:href="#id0" x1="1027" y1="1033" x2="1032" y2="995">
  </linearGradient>
  <linearGradient id="id16" gradientUnits="userSpaceOnUse" xlink:href="#id0" x1="302" y1="573" x2="391" y2="574">
  </linearGradient>
  <linearGradient id="id17" gradientUnits="userSpaceOnUse" x1="471" y1="582" x2="688" y2="-200">
   <stop offset="0" style="stop-opacity:1; stop-color:#5D67FC"/>
   <stop offset="1" style="stop-opacity:1; stop-color:#525CE7"/>
  </linearGradient>
  <linearGradient id="id18" gradientUnits="userSpaceOnUse" xlink:href="#id7" x1="818" y1="806" x2="733" y2="834">
  </linearGradient>
  <linearGradient id="id19" gradientUnits="userSpaceOnUse" xlink:href="#id17" x1="467" y1="582" x2="686" y2="-201">
  </linearGradient>
  <linearGradient id="id20" gradientUnits="userSpaceOnUse" xlink:href="#id0" x1="732" y1="649" x2="787" y2="686">
  </linearGradient>
  <linearGradient id="id21" gradientUnits="userSpaceOnUse" xlink:href="#id7" x1="731" y1="597" x2="896" y2="777">
  </linearGradient>
  <linearGradient id="id22" gradientUnits="userSpaceOnUse" xlink:href="#id7" x1="701" y1="750" x2="640" y2="815">
  </linearGradient>
  <linearGradient id="id23" gradientUnits="userSpaceOnUse" xlink:href="#id0" x1="908" y1="553" x2="964" y2="623">
  </linearGradient>
  <linearGradient id="id24" gradientUnits="userSpaceOnUse" xlink:href="#id6" x1="466" y1="582" x2="685" y2="-201">
  </linearGradient>
  <linearGradient id="id25" gradientUnits="userSpaceOnUse" xlink:href="#id6" x1="734" y1="981" x2="724" y2="1129">
  </linearGradient>
  <linearGradient id="id26" gradientUnits="userSpaceOnUse" xlink:href="#id7" x1="1045" y1="888" x2="911" y2="888">
  </linearGradient>
  <linearGradient id="id27" gradientUnits="userSpaceOnUse" x1="1113" y1="1176" x2="375" y2="371">
   <stop offset="0" style="stop-opacity:1; stop-color:#BECCFB"/>
   <stop offset="1" style="stop-opacity:1; stop-color:#C8D4FA"/>
  </linearGradient>
  <linearGradient id="id28" gradientUnits="userSpaceOnUse" xlink:href="#id0" x1="982" y1="601" x2="946" y2="563">
  </linearGradient>
  <linearGradient id="id29" gradientUnits="userSpaceOnUse" xlink:href="#id7" x1="244" y1="971" x2="51" y2="1182">
  </linearGradient>
  <linearGradient id="id30" gradientUnits="userSpaceOnUse" xlink:href="#id7" x1="290" y1="1012" x2="93" y2="1221">
  </linearGradient>
  <linearGradient id="id31" gradientUnits="userSpaceOnUse" xlink:href="#id17" x1="918" y1="261" x2="188" y2="836">
  </linearGradient>
  <linearGradient id="id32" gradientUnits="userSpaceOnUse" xlink:href="#id6" x1="1029" y1="865" x2="1024" y2="854">
  </linearGradient>
  <linearGradient id="id33" gradientUnits="userSpaceOnUse" xlink:href="#id17" x1="468" y1="582" x2="687" y2="-201">
  </linearGradient>
  <linearGradient id="id34" gradientUnits="userSpaceOnUse" xlink:href="#id7" x1="175" y1="497" x2="236" y2="540">
  </linearGradient>
  <linearGradient id="id35" gradientUnits="userSpaceOnUse" xlink:href="#id17" x1="918" y1="261" x2="187" y2="836">
  </linearGradient>
  <linearGradient id="id36" gradientUnits="userSpaceOnUse" xlink:href="#id0" x1="235" y1="556" x2="194" y2="538">
  </linearGradient>
  <linearGradient id="id37" gradientUnits="userSpaceOnUse" xlink:href="#id7" x1="894" y1="1123" x2="893" y2="1215">
  </linearGradient>
  <linearGradient id="id38" gradientUnits="userSpaceOnUse" xlink:href="#id17" x1="467" y1="582" x2="686" y2="-201">
  </linearGradient>
  <linearGradient id="id39" gradientUnits="userSpaceOnUse" xlink:href="#id7" x1="-7558" y1="10620" x2="-7415" y2="10439">
  </linearGradient>
  <linearGradient id="id40" gradientUnits="userSpaceOnUse" xlink:href="#id27" x1="1107" y1="1176" x2="407" y2="371">
  </linearGradient>
  <linearGradient id="id41" gradientUnits="userSpaceOnUse" x1="1098" y1="1176" x2="370" y2="371">
   <stop offset="0" style="stop-opacity:1; stop-color:#DAE3FE"/>
   <stop offset="1" style="stop-opacity:1; stop-color:#E9EFFD"/>
  </linearGradient>
  <linearGradient id="id42" gradientUnits="userSpaceOnUse" x1="467" y1="582" x2="686" y2="-201">
   <stop offset="0" style="stop-opacity:1; stop-color:#E5E5FF"/>
   <stop offset="1" style="stop-opacity:1; stop-color:#E3E3FB"/>
  </linearGradient>
  <linearGradient id="id43" gradientUnits="userSpaceOnUse" xlink:href="#id42" x1="467" y1="582" x2="686" y2="-201">
  </linearGradient>
  <linearGradient id="id44" gradientUnits="userSpaceOnUse" xlink:href="#id42" x1="467" y1="582" x2="686" y2="-201">
  </linearGradient>
  <linearGradient id="id45" gradientUnits="userSpaceOnUse" xlink:href="#id17" x1="467" y1="582" x2="686" y2="-201">
  </linearGradient>
  <linearGradient id="id46" gradientUnits="userSpaceOnUse" xlink:href="#id7" x1="708" y1="614" x2="887" y2="828">
  </linearGradient>
  <linearGradient id="id47" gradientUnits="userSpaceOnUse" xlink:href="#id6" x1="662" y1="767" x2="637" y2="806">
  </linearGradient>
  <linearGradient id="id48" gradientUnits="userSpaceOnUse" xlink:href="#id27" x1="1112" y1="1176" x2="380" y2="371">
  </linearGradient>
  <linearGradient id="id49" gradientUnits="userSpaceOnUse" xlink:href="#id7" x1="249" y1="626" x2="311" y2="883">
  </linearGradient>
  <linearGradient id="id50" gradientUnits="userSpaceOnUse" xlink:href="#id7" x1="710" y1="614" x2="878" y2="825">
  </linearGradient>
  <linearGradient id="id51" gradientUnits="userSpaceOnUse" xlink:href="#id0" x1="373" y1="555" x2="317" y2="685">
  </linearGradient>
  <linearGradient id="id52" gradientUnits="userSpaceOnUse" xlink:href="#id0" x1="973" y1="622" x2="928" y2="582">
  </linearGradient>
  <linearGradient id="id53" gradientUnits="userSpaceOnUse" xlink:href="#id7" x1="699" y1="863" x2="862" y2="863">
  </linearGradient>
  <linearGradient id="id54" gradientUnits="userSpaceOnUse" xlink:href="#id0" x1="745" y1="639" x2="785" y2="693">
  </linearGradient>
  <linearGradient id="id55" gradientUnits="userSpaceOnUse" xlink:href="#id0" x1="815" y1="819" x2="953" y2="819">
  </linearGradient>
  <linearGradient id="id56" gradientUnits="userSpaceOnUse" xlink:href="#id0" x1="391" y1="513" x2="415" y2="475">
  </linearGradient>
  <linearGradient id="id57" gradientUnits="userSpaceOnUse" xlink:href="#id7" x1="-8153" y1="9559" x2="-7999" y2="9399">
  </linearGradient>
  <linearGradient id="id58" gradientUnits="userSpaceOnUse" xlink:href="#id17" x1="469" y1="582" x2="688" y2="-201">
  </linearGradient>
  <linearGradient id="id59" gradientUnits="userSpaceOnUse" xlink:href="#id0" x1="247" y1="547" x2="201" y2="518">
  </linearGradient>
  <linearGradient id="id60" gradientUnits="userSpaceOnUse" xlink:href="#id7" x1="709" y1="614" x2="886" y2="828">
  </linearGradient>
  <linearGradient id="id61" gradientUnits="userSpaceOnUse" xlink:href="#id6" x1="632" y1="980" x2="623" y2="1116">
  </linearGradient>
  <linearGradient id="id62" gradientUnits="userSpaceOnUse" xlink:href="#id27" x1="1112" y1="1176" x2="373" y2="371">
  </linearGradient>
  <linearGradient id="id63" gradientUnits="userSpaceOnUse" xlink:href="#id17" x1="483" y1="582" x2="692" y2="-201">
  </linearGradient>
 </defs>
 <g id="Camada_x0020_1">
  <metadata id="CorelCorpID_0Corel-Layer"/>
  <polygon class="fil0" points="0,1080 1080,1080 1080,0 0,0 "/>
  <g id="_2274899279760">
   <path class="fil1" d="M472 1044c-16,0 -32,-1 -47,-2 -58,-5 -174,-14 -265,-100 -22,-21 -41,-44 -56,-70 3,1 6,1 10,1 0,0 0,0 0,0l798 -8c-117,121 -288,179 -439,179zm-397 -229c-42,-104 -44,-231 -13,-351l13 351zm914 -54l26 -448c52,125 49,278 -5,405 -6,15 -13,29 -21,43zm22 -269c-1,0 -1,0 -2,1 -1,1 -2,2 -2,2 -1,1 -1,2 0,3 0,0 0,0 0,0 0,0 1,1 2,1 1,0 1,0 1,-1 1,-1 2,-2 3,-2 1,-1 1,-2 0,-3 0,0 -1,-1 -2,-1zm24 -61c0,0 0,0 0,0 -1,0 -2,1 -2,2 0,1 0,2 0,3 0,0 0,1 0,1 0,1 1,1 2,1 0,0 0,0 0,0 1,0 2,-1 2,-2 0,-1 0,-2 0,-4 0,-1 -1,-2 -2,-2zm-3 -19c0,0 0,0 -1,0 -1,0 -2,1 -2,3 1,2 1,5 1,7 0,0 0,1 0,1 0,1 1,1 2,1 0,0 0,0 0,0 1,0 2,-1 2,-2 0,-2 -1,-5 -2,-7 0,-1 -1,-2 -2,-2zm-7 -17c0,0 -1,0 -1,0 -1,1 -1,2 -1,3 1,2 2,4 3,6 0,0 0,0 0,0 0,1 1,1 2,1 0,0 1,0 1,0 1,0 2,-2 1,-3 -1,-2 -2,-4 -3,-7 0,-1 -1,-1 -2,-1zm-10 -16c0,0 -1,0 -1,1 -1,1 -1,2 0,3 0,0 0,0 0,0 1,2 3,4 4,5 0,1 1,1 2,1 0,0 1,0 1,0 1,-1 1,-2 1,-3l0 0c-1,-2 -3,-4 -4,-6 0,-1 -1,-1 -2,-1zm-786 -121c2,-28 1,-55 -3,-79 64,-60 186,-150 352,-150 2,0 3,0 5,0 170,2 289,98 304,110 18,15 59,51 95,108 1,2 3,4 4,6 -8,-5 -18,-8 -29,-8 0,0 -1,0 -1,0l-727 12z"/>
   <path class="fil2" d="M30 25c-1,-4 5,-7 8,-4 36,29 123,117 101,271 -27,193 19,263 77,306 0,0 -79,-20 -129,-92 -123,-175 -40,-408 -58,-481z"/>
   <path class="fil3" d="M80 266c0,-17 -1,-34 -3,-52 -2,-22 -4,-43 -7,-65 -3,-22 -7,-43 -12,-65 0,-1 0,-1 1,-1 0,0 0,0 0,0 1,0 1,0 1,1 6,21 10,43 14,64 4,22 7,43 9,65 1,5 1,11 2,16 0,5 1,11 1,16 0,5 1,10 1,16 -3,1 -6,2 -8,4z"/>
   <path class="fil4" d="M124 486c-4,5 -12,3 -15,-3 -15,-33 -48,-128 7,-238 46,-93 63,-148 69,-173 1,-5 9,-6 11,-1 25,56 89,245 -71,415z"/>
   <path class="fil5" d="M149 259c7,-24 16,-48 26,-71 0,-1 1,-2 2,-2 0,0 1,0 1,0 1,1 2,2 1,3 -10,23 -18,46 -25,69l-5 0z"/>
   <path class="fil6" d="M113 873c-3,0 -7,0 -10,-1 -16,-4 -27,-18 -28,-36l-1 -22 -13 -351 0 -1 -6 -154c-1,-18 9,-34 23,-42 3,-1 5,-3 8,-4 4,-1 9,-2 13,-2l8 0 40 -1 5 0 74 -1 727 -12c0,0 1,0 1,0 10,0 20,3 29,8 19,11 32,32 30,56l0 3 -26 448 -3 55c-2,28 -24,49 -51,50l-23 0 -798 8c0,0 0,0 0,0zm-41 -519l18 467c1,20 17,35 36,35 0,0 0,0 0,0l800 -8c26,0 48,-21 50,-47l17 -292c0,0 0,0 0,0 0,0 1,0 1,0 2,-1 3,-2 4,-3 1,0 1,-1 2,-1 1,-1 1,-2 0,-3 0,-1 -1,-1 -2,-1 0,0 -1,0 -1,0 0,0 -1,1 -1,1 -1,1 -2,1 -3,2l8 -133c1,1 2,2 4,3 0,0 1,1 1,1 1,0 1,0 2,-1 1,-1 1,-2 0,-3 -2,-2 -4,-3 -6,-5 0,0 0,0 0,0l1 -12 2 0 2 -34c2,-33 -24,-61 -58,-61 0,0 -1,0 -1,0l-835 14c-25,0 -45,21 -44,46l1 35 2 0z"/>
   <path class="fil4" d="M114 273l832 -14c33,-1 60,28 58,61l-29 481c-2,26 -23,47 -50,47l-800 8c-20,0 -36,-15 -37,-35l-19 -502c-1,-25 19,-46 44,-46z"/>
   <path class="fil2" d="M130 289l792 -13c32,-1 57,26 56,58l-27 458c-1,25 -22,45 -47,45l-761 7c-19,0 -34,-15 -35,-33l-18 -478c-1,-24 18,-43 41,-44z"/>
   <path class="fil7" d="M1004 354l-2 0 -26 0 0 0c0,-1 -1,-1 -1,-1 -2,-1 -5,-1 -7,-2 0,0 0,0 0,0 -1,0 -2,1 -2,2 0,1 0,1 0,1l-27 0c0,0 1,-1 1,-2 0,-1 -1,-2 -2,-2 0,0 0,0 0,0 -2,0 -5,1 -7,2 -1,0 -2,1 -2,2l-24 0c-1,-2 -2,-3 -2,-4 0,0 0,-1 0,-1 0,0 -1,-1 -1,-1 0,0 0,0 -1,0 -1,0 -1,1 0,2 0,0 0,1 0,1 1,1 1,2 2,3l-830 0 -1 -35c-1,-25 19,-46 44,-46l835 -14c0,0 1,0 1,0 33,0 60,28 58,61l-2 34zm-54 -1c2,0 3,0 5,0 0,0 0,0 0,0 1,0 2,-1 2,-2 0,-1 -1,-2 -2,-2 -2,0 -3,0 -5,0 -1,0 -2,0 -3,0 -1,0 -2,1 -2,2 0,0 0,1 0,1 0,1 1,1 2,1 0,0 0,0 0,0 1,0 2,0 2,0zm-60 -16c0,0 -1,0 -1,0 0,0 -1,1 0,2 0,0 0,0 0,0 2,2 3,3 4,5 0,0 1,1 1,1 0,0 1,0 1,0 1,0 1,-1 0,-2 -1,-2 -3,-4 -5,-5 0,0 -1,0 -1,0zm-80 2c0,0 -1,0 -1,0 -1,1 -2,2 -2,3 0,0 0,1 0,2 0,0 0,0 0,0 0,0 1,0 1,0 0,0 1,0 1,0 1,-1 1,-2 2,-2 1,-1 0,-1 0,-2 0,0 -1,0 -1,0zm-679 -13c-4,0 -8,3 -8,8 0,4 3,8 8,8 4,0 8,-3 8,-8 0,-4 -3,-8 -8,-8zm689 4c0,0 0,0 -1,0 0,0 -1,0 -1,1 -2,1 -3,2 -5,4 -1,0 -1,1 0,2 0,0 0,0 0,0 0,0 1,0 1,0 0,0 1,0 1,0 1,-1 3,-2 4,-3 0,0 1,0 1,-1 1,0 1,-1 0,-2 0,0 -1,-1 -1,-1zm59 -1c0,0 -1,0 -1,1 0,0 0,1 0,1 0,0 0,0 0,0 2,1 4,2 6,4 0,0 1,0 1,0 0,0 1,0 1,-1 0,-1 0,-1 0,-2 -2,-1 -4,-3 -6,-4 0,0 0,0 -1,0zm-47 -5c0,0 0,0 0,0 -2,1 -4,2 -7,3 -1,0 -1,1 -1,2 0,0 0,0 0,0 0,0 1,1 1,1 0,0 0,0 1,0 2,-1 4,-2 6,-3 1,0 1,-1 1,-2 0,-1 -1,-1 -1,-1zm34 -1c-1,0 -1,0 -1,1 0,0 0,1 0,1 0,0 0,0 1,1 2,1 4,1 6,2 0,0 0,0 1,0 1,0 1,0 1,-1 0,-1 0,-1 -1,-2 -2,-1 -4,-2 -7,-2 0,0 0,0 0,0zm-20 -2c0,0 0,0 0,0 -2,0 -5,1 -7,1 -1,0 -1,1 -1,2 0,0 0,0 0,0 0,0 1,1 1,1 0,0 0,0 0,0 2,0 4,-1 7,-1 1,0 1,-1 1,-1 0,-1 -1,-1 -1,-1zm7 0c-1,0 -1,1 -1,1 0,0 0,1 0,1 0,0 1,1 1,1 2,0 4,0 7,1 0,0 0,0 0,0 1,0 1,0 1,-1 0,-1 0,-1 -1,-2 -2,0 -5,-1 -7,-1 0,0 0,0 0,0zm-722 -17c-4,0 -8,3 -8,8 0,4 3,8 8,8 4,0 8,-3 8,-8 0,-4 -3,-8 -8,-8zm0 -22c-4,0 -8,3 -8,8 0,4 3,8 8,8 4,0 8,-3 8,-8 0,-4 -3,-8 -8,-8z"/>
   <path class="fil8" d="M131 297c-4,0 -8,-3 -8,-8 0,-4 3,-8 8,-8 4,0 8,3 8,8 0,4 -3,8 -8,8z"/>
   <path class="fil9" d="M131 319c-4,0 -8,-3 -8,-8 0,-4 3,-8 8,-8 4,0 8,3 8,8 0,4 -3,8 -8,8z"/>
   <path class="fil10" d="M131 341c-4,0 -8,-3 -8,-8 0,-4 3,-8 8,-8 4,0 8,3 8,8 0,4 -3,8 -8,8z"/>
   <polygon class="fil11" points="358,798 358,696 425,693 425,795 "/>
   <polygon class="fil11" points="469,793 469,658 534,656 534,789 "/>
   <polygon class="fil11" points="576,787 576,612 639,610 639,784 "/>
   <polygon class="fil11" points="680,782 680,553 740,552 740,778 "/>
   <path class="fil11" d="M358 608c-1,0 -3,0 -4,-1 -6,-2 -9,-8 -6,-13 1,-3 4,-5 7,-6 3,-1 5,-1 7,-2 3,0 7,-1 12,-1 149,-14 255,-66 319,-153 0,0 0,0 0,0l16 -10 1 21c-42,57 -101,100 -177,129 -67,25 -130,31 -157,34 -5,0 -9,1 -11,1 -2,1 -3,1 -5,1 0,0 0,0 0,0z"/>
   <path class="fil11" d="M720 474c-5,0 -10,-4 -10,-9l-2 -22 -1 -21 -16 10 -28 17c-2,1 -4,2 -6,2 -3,0 -7,-2 -9,-4 -3,-5 -2,-11 3,-14l74 -45 5 76c0,5 -4,10 -10,10 0,0 0,0 -1,0 0,0 0,0 0,0z"/>
   <polygon class="fil12" points="792,1025 802,1025 802,919 792,919 "/>
   <path class="fil12" d="M840 1027l-86 0c0,-4 3,-6 6,-6l73 0c4,0 6,3 6,6z"/>
   <path class="fil12" d="M853 916c0,6 -5,11 -11,11l-87 0c-6,0 -11,-5 -11,-11l0 -10c0,-6 5,-11 11,-11l87 0c6,0 11,5 11,11l0 10z"/>
   <path class="fil13" d="M725 848c0,0 -15,2 -31,13 -3,2 -4,5 -4,8 2,16 10,66 37,115 1,3 2,6 1,8l-5 22 -9 8 22 0 15 -40 -6 -2c-5,-2 -8,-6 -8,-11l-1 -43c1,-19 -12,-32 -12,-32l35 -2 -35 -45z"/>
   <path class="fil14" d="M706 1026c-2,3 22,6 34,0 0,0 17,-29 17,-44 0,0 -1,-3 -11,-2 0,0 -6,34 -11,38 -6,4 -16,0 -16,0 0,0 -8,3 -11,7z"/>
   <path class="fil15" d="M755 895c0,0 -38,-5 -38,-5 0,0 1,11 -3,27 -4,16 -59,84 -59,84l6 18c-18,6 -36,7 -53,3l36 -22c0,0 34,-115 54,-135l38 -13 19 41z"/>
   <path class="fil16" d="M840 829c0,0 22,32 24,47 2,15 -6,21 -29,22 -23,1 -84,1 -84,1l-52 -44c0,0 38,-14 48,-17 10,-4 93,-8 93,-8z"/>
   <path class="fil17" d="M659 1015c0,0 6,6 2,13 0,0 -50,9 -63,5 0,0 3,-6 18,-14l-1 1c-1,1 -1,3 1,3 10,-1 31,-2 43,-8z"/>
   <path class="fil18" d="M741 675c0,3 27,115 27,115l77 23c15,4 31,-2 39,-15 21,-33 11,-76 -22,-96l-11 -7c-23,-15 -44,-34 -59,-57l-4 -6 -47 43z"/>
   <path class="fil19" d="M873 783c0,0 0,0 0,0 0,0 0,0 0,0 9,-6 10,-18 10,-23 0,-10 -3,-20 -8,-29 -9,-16 -25,-27 -40,-37l-3 -2c-15,-11 -32,-24 -39,-43 0,0 0,0 0,0 0,0 0,0 0,0 7,19 24,32 39,42l3 2c15,10 31,21 40,37 5,9 8,19 8,29 0,5 -1,18 -10,24 0,0 0,0 0,0z"/>
   <path class="fil20" d="M867 766l0 0c0,0 0,0 0,0 2,-10 2,-20 -1,-27 -5,-14 -17,-25 -28,-32 -2,-2 -4,-3 -6,-4 -10,-7 -20,-14 -27,-23 0,0 0,0 0,0 0,0 0,0 0,0 7,9 17,16 27,23 2,1 4,3 6,4 11,8 23,18 28,32 3,8 3,17 1,28 0,0 0,0 0,0z"/>
   <path class="fil21" d="M781 824c0,0 -25,-24 -38,-40 -7,-9 -9,-20 -6,-31 6,-19 16,-39 17,-42 1,-5 30,-5 30,-5 0,0 56,36 78,98l-25 8c0,0 -15,-24 -29,-40 0,0 25,33 26,46l-53 5z"/>
   <path class="fil22" d="M747 679c0,1 12,32 12,33 1,1 16,1 24,-4l-18 -36 -18 7z"/>
   <path class="fil23" d="M730 826l19 -18 26 11c0,0 26,4 40,0 15,-4 15,-4 15,-4l33 -10 5 15c1,4 0,8 -3,10 -3,2 -6,4 -8,5 -4,2 -108,-1 -108,-1l-18 -7z"/>
   <path class="fil24" d="M750 627c0,0 -13,7 -22,27 -8,20 -1,29 8,30 9,1 22,0 35,-14 13,-14 -4,-51 -22,-43z"/>
   <path class="fil25" d="M762 660c0,0 9,-30 -17,-29l-6 5c0,0 -10,-16 5,-24 15,-9 39,-3 46,18 8,21 5,34 -6,45 -10,11 -16,0 -16,0 0,0 5,-10 3,-15 -3,-5 -8,2 -8,2l-2 -1z"/>
   <path class="fil26" d="M762 665c0,0 12,-13 16,-4 4,9 -12,11 -18,12l2 -8z"/>
   <path class="fil27" d="M800 835c0,0 0,0 0,0l-108 0c-3,0 -5,-2 -5,-5 0,-3 2,-5 5,-5l108 0c3,0 5,2 5,5 0,3 -2,5 -5,5z"/>
   <path class="fil28" d="M595 736l90 0c7,0 13,4 16,10l42 88 -112 0c-4,0 -8,-3 -10,-7l-32 -82c-2,-5 2,-10 7,-10z"/>
   <path class="fil29" d="M658 782c2,6 1,12 -3,13 -4,1 -8,-3 -10,-9 -2,-6 -1,-12 3,-13 4,-1 8,3 10,9z"/>
   <path class="fil30" d="M923 1014c0,0 1,6 2,14 0,3 -2,6 -5,6 -11,1 -36,3 -52,1 -2,0 -3,-3 -1,-5 7,-6 23,-18 49,-21l9 5z"/>
   <path class="fil31" d="M929 1000l-6 14c-1,2 -3,3 -5,3 -1,0 -3,0 -5,-1 -3,-1 -5,-4 -4,-7l4 -14 15 6z"/>
   <path class="fil32" d="M1024 1025c0,0 -11,9 -16,21 -1,3 1,7 5,7l23 0c3,0 6,-3 5,-6 -1,-8 -6,-22 -18,-22z"/>
   <path class="fil33" d="M1038 1013c0,0 -2,10 -4,17 0,1 -2,2 -3,1 -3,-1 -6,-2 -8,-2 -1,0 -2,-1 -2,-2l0 -17 17 2z"/>
   <path class="fil34" d="M979 788l-68 208c0,0 13,9 19,8l81 -167c0,0 14,103 7,177l23 2c0,0 38,-189 9,-253l-72 26z"/>
   <path class="fil35" d="M1010 835l0 0c0,0 1,0 1,-1l-3 -21c0,0 0,-1 -1,-1 0,0 -1,0 -1,1l3 21c0,0 0,1 1,1z"/>
   <path class="fil21" d="M966 605c0,0 55,5 47,44 0,0 30,57 45,125 0,2 -1,4 -3,5l-92 16c-3,0 -5,-1 -6,-4l-22 -85 -9 39 -27 -7 23 -116c0,0 3,-17 43,-18z"/>
   <path class="fil36" d="M935 702c0,0 0,0 0,0 0,0 1,0 1,-1l-8 -35c0,0 0,-1 -1,-1 0,0 -1,0 -1,1l8 35c0,0 0,1 1,1z"/>
   <path class="fil37" d="M940 807c3,-2 6,-2 9,-1l6 2c1,0 3,-1 3,-2l7 -59c8,4 20,3 24,3l-15 69 -53 0 19 -12z"/>
   <path class="fil38" d="M799 679l2 -5c1,-3 3,-6 6,-7l29 -12c0,0 0,-4 -6,-6 -7,-3 -5,-10 -5,-10 0,0 9,4 22,11 8,4 12,10 14,15l66 80 -8 5c-10,7 -24,4 -30,-7l-36 -69c-18,5 -36,6 -54,4z"/>
   <path class="fil39" d="M948 567l17 47c0,0 -15,12 -26,8l-9 -27c0,0 7,-33 18,-28z"/>
   <path class="fil40" d="M897 550c0,1 16,46 16,46l26 -10 -9 -45c0,0 -33,-3 -33,9z"/>
   <path class="fil41" d="M926 552l7 24c0,0 0,1 0,1 0,2 0,9 -7,8 -6,-1 -12,-1 -15,0 -2,1 -2,3 -2,4 1,4 5,13 9,21 1,2 3,2 4,1 5,-2 15,-7 22,-13 1,-1 1,-2 1,-3 -1,-6 -5,-24 -5,-30 0,-5 5,-9 8,-10 1,0 1,-1 2,-2 1,-3 1,-10 -8,-12 -2,0 -3,-2 -3,-4 1,-4 1,-9 -7,-11 -7,-2 -12,2 -14,6 -1,1 -3,2 -4,1 -1,0 -2,0 -3,1 -2,1 -4,1 -5,-1 -2,-3 -6,-6 -13,-4 -12,4 -11,17 -7,25 4,7 17,3 23,-2 4,-4 11,-1 14,0 1,0 2,1 2,2z"/>
   <path class="fil42" d="M943 574c0,0 -7,-13 -2,-17 5,-4 12,-3 12,7 0,13 -10,10 -10,10z"/>
   <path class="fil36" d="M985 750c4,0 6,0 7,0l1 0 20 -94c0,0 0,-1 -1,-1 0,0 -1,0 -1,1l-20 93c-3,0 -19,1 -27,-5l17 -81 -4 -7c0,0 -1,0 -1,0 0,0 0,1 0,1l3 6 -17 82 0 0c6,5 16,5 22,5z"/>
   <path class="fil4" d="M870 832l106 0 0 -11 -106 0c2,0 2,11 0,11z"/>
   <path class="fil43" d="M976 832c0,0 0,0 0,0l0 -10c0,0 0,0 0,0l-109 0c0,0 0,0 0,0l0 -2c0,0 0,0 0,0l115 0c3,0 5,2 5,5l0 7c0,2 -2,4 -4,4l-116 0c0,0 0,0 0,0l0 -2c0,0 0,0 0,0l109 0z"/>
   <path class="fil12" d="M532 1041c0,0 -1,0 -1,0 -2,-1 -3,-3 -2,-5l73 -186c1,-2 3,-3 5,-2 2,1 3,3 2,5l-73 186c-1,1 -2,2 -3,2z"/>
   <path class="fil12" d="M614 1041c-1,0 -3,-1 -3,-2l-73 -186c-1,-2 0,-4 2,-5 2,-1 4,0 5,2l73 186c1,2 0,4 -2,5 0,0 -1,0 -1,0z"/>
   <path class="fil12" d="M881 1037c0,0 -1,0 -1,0 -2,-1 -3,-3 -2,-5l73 -186c1,-2 3,-3 5,-2 2,1 3,3 2,5l-73 186c-1,1 -2,2 -3,2z"/>
   <path class="fil12" d="M963 1037c-1,0 -3,-1 -3,-2l-73 -186c-1,-2 0,-4 2,-5 2,-1 4,0 5,2l73 186c1,2 0,4 -2,5 0,0 -1,0 -1,0z"/>
   <path class="fil12" d="M992 840c0,-1 0,-3 -1,-3 -1,-1 -2,-2 -4,-2l-486 0c-2,0 -4,1 -5,2 -1,1 -1,3 0,5l5 10c1,2 4,4 7,4l475 0c3,0 5,-2 5,-4l3 -12z"/>
   <path class="fil44" d="M1033 423c-1,0 -1,0 -2,-1 0,0 0,-1 0,-1 0,-2 -1,-5 -1,-7 0,-1 0,-2 2,-3 0,0 0,0 1,0 1,0 2,1 2,2 1,2 1,5 2,7 0,1 -1,2 -2,2 0,0 0,0 0,0zm-5 -18c-1,0 -1,0 -2,-1 0,0 0,0 0,0 -1,-2 -2,-4 -3,-6 -1,-1 0,-2 1,-3 0,0 1,0 1,0 1,0 2,0 2,1 1,2 2,4 3,7 0,1 0,2 -1,3 0,0 -1,0 -1,0zm-9 -16c-1,0 -1,0 -2,-1 -1,-2 -3,-4 -4,-5 0,0 0,0 0,0 -1,-1 0,-2 0,-3 0,0 1,-1 1,-1 1,0 1,0 2,1 2,2 3,4 4,6l0 0c1,1 0,2 -1,3 0,0 -1,0 -1,0z"/>
   <path class="fil45" d="M1006 375c-1,0 -1,0 -1,-1 -1,-1 -2,-2 -4,-3l0 -5c0,0 0,0 0,0 2,1 4,3 6,5 1,1 1,2 0,3 0,0 -1,1 -2,1z"/>
   <path class="fil46" d="M1001 371c-1,0 -1,-1 -2,-1 0,0 0,0 0,-1 -1,-1 -1,-2 0,-2 0,-1 1,-1 2,-1 0,0 1,0 1,0l0 5z"/>
   <path class="fil47" d="M897 373c-1,0 -1,0 -2,-1 0,0 0,0 0,0 -1,-1 0,-2 0,-3 2,-2 4,-3 6,-4 0,0 1,0 1,0 1,0 1,0 2,1l0 0c1,1 0,2 -1,3 -2,1 -4,3 -6,4 0,0 -1,1 -1,1z"/>
   <path class="fil46" d="M991 364c0,0 -1,0 -1,0 -2,-1 -4,-2 -6,-3 0,0 -1,0 -1,-1 0,-1 -1,-1 0,-2 0,-1 1,-1 2,-1 0,0 1,0 1,0 2,1 4,2 7,3 1,1 1,2 1,3 0,1 -1,1 -2,1z"/>
   <path class="fil47" d="M912 363c-1,0 -1,0 -2,-1 0,0 0,0 0,0 -1,-1 0,-2 1,-3 2,-1 4,-2 7,-3 0,0 1,0 1,0 1,0 2,1 2,1 0,1 0,2 -1,3 -2,1 -4,2 -6,3 0,0 -1,0 -1,0zm62 -6c0,0 0,0 -1,0 -2,-1 -4,-1 -7,-2 -1,0 -1,0 -1,-1 0,0 0,0 0,0l11 0c0,0 0,1 0,1 0,1 -1,2 -2,2z"/>
   <path class="fil48" d="M976 354l-11 0c0,0 0,-1 0,-1 0,-1 1,-2 2,-2 0,0 0,0 0,0 2,0 5,1 7,2 1,0 1,1 1,1z"/>
   <path class="fil49" d="M930 356c-1,0 -1,0 -2,-1 0,0 0,0 0,-1 0,0 0,0 0,-1l11 0c0,0 -1,1 -1,1 -2,0 -5,1 -7,1 0,0 0,0 -1,0z"/>
   <path class="fil50" d="M938 354l-11 0c0,-1 1,-2 2,-2 2,-1 5,-1 7,-2 0,0 0,0 0,0 1,0 2,1 2,2 0,1 0,1 -1,2zm17 0c0,0 0,0 0,0 -2,0 -3,0 -5,0 -1,0 -2,0 -2,0 0,0 0,0 0,0 -1,0 -1,0 -2,-1 0,0 0,-1 0,-1 0,-1 1,-2 2,-2 1,0 2,0 3,0 2,0 3,0 5,0 1,0 2,1 2,2 0,1 -1,2 -2,2z"/>
   <path class="fil51" d="M1034 438c0,0 0,0 0,0 -1,0 -1,0 -2,-1 0,0 0,-1 0,-1 0,-1 0,-2 0,-3 0,-1 1,-2 2,-2 0,0 0,0 0,0 1,0 2,1 2,2 0,1 0,2 0,4 0,1 -1,2 -2,2z"/>
   <path class="fil52" d="M1008 498c-1,0 -1,0 -2,-1 0,0 0,0 0,0 -1,-1 0,-2 0,-3 1,-1 2,-2 2,-2 0,0 1,-1 2,-1 1,0 1,0 2,1 1,1 1,2 0,3 -1,1 -2,2 -3,2 0,0 -1,1 -1,1z"/>
   <path class="fil53" d="M947 521c0,0 0,0 0,0 -2,0 -5,0 -7,-1 -1,0 -1,0 -2,-1 0,0 0,-1 0,-1 0,-1 1,-2 2,-2 0,0 0,0 0,0 2,0 5,0 7,1 1,0 2,1 2,2 0,1 -1,2 -2,2z"/>
   <path class="fil46" d="M966 519l0 -4c1,0 1,1 1,2 0,1 0,2 -1,2z"/>
   <path class="fil47" d="M959 520c-1,0 -1,0 -2,-1 0,0 0,-1 0,-1 0,-1 1,-2 2,-2 2,0 5,-1 7,-1 0,0 0,0 0,0 0,0 1,0 1,0l0 4c0,0 0,0 0,0 -2,0 -5,1 -7,1 0,0 0,0 0,0zm-30 -2c0,0 0,0 -1,0 -2,-1 -5,-1 -7,-2 0,0 -1,0 -1,-1 0,-1 0,-1 0,-2 0,-1 1,-1 2,-1 0,0 0,0 1,0 2,1 4,1 7,2 1,0 2,1 2,3 0,1 -1,2 -2,2z"/>
   <path class="fil46" d="M977 517c-1,0 -1,0 -2,-1 0,0 0,0 0,-1 0,-1 0,-2 1,-3 2,-1 4,-2 6,-2 0,0 1,0 1,0 1,0 2,0 2,1 0,1 0,2 -1,3 -2,1 -4,2 -7,3 0,0 0,0 -1,0z"/>
   <path class="fil47" d="M912 511c0,0 -1,0 -1,0 -2,-1 -4,-2 -6,-4 0,0 0,0 -1,-1 0,-1 -1,-2 0,-2 0,-1 1,-1 2,-1 0,0 1,0 1,0 2,1 4,2 6,3 1,1 1,2 1,3 0,1 -1,1 -2,1z"/>
   <path class="fil54" d="M993 509c0,0 0,0 0,0l0 -5c1,-1 2,-1 3,-2 1,0 1,-1 1,-1 0,0 1,0 1,0 1,0 1,0 2,1 1,1 0,2 0,3 -1,0 -1,1 -2,1 -1,1 -3,2 -4,3 0,0 -1,0 -1,0z"/>
   <path class="fil46" d="M993 509c-1,0 -1,0 -1,-1 0,0 0,0 0,0 -1,-1 0,-2 1,-3 0,0 1,0 1,-1l0 5z"/>
   <path class="fil47" d="M897 501c0,0 -1,0 -1,-1 -2,-2 -4,-3 -5,-5 0,0 0,0 0,0 -1,-1 0,-2 0,-3 0,0 1,-1 2,-1 1,0 1,0 2,1 2,2 3,3 5,5 1,1 1,2 0,3 0,1 -1,1 -2,1zm-13 -13c-1,0 -1,0 -2,-1 -1,-1 -2,-2 -2,-3 -1,-1 -1,-2 -2,-2 -1,-1 0,-2 1,-3 0,0 1,0 1,0 1,0 1,0 2,1 1,2 3,4 4,6 1,1 1,2 0,3 0,0 -1,0 -1,0zm-9 -16c-1,0 -1,0 -2,-1 0,0 0,0 0,0 -1,-2 -2,-4 -3,-7 0,-1 0,-2 1,-3 0,0 0,0 1,0 1,0 2,1 2,1 1,2 2,4 3,6 0,1 0,2 -1,3 0,0 -1,0 -1,0zm-6 -17c-1,0 -1,0 -2,-1 0,0 0,0 0,-1 -1,-2 -1,-5 -1,-7 0,-1 1,-2 2,-2 0,0 0,0 0,0 1,0 2,1 2,2 0,2 1,5 1,7 0,1 -1,2 -2,3 0,0 0,0 0,0z"/>
   <path class="fil47" d="M867 436c0,0 0,0 0,0 -1,0 -1,0 -2,-1 0,0 0,-1 0,-1 0,-1 0,-2 0,-4 0,-1 1,-2 2,-2 0,0 0,0 0,0 1,0 2,1 2,2 0,1 0,2 0,3 0,1 -1,2 -2,2z"/>
   <path class="fil12" d="M888 423c0,0 0,1 0,1l10 7c0,6 0,11 2,17l-8 9c0,0 0,1 0,1l7 13c0,0 1,1 1,1l12 -2c4,4 8,8 13,11l1 12c0,0 0,1 1,1l14 4c0,0 1,0 1,0l7 -10c6,0 11,0 17,-2l9 8c0,0 1,0 1,0l13 -7c0,0 1,-1 1,-1l-2 -12c4,-4 8,-8 11,-13l12 -1c0,0 1,0 1,-1l4 -14c0,0 0,-1 0,-1l-10 -7c0,-6 0,-11 -2,-17l8 -9c0,0 0,-1 0,-1l-7 -13c0,0 -1,-1 -1,-1l-12 2c-4,-4 -8,-8 -13,-11l-1 -12c0,0 0,-1 -1,-1l-14 -4c0,0 -1,0 -1,0l-7 10c-6,0 -11,0 -17,2l-9 -8c0,0 -1,0 -1,0l-13 7c0,0 -1,1 -1,1l2 12c-4,4 -8,8 -11,13l-12 1c0,0 -1,0 -1,1l-4 14z"/>
   <path class="fil2" d="M961 428c0,0 -1,-1 -1,-1 -4,-5 -11,-5 -16,-1 -5,4 -5,11 -1,16 4,5 11,5 16,1 2,-2 4,-5 4,-8 0,-2 -1,-5 -2,-7zm-22 15c-4,-6 -3,-14 2,-19 6,-6 15,-5 21,1 3,3 4,7 4,11 0,4 -2,8 -5,10 -6,6 -15,5 -21,-1 0,-1 -1,-1 -1,-2z"/>
   <path class="fil2" d="M922 455c-1,-1 -1,-2 -2,-3 0,0 0,-1 -1,-1 -1,-2 -2,-4 -2,-5l0 0c0,0 0,0 0,0 0,0 0,0 0,0 0,0 0,-1 0,-1 0,0 0,0 0,0 0,0 1,0 1,1 1,2 2,5 3,7 6,11 17,17 28,18 6,0 13,-1 19,-4 1,-1 2,-1 3,-2 7,-4 11,-11 14,-19 3,-9 2,-18 -3,-26 -9,-17 -30,-23 -47,-14 -1,1 -2,1 -3,2 -4,3 -8,7 -10,11 0,0 0,0 0,0 0,0 -1,0 -1,0 0,0 -1,-1 0,-1 3,-5 6,-8 11,-11 1,-1 2,-1 3,-2 18,-10 40,-3 49,15 5,8 6,18 3,28 -2,8 -7,15 -14,20 -1,1 -2,1 -3,2 -9,5 -18,6 -28,3 -8,-2 -15,-7 -20,-14z"/>
   <path class="fil55" d="M808 344c0,0 -1,0 -1,0 0,0 0,0 0,0 0,0 0,-1 0,-2 1,-1 1,-2 2,-3 0,0 1,0 1,0 0,0 1,0 1,0 1,1 1,1 0,2 -1,1 -1,2 -2,2 0,0 -1,0 -1,0z"/>
   <path class="fil47" d="M902 357c0,0 -1,0 -1,-1 0,0 0,0 0,0 0,-1 -1,-1 -1,-2l3 0c0,0 0,1 0,1 0,1 0,1 -1,2 0,0 0,0 -1,0z"/>
   <path class="fil56" d="M903 354l-3 0c-1,-1 -1,-2 -2,-3 0,0 0,-1 0,-1 0,-1 0,-1 0,-2 0,0 0,0 1,0 0,0 1,0 1,1 0,0 0,1 0,1 1,1 2,3 2,4zm-8 -9c0,0 -1,0 -1,-1 -1,-2 -3,-3 -4,-5 0,0 0,0 0,0 0,-1 0,-1 0,-2 0,0 1,0 1,0 0,0 1,0 1,0 2,2 3,3 5,5 0,1 0,1 0,2 0,0 -1,0 -1,0zm-80 -8c0,0 -1,0 -1,0 0,0 0,0 0,0 0,-1 0,-1 0,-2 1,-1 3,-2 5,-4 0,0 1,0 1,-1 0,0 0,0 1,0 0,0 1,0 1,1 0,1 0,1 0,2 0,0 -1,0 -1,1 -2,1 -3,2 -4,3 0,0 -1,0 -1,0zm70 -2c0,0 -1,0 -1,0 -2,-1 -4,-3 -6,-4 0,0 0,0 0,0 0,0 0,-1 0,-1 0,0 1,-1 1,-1 0,0 0,0 1,0 2,1 4,3 6,4 1,0 1,1 0,2 0,0 -1,1 -1,1zm-59 -6c0,0 -1,0 -1,-1 0,0 0,0 0,0 0,-1 0,-1 1,-2 2,-1 4,-2 7,-3 0,0 0,0 0,0 1,0 1,0 1,1 0,1 0,1 -1,2 -2,1 -4,2 -6,3 0,0 0,0 -1,0zm47 -1c0,0 0,0 -1,0 -2,-1 -4,-2 -6,-2 0,0 -1,0 -1,-1 0,0 0,-1 0,-1 0,-1 1,-1 1,-1 0,0 0,0 0,0 2,1 4,1 7,2 1,0 1,1 1,2 0,1 -1,1 -1,1zm-34 -3c0,0 -1,0 -1,-1 0,0 0,0 0,0 0,-1 0,-1 1,-2 2,0 5,-1 7,-1 0,0 0,0 0,0 1,0 1,1 1,1 0,1 0,1 -1,1 -2,0 -4,1 -7,1 0,0 0,0 0,0zm21 0c0,0 0,0 0,0 -2,0 -4,-1 -7,-1 0,0 -1,0 -1,-1 0,0 0,-1 0,-1 0,-1 1,-1 1,-1 0,0 0,0 0,0 2,0 5,0 7,1 1,0 1,1 1,2 0,1 -1,1 -1,1z"/>
   <path class="fil57" d="M852 436c0,0 -1,0 -1,-1 0,0 0,0 0,-1 0,-1 1,-1 1,-1 2,0 4,0 7,0 0,0 0,0 0,0 1,0 1,0 1,1 0,1 0,1 -1,1 -2,0 -5,0 -7,0 0,0 0,0 0,0zm-7 0c0,0 0,0 0,0 -2,0 -5,-1 -7,-1 0,0 -1,0 -1,-1 0,0 0,-1 0,-1 0,-1 1,-1 1,-1 0,0 0,0 0,0 2,1 4,1 7,1 1,0 1,1 1,1 0,1 -1,1 -1,1zm-13 -3c0,0 0,0 0,0 -2,-1 -4,-2 -6,-3 0,0 0,0 0,0 0,0 0,-1 0,-1 0,0 1,-1 1,-1 0,0 0,0 1,0 2,1 4,2 6,3 1,0 1,1 1,2 0,1 -1,1 -1,1zm-12 -6c0,0 -1,0 -1,0 -2,-1 -4,-3 -6,-4 0,0 0,0 0,0 0,0 0,-1 0,-2 0,0 1,0 1,0 0,0 1,0 1,0 2,1 3,3 5,4 1,0 1,1 0,2 0,0 -1,1 -1,1zm-10 -9c0,0 -1,0 -1,0 -2,-2 -3,-4 -4,-5l0 0c0,-1 0,-1 0,-2 0,0 1,0 1,0 0,0 1,0 1,1 1,2 3,4 4,5 0,1 0,1 0,2 0,0 -1,0 -1,0zm-8 -11c0,0 -1,0 -1,-1 0,0 0,0 0,0 -1,-2 -2,-4 -3,-6 0,-1 0,-1 1,-2 0,0 0,0 0,0 1,0 1,0 1,1 1,2 2,4 3,6 0,1 0,1 -1,2 0,0 0,0 -1,0zm-5 -13c0,0 -1,0 -1,-1 0,0 0,0 0,0 -1,-2 -1,-5 -1,-7 0,-1 0,-1 1,-1 0,0 0,0 0,0 1,0 1,0 1,1 0,2 1,4 1,7 0,1 0,1 -1,2 0,0 0,0 0,0z"/>
   <path class="fil58" d="M795 380c0,0 -1,0 -1,-1 0,0 0,0 0,-1 0,-1 0,-2 0,-3 0,-1 1,-1 1,-1 0,0 0,0 0,0 1,0 1,1 1,1 0,1 0,2 0,3 0,1 -1,1 -1,1z"/>
   <path class="fil12" d="M809 371c0,0 0,1 0,1l7 5c0,4 0,8 1,11l-6 6c0,0 0,1 0,1l5 9c0,0 0,0 1,0l8 -1c3,3 6,5 9,7l0 8c0,0 0,1 0,1l9 3c0,0 1,0 1,0l5 -7c4,0 8,0 11,-1l6 6c0,0 1,0 1,0l9 -5c0,0 0,0 0,-1l-1 -8c3,-3 5,-6 7,-9l8 0c0,0 1,0 1,0l3 -9c0,0 0,-1 0,-1l-7 -5c0,-4 0,-8 -1,-11l6 -6c0,0 0,-1 0,-1l-5 -9c0,0 0,0 -1,0l-8 1c-3,-3 -6,-5 -9,-7l0 -8c0,0 0,-1 0,-1l-9 -3c0,0 -1,0 -1,0l-5 7c-4,0 -8,0 -11,1l-6 -6c0,0 -1,0 -1,0l-9 5c0,0 0,0 0,1l1 8c-3,3 -5,6 -7,9l-8 0c0,0 -1,0 -1,0l-3 9z"/>
   <path class="fil2" d="M858 374c0,0 0,-1 -1,-1 -3,-3 -7,-3 -10,0 -1,1 -2,3 -2,5 0,2 1,4 2,5 1,1 3,2 5,2 2,0 4,-1 5,-2 3,-3 3,-7 1,-10zm-14 10c-1,-2 -2,-4 -2,-6 0,-3 1,-5 3,-7 4,-4 10,-3 14,1 4,4 3,10 -1,14 -2,2 -5,3 -7,3 -3,0 -5,-1 -7,-3 0,0 -1,-1 -1,-1z"/>
   <path class="fil2" d="M831 392c0,-1 -1,-1 -1,-2 -1,-2 -1,-3 -2,-5 0,0 0,0 0,0 0,-1 0,-1 1,-1 0,0 0,0 0,0 1,0 1,0 2,1 0,2 1,3 2,4l0 0c0,0 0,0 0,0 2,3 4,6 7,8 2,1 4,2 5,3l0 0c0,0 0,0 0,0 6,2 12,1 17,-2 1,0 1,-1 2,-1 4,-3 7,-7 9,-12 2,-6 1,-12 -2,-17 -3,-5 -8,-9 -13,-11 -6,-2 -12,-1 -17,2 -1,0 -1,1 -2,1 -3,2 -5,4 -7,7 0,0 0,0 0,0 0,0 -1,0 -1,0 -1,0 -1,-1 0,-2 2,-3 4,-6 7,-8 1,0 1,-1 2,-1 6,-3 13,-4 19,-2 6,2 12,6 15,12 3,6 4,13 2,19 -2,6 -5,10 -10,14 -1,0 -1,1 -2,1 -11,6 -25,3 -33,-8z"/>
   <path class="fil21" d="M185 364c0,-48 60,-87 134,-87 74,0 134,39 134,87 0,48 -60,87 -134,87 -9,0 -18,-1 -27,-2 -11,-2 -21,8 -20,20 1,11 4,20 7,26 1,3 -2,6 -5,4 -27,-15 -37,-43 -40,-62 -1,-5 -4,-9 -8,-12 -25,-16 -40,-38 -40,-62z"/>
   <path class="fil59" d="M228 1027c0,0 -2,12 -3,23 0,4 3,8 7,9 15,1 48,2 59,2 2,0 3,-2 2,-3 -1,-1 -2,-2 -3,-3l-53 -25 -9 -2z"/>
   <path class="fil60" d="M226 1020l2 14c0,0 9,4 16,0l-4 -15 -14 2z"/>
   <path class="fil61" d="M230 761c-1,4 -6,180 13,259 0,1 0,3 -2,3 -3,1 -9,3 -15,3 -2,0 -4,-1 -5,-3 -5,-18 -30,-110 -33,-198 -3,-98 0,-3 0,-3l3 -60 39 0z"/>
   <path class="fil62" d="M166 1032c0,0 -3,6 -7,21 -1,3 1,5 4,6 5,1 13,1 19,1 3,0 5,-2 5,-5 -1,-6 -3,-15 -9,-22l-12 -1z"/>
   <path class="fil63" d="M163 1015l4 21c0,0 4,3 11,1l-2 -22 -13 1z"/>
   <path class="fil64" d="M155 766c-16,93 1,229 7,256 0,2 2,3 3,3 3,0 7,1 12,0 2,0 3,-2 3,-3 1,-22 1,-154 16,-207 1,-3 2,-5 5,-7l28 -20 2 -32 -76 9z"/>
   <path class="fil21" d="M255 591c-46,-1 -97,11 -97,11 -15,80 -4,173 -4,173 36,10 76,-5 76,-5 6,-33 35,-128 35,-128 23,-3 41,-9 57,-17 -12,-14 -17,-31 -19,-41 -16,5 -33,7 -47,7z"/>
   <path class="fil65" d="M392 524c-4,-6 -10,-3 -10,-3 -7,29 -43,51 -80,62 2,10 8,27 19,41 61,-34 71,-101 71,-101z"/>
   <path class="fil66" d="M391 526c0,2 -5,4 -8,-2 0,-3 -2,-16 0,-18 10,-13 28,-29 28,-29 3,3 0,6 0,6l-9 9c2,3 4,6 5,10 1,3 0,6 -1,9 -2,3 -4,6 -6,9 -4,5 -9,5 -9,5z"/>
   <path class="fil67" d="M398 498l-8 7 -3 7 7 8c0,0 3,-13 4,-16 2,-3 1,-4 -1,-5z"/>
   <path class="fil21" d="M175 647l-17 -45c0,0 -43,29 -51,66 8,1 23,3 37,10 3,-17 31,-31 31,-31z"/>
   <path class="fil68" d="M212 689c0,0 -49,27 -65,3 -3,-5 -4,-10 -3,-14 -14,-7 -29,-10 -37,-10 -2,11 -1,23 5,35 28,53 106,-2 106,-2l-6 -12z"/>
   <path class="fil69" d="M209 553l-15 42c0,1 0,1 1,2 4,2 18,9 36,-2 2,-1 3,-3 3,-5l5 -37 -30 0z"/>
   <path class="fil70" d="M241 514c0,0 16,30 14,43 -2,12 -22,11 -39,1l-12 -33 38 -11z"/>
   <path class="fil71" d="M216 542c1,0 1,-1 1,-2 -1,-2 -4,-6 -4,-10 0,0 -3,-2 7,-4 10,-2 26,-6 29,-15 3,-8 -5,-30 -18,-13 -1,1 -1,1 -2,0 -2,-3 -8,-9 -16,-5 -7,3 -8,9 -8,11 0,1 -1,1 -1,1 -4,-1 -13,-1 -17,8 -4,8 -1,12 1,14 1,1 0,2 -1,2 -2,1 -6,3 -5,9 0,8 9,7 12,7 0,0 1,0 1,0 2,2 12,13 22,14 1,0 2,-1 1,-2l-4 -13c0,-1 0,-1 1,-2l2 -1z"/>
   <path class="fil72" d="M218 544c0,0 -11,-8 -12,-1 -1,7 10,10 16,7l-3 -6z"/>
   <path class="fil73" d="M202 732l26 -92c0,-1 1,-2 2,-2 5,-1 19,-2 35,-3 19,-2 42,-3 55,-2 2,0 3,2 2,4 -8,15 -39,78 -55,99 -1,1 -1,1 -2,1l-61 -1c-2,0 -3,-2 -3,-3z"/>
   <path class="fil74" d="M209 709c0,0 -4,-15 -2,-21 1,-5 4,-12 14,-11 10,2 21,6 21,6 0,0 -1,7 -8,5l5 4c0,0 -1,6 -7,3l4 5c0,0 -3,5 -7,2 -5,-3 -7,10 -20,9z"/>
   <path class="fil4" d="M264 661c0,4 3,8 8,8 4,0 8,-3 8,-8 0,-4 -3,-8 -8,-8 -4,0 -8,3 -8,8z"/>
   <path class="fil4" d="M232 666l-1 0 5 -18c1,-3 3,-5 6,-6 17,-4 63,-4 64,-4l0 1c0,0 -47,1 -64,4 -2,1 -4,2 -5,5l-5 18z"/>
  </g>
 </g>
</svg>
