<?xml version="1.0" encoding="UTF-8"?>
<!DOCTYPE svg PUBLIC "-//W3C//DTD SVG 1.1//EN" "http://www.w3.org/Graphics/SVG/1.1/DTD/svg11.dtd">
<!-- Creator: CorelDRAW 2021 (64 Bit) -->
<svg xmlns="http://www.w3.org/2000/svg" xml:space="preserve" width="1080px" height="1080px" version="1.1" style="shape-rendering:geometricPrecision; text-rendering:geometricPrecision; image-rendering:optimizeQuality; fill-rule:evenodd; clip-rule:evenodd"
viewBox="0 0 1080 1080"
 xmlns:xlink="http://www.w3.org/1999/xlink"
 xmlns:xodm="http://www.corel.com/coreldraw/odm/2003">
 <defs>
  <style type="text/css">
   <![CDATA[
    .fil1 {fill:#0096C7}
    .fil0 {fill:#DCE9FE}
    .fil2 {fill:#E3F7F9}
   ]]>
  </style>
 </defs>
 <g id="Camada_x0020_1">
  <metadata id="CorelCorpID_0Corel-Layer"/>
  <g id="_2274832990224">
   <path class="fil0" d="M500 698c-9,3 -108,108 -116,111 -41,18 -17,-73 -25,-111 -17,-1 -34,2 -50,-5 -51,-21 -39,-77 -39,-130 0,-75 0,-149 0,-224 0,-88 82,-70 154,-70 34,0 317,-3 336,1 29,6 49,29 50,62 2,74 0,151 0,226 0,29 4,82 -7,105 -6,11 -17,22 -28,27 -17,8 -30,6 -50,6 -75,0 -150,0 -226,0zm-500 -503l0 692c0,39 16,81 37,109 36,50 93,85 157,85l692 0c41,0 91,-20 121,-46l24 -24c27,-31 49,-78 49,-122l0 -694c0,-48 -26,-103 -58,-136 -32,-32 -87,-58 -136,-58l-692 0c-30,0 -58,9 -78,19 -12,6 -20,10 -31,18 -23,17 -21,17 -37,34 -13,15 -20,28 -29,45 -10,20 -19,48 -19,78z"/>
   <path class="fil1" d="M600 596c-16,-16 -12,-19 -16,-43 -22,-15 -42,-29 -63,-42 -35,11 -18,8 -49,2 -8,6 -15,12 -24,19 -6,5 -16,14 -23,17 1,18 3,40 -22,54 -46,25 -88,-36 -55,-69 18,-18 30,-17 57,-10 4,-6 14,-12 19,-16 41,-33 22,-15 26,-42 4,-28 37,-48 66,-32 16,9 24,23 23,49l64 44 26 -8 36 -80c-5,-9 -11,-14 -12,-28 -3,-35 34,-60 65,-44 38,19 34,80 -21,85 -47,109 -34,67 -24,99 14,46 -42,77 -72,47zm-100 102c75,0 150,0 226,0 19,0 33,2 50,-6 11,-5 22,-16 28,-27 11,-23 7,-76 7,-105 0,-74 2,-152 0,-226 -1,-33 -21,-56 -50,-62 -20,-4 -302,-1 -336,-1 -72,0 -154,-18 -154,70 0,75 0,149 0,224 0,52 -12,109 39,130 16,6 33,4 50,5 8,38 -16,128 25,111 8,-3 107,-108 116,-111z"/>
   <path class="fil2" d="M665 437l-36 80 -26 8 -64 -44c1,-25 -7,-40 -23,-49 -29,-16 -62,5 -66,32 -4,26 15,9 -26,42 -5,4 -15,10 -19,16 -27,-8 -39,-9 -57,10 -33,33 9,94 55,69 25,-13 23,-36 22,-54 6,-3 16,-12 23,-17 9,-7 15,-13 24,-19 31,6 14,9 49,-2 22,14 41,27 63,42 4,24 0,27 16,43 30,30 87,-1 72,-47 -10,-32 -23,11 24,-99 54,-5 59,-66 21,-85 -31,-16 -67,9 -65,44 1,14 7,19 12,28z"/>
  </g>
 </g>
</svg>
