<?xml version="1.0" encoding="UTF-8"?>
<!DOCTYPE svg PUBLIC "-//W3C//DTD SVG 1.1//EN" "http://www.w3.org/Graphics/SVG/1.1/DTD/svg11.dtd">
<!-- Creator: CorelDRAW 2021 (64 Bit) -->
<svg xmlns="http://www.w3.org/2000/svg" xml:space="preserve" width="1080px" height="1080px" version="1.1" style="shape-rendering:geometricPrecision; text-rendering:geometricPrecision; image-rendering:optimizeQuality; fill-rule:evenodd; clip-rule:evenodd"
viewBox="0 0 1080 1080"
 xmlns:xlink="http://www.w3.org/1999/xlink"
 xmlns:xodm="http://www.corel.com/coreldraw/odm/2003">
 <defs>
  <style type="text/css">
   <![CDATA[
    .fil1 {fill:#0096C7}
    .fil2 {fill:#4E51FD}
    .fil0 {fill:#DCE9FE}
    .fil3 {fill:#FFF7DC}
   ]]>
  </style>
 </defs>
 <g id="Camada_x0020_1">
  <metadata id="CorelCorpID_0Corel-Layer"/>
  <g id="_2275186350224">
   <path class="fil0" d="M0 194l0 692c0,30 9,58 19,78 34,67 98,116 175,116l692 0c50,0 100,-25 135,-57 13,-12 32,-41 40,-57 10,-19 20,-50 20,-77l0 -694c0,-48 -26,-103 -58,-136l-27 -22c-11,-8 -19,-12 -31,-18 -20,-10 -48,-19 -78,-19l-692 0c-42,0 -92,20 -122,47l-24 24c-27,31 -48,79 -48,123z"/>
   <path class="fil1" d="M425 674l231 1c12,-57 43,-69 64,-110 72,-141 -32,-294 -179,-294 -151,0 -249,156 -180,293 24,48 51,51 64,111z"/>
   <path class="fil2" d="M653 709l-227 0c2,36 -1,68 22,86 24,20 55,15 92,15 37,0 65,5 91,-14 24,-18 21,-50 22,-87z"/>
   <path class="fil3" d="M523 406c-45,10 -51,63 -19,86 15,10 23,8 42,9 16,1 21,16 11,25 -9,7 -34,3 -47,3 -15,0 -32,4 -26,22 5,14 22,11 38,12 0,17 -5,43 15,45 23,2 19,-25 19,-42 2,-10 15,-2 29,-21 16,-22 12,-52 -11,-69 -14,-10 -26,-7 -44,-9 -19,-2 -17,-23 -5,-27 18,-6 88,12 74,-25 -5,-14 -26,-10 -43,-10 -1,-19 5,-45 -17,-45 -22,0 -17,26 -17,46z"/>
  </g>
 </g>
</svg>
