<?xml version="1.0" encoding="UTF-8"?>
<!DOCTYPE svg PUBLIC "-//W3C//DTD SVG 1.1//EN" "http://www.w3.org/Graphics/SVG/1.1/DTD/svg11.dtd">
<!-- Creator: CorelDRAW 2021 (64 Bit) -->
<svg xmlns="http://www.w3.org/2000/svg" xml:space="preserve" width="1080px" height="1080px" version="1.1" style="shape-rendering:geometricPrecision; text-rendering:geometricPrecision; image-rendering:optimizeQuality; fill-rule:evenodd; clip-rule:evenodd"
viewBox="0 0 1080 1080"
 xmlns:xlink="http://www.w3.org/1999/xlink"
 xmlns:xodm="http://www.corel.com/coreldraw/odm/2003">
 <defs>
  <style type="text/css">
   <![CDATA[
    .fil2 {fill:#0096C7}
    .fil1 {fill:#4E51FD}
    .fil0 {fill:#DCE9FE}
   ]]>
  </style>
 </defs>
 <g id="Camada_x0020_1">
  <metadata id="CorelCorpID_0Corel-Layer"/>
  <g id="_2275269965664">
   <path class="fil0" d="M0 194l0 692c0,30 9,58 19,78 34,67 98,116 175,116l692 0c50,0 100,-25 135,-57 13,-12 32,-41 40,-57 10,-19 20,-50 20,-77l0 -694c0,-48 -26,-103 -58,-136l-27 -22c-11,-8 -19,-12 -31,-18 -20,-10 -48,-19 -78,-19l-692 0c-42,0 -92,20 -122,47l-24 24c-27,31 -48,79 -48,123z"/>
   <path class="fil1" d="M342 436c4,14 -13,-1 17,30l52 52c31,31 16,13 31,18 6,18 8,92 47,29 7,-11 14,-27 18,-41 5,-18 5,-32 8,-51 1,-9 14,-19 26,-33 32,-37 76,-120 65,-166 -41,-20 -147,38 -185,78 -17,19 -7,7 -52,16 -23,5 -93,31 -79,53 5,8 40,11 52,15z"/>
   <path class="fil2" d="M721 435c-10,36 -49,86 -74,113 -59,65 -156,109 -247,128 -27,5 -54,9 -81,11 -12,1 -34,-1 -42,5 -11,9 -6,26 7,29 29,7 136,-14 164,-23 99,-29 170,-69 235,-140 23,-25 40,-52 57,-82 5,-9 11,-26 16,-32 11,1 30,10 40,8 15,-2 18,-17 10,-29 -40,-66 -31,-74 -73,-49 -10,6 -20,11 -31,18 -9,5 -23,13 -15,28 6,11 23,9 34,16z"/>
   <path class="fil1" d="M751 497c-20,9 -14,38 -14,75 0,25 -2,214 2,224 4,10 16,19 30,13 21,-8 14,-50 14,-74 0,-25 2,-214 -1,-224 -3,-11 -16,-19 -30,-13z"/>
   <path class="fil2" d="M274 606c18,4 71,-19 88,-27 28,-15 39,-50 12,-76 -27,-26 -62,-10 -76,17 -9,17 -32,70 -24,87z"/>
   <path class="fil1" d="M619 654c-18,5 -18,14 -17,34l0 101c1,14 13,25 29,20 24,-7 15,-59 15,-85 0,-19 9,-81 -28,-70z"/>
   <path class="fil1" d="M484 721c-22,7 -17,22 -17,51 0,11 -1,21 5,28 5,6 14,12 25,8 19,-6 15,-30 15,-51 0,-17 -2,-44 -28,-36z"/>
   <path class="fil1" d="M349 755c-16,5 -19,15 -17,33 1,14 13,25 29,20 25,-8 20,-63 -12,-54z"/>
  </g>
 </g>
</svg>
