<?xml version="1.0" encoding="utf-8"?>
<!-- Generator: Adobe Illustrator 25.4.1, SVG Export Plug-In . SVG Version: 6.00 Build 0)  -->
<svg version="1.1" id="Camada_1" xmlns="http://www.w3.org/2000/svg" xmlns:xlink="http://www.w3.org/1999/xlink" x="0px" y="0px"
	 viewBox="0 0 169.8 45.6" style="enable-background:new 0 0 169.8 45.6;" xml:space="preserve">
<style type="text/css">
	.st0{fill-rule:evenodd;clip-rule:evenodd;fill:#008FC7;}
	.st1{fill:#FFFFFF;}
</style>
<polygon class="st0" points="7.5,7.4 1.7,12.1 0,22.4 3,29.6 1.3,36.2 2.2,37.2 4.6,37.7 4.6,40 6.4,40.1 6.4,41.9 8.3,41.9 
	9.2,44.8 11.7,45.6 15.4,43.4 19.6,44.4 17.8,36.7 10.1,32.3 10.1,24.4 8.5,25.3 3.7,22.5 3.7,16.9 7.5,14.6 7.5,14.6 "/>
<polygon class="st0" points="15,3.3 12,5.1 8.9,6.8 8.9,10.3 8.9,13.8 12,15.6 15,17.3 18,15.6 21.1,13.8 21.1,10.3 21.1,6.8 
	18,5.1 "/>
<path class="st0" d="M17.8,22.8l4.4,2.6v5.1L17.8,33l-4.4-2.6v-5.1L17.8,22.8z M17.8,20.7l-3.1,1.8l-3.1,1.8v3.6v3.6l3.1,1.8
	l3.1,1.8l3.1-1.8l3.1-1.8v-3.6v-3.6l-3.1-1.8L17.8,20.7z"/>
<polygon class="st0" points="26.8,7.7 25.4,8.5 23.9,9.4 23.9,11 23.9,12.6 25.4,13.4 26.8,14.3 28.2,13.4 29.6,12.6 29.6,11 
	29.6,9.4 28.2,8.5 "/>
<polygon class="st0" points="31.5,19.4 30.2,20.2 28.8,21 28.8,22.6 28.8,24.2 30.2,25 31.5,25.8 32.9,25 34.3,24.2 34.3,22.6 
	34.3,21 32.9,20.2 "/>
<polygon class="st0" points="24.2,3 23.4,3.5 22.5,4 22.5,5 22.5,6 23.4,6.5 24.2,7 25.1,6.5 26,6 26,5 26,4 25.1,3.5 "/>
<polygon class="st0" points="25.4,32.3 24.3,33 23.2,33.6 23.2,34.8 23.2,36.1 24.3,36.7 25.4,37.4 26.5,36.7 27.6,36.1 27.6,34.8 
	27.6,33.6 26.5,33 "/>
<polygon class="st0" points="8.5,15.3 6.7,16.4 4.8,17.5 4.8,19.7 4.8,21.8 6.7,22.9 8.5,24 10.4,22.9 12.3,21.8 12.3,19.7 
	12.3,17.5 10.4,16.4 "/>
<polygon class="st0" points="23.9,13.9 22,15 20.2,16 20.2,18.2 20.2,20.4 22,21.5 23.9,22.6 25.8,21.5 27.7,20.4 27.7,18.2 
	27.7,16 25.8,15 "/>
<polygon class="st0" points="7.5,2 6.6,2.5 5.8,3 5.8,4 5.8,5 6.6,5.5 7.5,6 8.4,5.5 9.2,5 9.2,4 9.2,3 8.4,2.5 "/>
<path class="st1" d="M42.8,23c0.5,0.2,1,0.4,1.8,0.5c0.7,0.1,1.4,0.2,2.2,0.2c0.8,0,1.4,0,2,0c0.2,0,0.5,0,0.8,0c0.3,0,0.6,0,0.8,0
	c0.6,0,1.1-0.1,1.6-0.2c0.4-0.1,0.8-0.3,1-0.6c0.2-0.3,0.3-0.7,0.3-1.2c0-0.6-0.2-1-0.5-1.2s-0.9-0.3-1.6-0.3c-0.2,0-0.5,0-0.8,0
	c-0.3,0-0.6,0-1,0c-0.4,0-0.9,0-1.5,0c-0.6,0-1.2,0-1.8-0.1c-0.6-0.1-1.1-0.2-1.6-0.4c-0.5-0.2-0.9-0.6-1.2-1
	c-0.3-0.5-0.4-1.1-0.4-2c0-1,0.2-1.8,0.5-2.3c0.3-0.6,0.8-1,1.5-1.3c0.6-0.3,1.4-0.5,2.2-0.5c0.9-0.1,1.8-0.1,2.8-0.1
	c0.6,0,1.3,0,2,0c0.7,0,1.4,0.1,2.1,0.1c0.6,0.1,1.1,0.1,1.5,0.3c0.5,0,0.9,0.2,1.2,0.4c0.3,0.3,0.4,0.6,0.4,1c0,0.1,0,0.2,0,0.3
	c0,0.2,0,0.3,0,0.5c0,0.2,0,0.2,0,0.3c-0.2-0.2-0.4-0.3-0.8-0.4c-0.4-0.1-0.9-0.2-1.4-0.2c-0.5,0-1-0.1-1.6-0.1c-0.5,0-1,0-1.3,0
	h-2.3c-0.6,0-1.1,0-1.5,0.1c-0.4,0.1-0.8,0.3-1,0.5c-0.2,0.3-0.4,0.6-0.4,1.2c0,0.4,0.1,0.7,0.2,0.9c0.2,0.2,0.4,0.4,0.7,0.4
	c0.3,0.1,0.7,0.1,1.2,0.1c1,0,1.9,0,2.5,0c0.7,0,1.1,0,1.4,0c0.9,0,1.7,0.1,2.4,0.2c0.7,0.2,1.2,0.5,1.6,1c0.4,0.5,0.6,1.3,0.6,2.4
	c0,1-0.2,1.9-0.6,2.5c-0.4,0.6-1,1.1-1.8,1.3c-0.7,0.3-1.6,0.4-2.6,0.5c-0.7,0.1-1.5,0.1-2.2,0.1c-0.7,0-1.4,0-2.2,0
	c-0.7,0-1.3,0-1.9-0.1c-0.6,0-1.2-0.1-1.7-0.2c-0.5-0.1-0.9-0.3-1.2-0.5c-0.3-0.2-0.4-0.5-0.4-0.8V23z"/>
<path class="st1" d="M61.3,25.7c-0.5,0-0.9-0.1-1.1-0.2C60.1,25.3,60,25,60,24.4v-9.4c0.2-0.1,0.6-0.2,1-0.3
	c0.4-0.1,0.9-0.2,1.3-0.3c0.5-0.1,1-0.2,1.6-0.2c0.6-0.1,1.1-0.1,1.7-0.1c0.7,0,1.4,0.1,1.9,0.2c0.5,0.1,1,0.3,1.3,0.6
	c0.4,0.3,0.7,0.7,1,1.3h-0.5c0.2-0.4,0.4-0.8,0.7-1.1c0.3-0.3,0.7-0.5,1.1-0.6c0.4-0.1,0.8-0.2,1.3-0.3c0.4-0.1,0.8-0.1,1.1-0.1
	c1.2,0,2.2,0.1,2.9,0.3c0.7,0.2,1.2,0.6,1.5,1.1c0.3,0.5,0.5,1.3,0.5,2.3v6.5c0,0.5-0.1,0.8-0.3,1c-0.2,0.1-0.5,0.2-1,0.2h-2.2
	c0-1.3,0-2.6,0-3.9c0-1.3,0-2.6,0-3.9c0-0.8-0.2-1.3-0.5-1.6c-0.3-0.3-0.8-0.4-1.5-0.4c-0.3,0-0.6,0-0.9,0.1
	c-0.3,0.1-0.6,0.2-0.8,0.4C71.1,16.6,71,16.8,71,17v8.8h-3.5v-8.3c0-0.5-0.2-0.8-0.5-1.1c-0.4-0.2-0.8-0.4-1.4-0.4
	c-0.4,0-0.7,0-1,0.1c-0.3,0-0.5,0.1-0.7,0.2c-0.2,0.1-0.3,0.2-0.3,0.4v9H61.3z"/>
<path class="st1" d="M86.6,24.4c0.7,0,1.2,0,1.6,0c0.4,0,0.8-0.1,1-0.2c0.3-0.1,0.5-0.2,0.6-0.3v-3.6c-0.2-0.1-0.5-0.1-0.9-0.2
	c-0.4,0-0.8-0.1-1.2-0.1c-0.4,0-0.8,0-1.1,0c-0.6,0-1,0-1.4,0.1c-0.4,0.1-0.6,0.3-0.8,0.6c-0.2,0.3-0.2,0.8-0.2,1.4
	c0,0.5,0.1,0.9,0.2,1.3s0.3,0.6,0.7,0.7C85.5,24.3,86,24.4,86.6,24.4 M86.7,25.9c-1.3,0-2.3,0-3.1-0.1c-0.8-0.1-1.4-0.3-1.8-0.5
	c-0.4-0.3-0.7-0.6-0.9-1.1c-0.2-0.5-0.2-1-0.2-1.8c0-1,0.1-1.7,0.3-2.2c0.2-0.5,0.6-0.9,1.1-1c0.5-0.2,1.2-0.3,2.1-0.3
	c0.5,0,1,0,1.6,0c0.6,0,1.2,0,1.8,0c0.6,0,1.1,0.1,1.5,0.1c0.4,0,0.7,0.1,0.9,0.1c0-0.7-0.1-1.2-0.2-1.6c-0.1-0.4-0.3-0.7-0.6-0.9
	c-0.3-0.2-0.6-0.3-1-0.4c-0.4-0.1-0.9-0.1-1.5-0.1c-0.7,0-1.3,0-2,0c-0.7,0-1.3,0.1-1.9,0.1c-0.6,0.1-1.1,0.2-1.5,0.3v-0.7
	c0-0.5,0.1-0.8,0.3-1c0.2-0.2,0.5-0.4,0.9-0.4c0.4-0.1,1-0.2,1.9-0.2c0.8,0,1.7-0.1,2.6-0.1c1.2,0,2.2,0.1,3,0.2
	c0.8,0.1,1.5,0.3,1.9,0.7c0.5,0.3,0.8,0.8,1,1.5c0.2,0.7,0.3,1.5,0.3,2.7V25c-0.2,0.3-0.9,0.6-2,0.7C90.2,25.8,88.6,25.9,86.7,25.9z
	"/>
<path class="st1" d="M99.4,25.7h-2.4c-0.4,0-0.6-0.1-0.8-0.3c-0.2-0.2-0.3-0.5-0.3-1.1v-9.5c0.5-0.1,1.2-0.3,2.1-0.4
	c0.9-0.2,2-0.2,3.2-0.2c1.2,0,2.2,0.1,2.9,0.2c0.7,0.2,1.2,0.4,1.6,0.7c0.3,0.3,0.6,0.7,0.6,1.1c0.1,0.4,0.1,1,0.1,1.6h-3.3v-0.4
	c0-0.5-0.1-0.8-0.3-1c-0.2-0.2-0.4-0.3-0.7-0.4c-0.3,0-0.6-0.1-0.9-0.1c-0.4,0-0.8,0-1.1,0.1c-0.3,0.1-0.6,0.2-0.8,0.4V25.7z"/>
<path class="st1" d="M112.4,25.9c-0.9,0-1.6-0.1-2.1-0.3c-0.5-0.2-0.9-0.5-1.1-1c-0.2-0.5-0.3-1.1-0.3-1.9v-6.5h-1.2v-1.8h1.2v-1.7
	c0-0.4,0-0.7,0.1-0.9c0.1-0.2,0.2-0.3,0.4-0.4c0.2-0.1,0.5-0.1,0.8-0.1h2.2c0,0.1,0,0.1,0,0.3c0,0.1,0,0.3,0,0.5v2.3h2.8v1.8h-2.7
	v6.2c0,0.7,0.1,1.3,0.2,1.6c0.1,0.3,0.5,0.5,1.1,0.5c0.2,0,0.4,0,0.7-0.1c0.3,0,0.4-0.1,0.5-0.1v1.3c-0.1,0-0.4,0.1-0.9,0.1
	C113.7,25.8,113.1,25.9,112.4,25.9"/>
<path class="st1" d="M118.5,25.7c-0.6,0-0.9-0.1-1.1-0.2c-0.1-0.2-0.2-0.5-0.2-0.9V11.2h3.5v3.4c0.2-0.1,0.5-0.1,0.8-0.2
	c0.4,0,0.7-0.1,1.1-0.1c0.4,0,0.8,0,1.1,0c1.2,0,2.2,0.1,3,0.3c0.8,0.2,1.3,0.5,1.7,0.9c0.4,0.4,0.6,0.9,0.7,1.6
	c0.1,0.6,0.2,1.4,0.2,2.3v4.8c0,0.5,0,0.8-0.1,1c-0.1,0.2-0.2,0.4-0.4,0.4c-0.2,0.1-0.6,0.1-1,0.1H126v-6.9c0-0.8-0.1-1.4-0.3-1.8
	c-0.2-0.4-0.5-0.7-0.9-0.8c-0.4-0.1-1-0.2-1.6-0.2c-0.2,0-0.5,0-0.8,0c-0.3,0-0.6,0.1-0.9,0.1c-0.3,0-0.5,0.1-0.7,0.2v9.4H118.5z"/>
<path class="st1" d="M133.8,12.8c-0.6,0-1-0.1-1.2-0.2c-0.2-0.1-0.4-0.4-0.4-0.8c0-0.4,0.1-0.7,0.4-0.8c0.3-0.2,0.7-0.2,1.2-0.2
	c0.6,0,1,0.1,1.2,0.2c0.2,0.1,0.3,0.4,0.3,0.8c0,0.4-0.1,0.7-0.3,0.8C134.8,12.7,134.4,12.8,133.8,12.8 M135,25.9
	c-1.1,0-1.9-0.2-2.3-0.7c-0.4-0.5-0.6-1.3-0.6-2.3v-8.5h3.5v8.4c0,0.7,0.1,1.1,0.3,1.4c0.2,0.3,0.5,0.4,0.9,0.4c0.2,0,0.4,0,0.6-0.1
	c0.2,0,0.3-0.1,0.4-0.1v1.3c-0.1,0-0.2,0-0.4,0.1c-0.2,0-0.5,0.1-0.8,0.1C136.1,25.8,135.6,25.9,135,25.9z"/>
<path class="st1" d="M140.3,25.7c-0.6,0-0.9-0.3-0.9-1V15c0.6-0.2,1.4-0.4,2.5-0.6c1.1-0.2,2.2-0.2,3.5-0.2c1.4,0,2.4,0.1,3.2,0.2
	c0.8,0.2,1.4,0.4,1.8,0.8c0.4,0.4,0.7,0.8,0.8,1.4c0.1,0.6,0.2,1.3,0.2,2.2v5.5c0,0.3,0,0.6-0.1,0.8s-0.2,0.3-0.4,0.4
	c-0.2,0.1-0.5,0.1-0.9,0.1l-2.1,0v-7.7c0-0.7-0.2-1.2-0.6-1.5c-0.4-0.3-1-0.5-1.9-0.5c-0.3,0-0.6,0-0.9,0.1c-0.3,0-0.6,0.1-0.9,0.2
	c-0.3,0.1-0.5,0.2-0.7,0.3v9H140.3z"/>
<path class="st1" d="M154.1,25.7l0-13.3c0-0.5,0.1-0.8,0.2-1c0.2-0.2,0.5-0.3,1-0.3h2.3v8.2L162,15c0.3-0.3,0.6-0.5,0.9-0.6
	c0.3-0.1,0.8-0.2,1.4-0.2c0.5,0,0.9,0,1.3,0c0.4,0,0.8,0,1.1,0.1c-0.1,0.1-0.2,0.2-0.4,0.3c-0.2,0.2-0.4,0.3-0.7,0.5
	c-0.2,0.2-0.5,0.3-0.7,0.5l-3.6,3.3l5.1,5.5c0.2,0.2,0.5,0.5,0.7,0.7c0.2,0.2,0.5,0.4,0.7,0.6c-0.7,0-1.3,0-1.9,0
	c-0.6,0-1.2,0-1.8,0c-0.6,0-1-0.1-1.2-0.2c-0.3-0.1-0.5-0.3-0.8-0.6l-3.2-3.5l-1.2,0.8v3.5H154.1z"/>
<polygon class="st1" points="49.1,29.8 46.8,29.8 46.8,29.2 52.2,29.2 52.2,29.8 49.8,29.8 49.8,35.9 49.1,35.9 "/>
<path class="st1" d="M54.6,31.4c-0.5,0-0.9,0.2-1.2,0.5c-0.3,0.3-0.5,0.7-0.6,1.2h3.6c0-0.5-0.2-0.9-0.6-1.2
	C55.5,31.5,55.1,31.4,54.6,31.4 M57,33.6h-4.2c0,0.5,0.2,0.9,0.6,1.3c0.4,0.3,0.8,0.5,1.4,0.5c0.3,0,0.6-0.1,0.9-0.2
	c0.3-0.1,0.5-0.3,0.7-0.5l0.4,0.4c-0.2,0.3-0.5,0.5-0.8,0.6c-0.3,0.1-0.7,0.2-1.1,0.2c-0.5,0-1-0.1-1.4-0.3
	c-0.4-0.2-0.7-0.5-0.9-0.9c-0.2-0.4-0.3-0.8-0.3-1.3c0-0.5,0.1-0.9,0.3-1.3c0.2-0.4,0.5-0.7,0.9-0.9c0.4-0.2,0.8-0.3,1.3-0.3
	c0.5,0,0.9,0.1,1.3,0.3c0.4,0.2,0.7,0.5,0.9,0.9c0.2,0.4,0.3,0.8,0.3,1.3L57,33.6z"/>
<path class="st1" d="M60.5,35.9c-0.5,0-0.9-0.1-1.3-0.3c-0.4-0.2-0.7-0.5-0.9-0.9c-0.2-0.4-0.3-0.8-0.3-1.3c0-0.5,0.1-0.9,0.3-1.3
	c0.2-0.4,0.5-0.7,0.9-0.9c0.4-0.2,0.8-0.3,1.3-0.3c0.4,0,0.8,0.1,1.2,0.3c0.3,0.2,0.6,0.4,0.8,0.7L62,32.1c-0.2-0.2-0.4-0.4-0.6-0.6
	c-0.3-0.1-0.5-0.2-0.8-0.2c-0.4,0-0.7,0.1-1,0.2c-0.3,0.2-0.5,0.4-0.7,0.7c-0.2,0.3-0.2,0.6-0.2,1c0,0.4,0.1,0.7,0.2,1
	c0.2,0.3,0.4,0.5,0.7,0.7c0.3,0.2,0.6,0.2,1,0.2c0.3,0,0.6-0.1,0.8-0.2c0.3-0.1,0.5-0.3,0.6-0.6l0.5,0.3c-0.2,0.3-0.5,0.6-0.8,0.7
	C61.3,35.8,60.9,35.9,60.5,35.9"/>
<path class="st1" d="M66.4,30.8c0.6,0,1.1,0.2,1.5,0.6c0.4,0.4,0.6,0.9,0.6,1.6v2.9h-0.7V33c0-0.5-0.1-0.9-0.4-1.2
	c-0.3-0.3-0.6-0.4-1.1-0.4c-0.5,0-1,0.2-1.3,0.5c-0.3,0.3-0.5,0.8-0.5,1.3v2.6h-0.7v-5h0.7v0.9c0.2-0.3,0.4-0.5,0.8-0.7
	C65.6,30.9,65.9,30.8,66.4,30.8"/>
<path class="st1" d="M72.4,35.3c0.4,0,0.7-0.1,1-0.2c0.3-0.2,0.5-0.4,0.7-0.7c0.2-0.3,0.2-0.6,0.2-1c0-0.4-0.1-0.7-0.2-1
	s-0.4-0.5-0.7-0.7c-0.3-0.2-0.6-0.2-1-0.2c-0.4,0-0.7,0.1-1,0.2c-0.3,0.2-0.5,0.4-0.7,0.7c-0.2,0.3-0.2,0.6-0.2,1
	c0,0.4,0.1,0.7,0.2,1c0.2,0.3,0.4,0.5,0.7,0.7C71.7,35.2,72,35.3,72.4,35.3 M72.4,35.9c-0.5,0-0.9-0.1-1.3-0.3
	c-0.4-0.2-0.7-0.5-0.9-0.9c-0.2-0.4-0.3-0.8-0.3-1.3c0-0.5,0.1-0.9,0.3-1.3c0.2-0.4,0.5-0.7,0.9-0.9c0.4-0.2,0.8-0.3,1.3-0.3
	c0.5,0,0.9,0.1,1.3,0.3c0.4,0.2,0.7,0.5,0.9,0.9c0.2,0.4,0.3,0.8,0.3,1.3c0,0.5-0.1,0.9-0.3,1.3c-0.2,0.4-0.5,0.7-0.9,0.9
	C73.3,35.8,72.9,35.9,72.4,35.9z"/>
<rect x="76.3" y="28.8" class="st1" width="0.7" height="7.1"/>
<path class="st1" d="M80.9,35.3c0.4,0,0.7-0.1,1-0.2c0.3-0.2,0.5-0.4,0.7-0.7c0.2-0.3,0.2-0.6,0.2-1c0-0.4-0.1-0.7-0.2-1
	s-0.4-0.5-0.7-0.7c-0.3-0.2-0.6-0.2-1-0.2c-0.4,0-0.7,0.1-1,0.2c-0.3,0.2-0.5,0.4-0.7,0.7c-0.2,0.3-0.2,0.6-0.2,1
	c0,0.4,0.1,0.7,0.2,1c0.2,0.3,0.4,0.5,0.7,0.7C80.3,35.2,80.6,35.3,80.9,35.3 M80.9,35.9c-0.5,0-0.9-0.1-1.3-0.3
	c-0.4-0.2-0.7-0.5-0.9-0.9c-0.2-0.4-0.3-0.8-0.3-1.3c0-0.5,0.1-0.9,0.3-1.3c0.2-0.4,0.5-0.7,0.9-0.9c0.4-0.2,0.8-0.3,1.3-0.3
	c0.5,0,0.9,0.1,1.3,0.3c0.4,0.2,0.7,0.5,0.9,0.9c0.2,0.4,0.3,0.8,0.3,1.3c0,0.5-0.1,0.9-0.3,1.3c-0.2,0.4-0.5,0.7-0.9,0.9
	C81.9,35.8,81.4,35.9,80.9,35.9z"/>
<path class="st1" d="M87,35.1c0.4,0,0.7-0.1,1-0.2c0.3-0.2,0.5-0.4,0.7-0.7c0.2-0.3,0.2-0.6,0.2-1c0-0.4-0.1-0.7-0.2-1
	c-0.2-0.3-0.4-0.5-0.7-0.7c-0.3-0.2-0.6-0.2-1-0.2c-0.4,0-0.7,0.1-1,0.2c-0.3,0.2-0.5,0.4-0.7,0.7c-0.2,0.3-0.2,0.6-0.2,1
	c0,0.4,0.1,0.7,0.2,1c0.2,0.3,0.4,0.5,0.7,0.7C86.3,35,86.6,35.1,87,35.1 M89.6,30.8v4.4c0,0.9-0.2,1.5-0.6,1.9
	c-0.4,0.4-1,0.6-1.9,0.6c-0.5,0-0.9-0.1-1.3-0.2c-0.4-0.1-0.8-0.3-1-0.6l0.3-0.5c0.2,0.2,0.5,0.4,0.9,0.5c0.3,0.1,0.7,0.2,1.1,0.2
	c0.6,0,1.1-0.1,1.4-0.4c0.3-0.3,0.4-0.8,0.4-1.4v-0.6c-0.2,0.3-0.5,0.6-0.8,0.7c-0.3,0.2-0.7,0.2-1.1,0.2c-0.5,0-0.9-0.1-1.3-0.3
	c-0.4-0.2-0.7-0.5-0.9-0.9c-0.2-0.4-0.3-0.8-0.3-1.3c0-0.5,0.1-0.9,0.3-1.3c0.2-0.4,0.5-0.7,0.9-0.9c0.4-0.2,0.8-0.3,1.3-0.3
	c0.4,0,0.8,0.1,1.2,0.3c0.3,0.2,0.6,0.4,0.8,0.7v-1H89.6z"/>
<path class="st1" d="M91.8,29.7c-0.1,0-0.3,0-0.4-0.1c-0.1-0.1-0.1-0.2-0.1-0.3c0-0.1,0-0.2,0.1-0.3c0.1-0.1,0.2-0.1,0.4-0.1
	c0.1,0,0.3,0,0.4,0.1c0.1,0.1,0.1,0.2,0.1,0.3c0,0.1,0,0.3-0.1,0.4C92.1,29.7,91.9,29.7,91.8,29.7 M91.5,30.8h0.7v5h-0.7V30.8z"/>
<path class="st1" d="M95.6,35.4c0.4,0,0.7-0.1,1-0.3c0.3-0.2,0.5-0.4,0.6-0.8v-0.8h-1.6c-0.9,0-1.3,0.3-1.3,0.9
	c0,0.3,0.1,0.5,0.3,0.7C94.8,35.3,95.2,35.4,95.6,35.4 M95.8,30.8c0.7,0,1.2,0.2,1.5,0.5c0.4,0.3,0.5,0.8,0.5,1.5v3.1h-0.7v-0.8
	c-0.2,0.3-0.4,0.5-0.7,0.6c-0.3,0.1-0.6,0.2-1.1,0.2c-0.6,0-1-0.1-1.3-0.4c-0.3-0.3-0.5-0.6-0.5-1.1c0-0.4,0.2-0.8,0.5-1
	c0.3-0.3,0.8-0.4,1.5-0.4h1.6v-0.3c0-0.4-0.1-0.8-0.4-1c-0.2-0.2-0.6-0.3-1.1-0.3c-0.3,0-0.6,0.1-0.9,0.2c-0.3,0.1-0.5,0.3-0.8,0.4
	l-0.3-0.5c0.3-0.2,0.6-0.4,0.9-0.5C95,30.9,95.4,30.8,95.8,30.8z"/>
<path class="st1" d="M104,35.4c0.7,0,1.3-0.3,1.8-0.8l-2-2.1c-0.5,0.3-0.9,0.6-1.1,0.8c-0.2,0.2-0.3,0.5-0.3,0.8
	c0,0.4,0.1,0.7,0.4,0.9C103.1,35.3,103.5,35.4,104,35.4 M104.2,29.6c-0.3,0-0.6,0.1-0.8,0.2c-0.2,0.2-0.3,0.4-0.3,0.7
	c0,0.2,0.1,0.4,0.2,0.6c0.1,0.2,0.3,0.4,0.6,0.7c0.5-0.3,0.8-0.5,1-0.7c0.2-0.2,0.3-0.4,0.3-0.7c0-0.3-0.1-0.5-0.3-0.6
	C104.8,29.7,104.6,29.6,104.2,29.6z M107.1,36l-0.9-1c-0.6,0.6-1.3,0.9-2.2,0.9c-0.4,0-0.8-0.1-1.2-0.2c-0.3-0.1-0.6-0.3-0.8-0.6
	c-0.2-0.3-0.3-0.6-0.3-0.9c0-0.4,0.1-0.8,0.4-1.1c0.3-0.3,0.7-0.7,1.3-1c-0.3-0.3-0.5-0.6-0.7-0.8c-0.1-0.2-0.2-0.5-0.2-0.7
	c0-0.4,0.2-0.8,0.5-1c0.3-0.3,0.7-0.4,1.2-0.4c0.5,0,0.9,0.1,1.1,0.4c0.3,0.2,0.4,0.6,0.4,1c0,0.3-0.1,0.6-0.3,0.9
	c-0.2,0.3-0.6,0.6-1.2,0.9l1.8,1.9c0.2-0.4,0.4-0.8,0.4-1.3l0.6,0.2c-0.1,0.6-0.3,1.1-0.6,1.5l1,1L107.1,36z"/>
<path class="st1" d="M114.2,35.9c-0.7,0-1.3-0.1-1.8-0.4c-0.5-0.3-1-0.7-1.3-1.2c-0.3-0.5-0.5-1.1-0.5-1.7c0-0.6,0.2-1.2,0.5-1.7
	c0.3-0.5,0.7-0.9,1.3-1.2c0.5-0.3,1.1-0.4,1.8-0.4c0.5,0,1,0.1,1.4,0.2c0.4,0.2,0.8,0.4,1.1,0.7l-0.4,0.4c-0.5-0.5-1.2-0.8-2-0.8
	c-0.5,0-1,0.1-1.4,0.4c-0.4,0.2-0.8,0.6-1,1c-0.2,0.4-0.4,0.9-0.4,1.4s0.1,1,0.4,1.4c0.2,0.4,0.6,0.8,1,1c0.4,0.2,0.9,0.4,1.4,0.4
	c0.8,0,1.5-0.3,2-0.8l0.4,0.4c-0.3,0.3-0.7,0.6-1.1,0.7C115.1,35.8,114.7,35.9,114.2,35.9"/>
<path class="st1" d="M119.8,35.3c0.4,0,0.7-0.1,1-0.2c0.3-0.2,0.5-0.4,0.7-0.7c0.2-0.3,0.2-0.6,0.2-1c0-0.4-0.1-0.7-0.2-1
	c-0.2-0.3-0.4-0.5-0.7-0.7c-0.3-0.2-0.6-0.2-1-0.2c-0.4,0-0.7,0.1-1,0.2c-0.3,0.2-0.5,0.4-0.7,0.7c-0.2,0.3-0.2,0.6-0.2,1
	c0,0.4,0.1,0.7,0.2,1c0.2,0.3,0.4,0.5,0.7,0.7C119.1,35.2,119.5,35.3,119.8,35.3 M119.8,35.9c-0.5,0-0.9-0.1-1.3-0.3
	c-0.4-0.2-0.7-0.5-0.9-0.9c-0.2-0.4-0.3-0.8-0.3-1.3c0-0.5,0.1-0.9,0.3-1.3c0.2-0.4,0.5-0.7,0.9-0.9c0.4-0.2,0.8-0.3,1.3-0.3
	c0.5,0,0.9,0.1,1.3,0.3c0.4,0.2,0.7,0.5,0.9,0.9c0.2,0.4,0.3,0.8,0.3,1.3c0,0.5-0.1,0.9-0.3,1.3c-0.2,0.4-0.5,0.7-0.9,0.9
	C120.7,35.8,120.3,35.9,119.8,35.9z"/>
<path class="st1" d="M126.3,30.8c0.6,0,1.1,0.2,1.5,0.6c0.4,0.4,0.6,0.9,0.6,1.6v2.9h-0.7V33c0-0.5-0.1-0.9-0.4-1.2
	c-0.3-0.3-0.6-0.4-1.1-0.4c-0.5,0-1,0.2-1.3,0.5c-0.3,0.3-0.5,0.8-0.5,1.3v2.6h-0.7v-5h0.7v0.9c0.2-0.3,0.4-0.5,0.8-0.7
	C125.5,30.9,125.9,30.8,126.3,30.8"/>
<path class="st1" d="M131.6,35.9c-0.4,0-0.8-0.1-1.2-0.2c-0.4-0.1-0.7-0.3-0.9-0.4l0.3-0.5c0.2,0.2,0.5,0.3,0.8,0.4
	c0.3,0.1,0.7,0.2,1,0.2c0.5,0,0.8-0.1,1-0.2c0.2-0.1,0.3-0.3,0.3-0.6c0-0.2-0.1-0.3-0.2-0.4c-0.1-0.1-0.3-0.2-0.5-0.2
	c-0.2-0.1-0.4-0.1-0.7-0.2c-0.4-0.1-0.7-0.2-1-0.2c-0.2-0.1-0.5-0.2-0.6-0.4c-0.2-0.2-0.3-0.5-0.3-0.8c0-0.4,0.2-0.8,0.5-1
	c0.4-0.3,0.8-0.4,1.5-0.4c0.3,0,0.7,0,1,0.1c0.3,0.1,0.6,0.2,0.8,0.3l-0.3,0.5c-0.4-0.3-0.9-0.4-1.5-0.4c-0.4,0-0.8,0.1-1,0.2
	c-0.2,0.2-0.3,0.4-0.3,0.6c0,0.2,0.1,0.3,0.2,0.5c0.1,0.1,0.3,0.2,0.5,0.3c0.2,0.1,0.4,0.1,0.8,0.2c0.4,0.1,0.7,0.2,1,0.2
	c0.2,0.1,0.4,0.2,0.6,0.4c0.2,0.2,0.3,0.4,0.3,0.8c0,0.4-0.2,0.8-0.6,1C132.8,35.8,132.2,35.9,131.6,35.9"/>
<path class="st1" d="M139.5,30.8v5h-0.7v-0.9c-0.2,0.3-0.4,0.5-0.7,0.7c-0.3,0.2-0.7,0.3-1.1,0.3c-0.7,0-1.2-0.2-1.6-0.6
	c-0.4-0.4-0.6-0.9-0.6-1.6v-2.9h0.7v2.9c0,0.5,0.1,0.9,0.4,1.2c0.3,0.3,0.6,0.4,1.1,0.4c0.5,0,0.9-0.2,1.3-0.5
	c0.3-0.3,0.5-0.8,0.5-1.3v-2.6H139.5z"/>
<rect x="141.4" y="28.8" class="st1" width="0.7" height="7.1"/>
<path class="st1" d="M146.6,35.6c-0.1,0.1-0.3,0.2-0.5,0.3s-0.4,0.1-0.6,0.1c-0.5,0-0.8-0.1-1.1-0.4c-0.3-0.3-0.4-0.6-0.4-1.1v-3
	h-0.9v-0.6h0.9v-1.1h0.7v1.1h1.5v0.6h-1.5v3c0,0.3,0.1,0.5,0.2,0.7c0.1,0.2,0.4,0.2,0.6,0.2c0.1,0,0.3,0,0.4-0.1
	c0.1,0,0.2-0.1,0.3-0.2L146.6,35.6z"/>
<path class="st1" d="M149.7,35.3c0.4,0,0.7-0.1,1-0.2c0.3-0.2,0.5-0.4,0.7-0.7c0.2-0.3,0.2-0.6,0.2-1c0-0.4-0.1-0.7-0.2-1
	c-0.2-0.3-0.4-0.5-0.7-0.7c-0.3-0.2-0.6-0.2-1-0.2c-0.4,0-0.7,0.1-1,0.2c-0.3,0.2-0.5,0.4-0.7,0.7c-0.2,0.3-0.2,0.6-0.2,1
	c0,0.4,0.1,0.7,0.2,1c0.2,0.3,0.4,0.5,0.7,0.7C149,35.2,149.4,35.3,149.7,35.3 M149.7,35.9c-0.5,0-0.9-0.1-1.3-0.3
	c-0.4-0.2-0.7-0.5-0.9-0.9c-0.2-0.4-0.3-0.8-0.3-1.3c0-0.5,0.1-0.9,0.3-1.3c0.2-0.4,0.5-0.7,0.9-0.9c0.4-0.2,0.8-0.3,1.3-0.3
	c0.5,0,0.9,0.1,1.3,0.3c0.4,0.2,0.7,0.5,0.9,0.9c0.2,0.4,0.3,0.8,0.3,1.3c0,0.5-0.1,0.9-0.3,1.3c-0.2,0.4-0.5,0.7-0.9,0.9
	C150.6,35.8,150.2,35.9,149.7,35.9z"/>
<path class="st1" d="M154.3,31.8c0.2-0.3,0.4-0.6,0.7-0.8c0.3-0.2,0.7-0.3,1.2-0.3v0.7l-0.2,0c-0.5,0-0.9,0.2-1.2,0.5
	c-0.3,0.3-0.4,0.8-0.4,1.4v2.6h-0.7v-5h0.7V31.8z"/>
<path class="st1" d="M157.8,29.7c-0.1,0-0.3,0-0.4-0.1c-0.1-0.1-0.1-0.2-0.1-0.3c0-0.1,0-0.2,0.1-0.3s0.2-0.1,0.4-0.1
	c0.1,0,0.3,0,0.4,0.1c0.1,0.1,0.1,0.2,0.1,0.3c0,0.1,0,0.3-0.1,0.4C158,29.7,157.9,29.7,157.8,29.7 M157.4,30.8h0.7v5h-0.7V30.8z"/>
<path class="st1" d="M161.5,35.4c0.4,0,0.7-0.1,1-0.3c0.3-0.2,0.5-0.4,0.6-0.8v-0.8h-1.6c-0.9,0-1.3,0.3-1.3,0.9
	c0,0.3,0.1,0.5,0.3,0.7C160.8,35.3,161.1,35.4,161.5,35.4 M161.8,30.8c0.7,0,1.2,0.2,1.5,0.5c0.4,0.3,0.5,0.8,0.5,1.5v3.1h-0.7v-0.8
	c-0.2,0.3-0.4,0.5-0.7,0.6c-0.3,0.1-0.6,0.2-1.1,0.2c-0.6,0-1-0.1-1.3-0.4c-0.3-0.3-0.5-0.6-0.5-1.1c0-0.4,0.2-0.8,0.5-1
	c0.3-0.3,0.8-0.4,1.5-0.4h1.6v-0.3c0-0.4-0.1-0.8-0.4-1c-0.2-0.2-0.6-0.3-1.1-0.3c-0.3,0-0.6,0.1-0.9,0.2c-0.3,0.1-0.5,0.3-0.8,0.4
	l-0.3-0.5c0.3-0.2,0.6-0.4,0.9-0.5C161,30.9,161.4,30.8,161.8,30.8z"/>
</svg>
