<svg xmlns="http://www.w3.org/2000/svg" width="226.341" height="60.774" viewBox="0 0 169.756 45.581"><path d="m8.513 6.407-5.806 4.68L1 21.445l2.96 7.172-1.7 6.6.906 1 2.387.436.014 2.393 1.833.029-.04 1.835h1.947l.912 2.873 2.447.798 3.7-2.206 4.212.994-1.812-7.623-7.656-4.419v-7.976l-1.566.904-4.851-2.8v-5.603l3.82-2.206z" fill="#0193c7" fill-rule="evenodd"/><path d="m16.01 2.314-3.032 1.75-3.032 1.75v7.005l3.032 1.75 3.033 1.75 3.033-1.75 3.032-1.75V5.815l-3.032-1.75zM18.765 19.72l-3.112 1.797-3.11 1.797V30.5l3.11 1.796 3.112 1.796 3.112-1.796 3.111-1.796v-7.186l-3.11-1.797zm0 2.068 4.433 2.56v5.118l-4.432 2.558-4.433-2.558v-5.119zM27.768 6.721l-1.417.818-1.416.817v3.272l1.416.818 1.417.818 1.416-.818 1.416-.818V8.356l-1.416-.817zM32.546 18.438l-1.38.796-1.38.797V23.218l1.38.797 1.38.796 1.38-.796 1.38-.797V20.031l-1.38-.797zM25.235 1.997l-.864.498-.863.499v1.994l.863.498.864.498.863-.498.864-.498V2.994l-.864-.499zM26.421 31.327l-1.091.63-1.091.63v2.52l1.09.63 1.092.63 1.091-.63 1.09-.63v-2.52l-1.09-.63zM9.544 14.292l-1.89 1.09-1.888 1.09V20.835l1.889 1.09 1.889 1.09 1.889-1.09 1.888-1.09v-4.362l-1.888-1.09zM24.935 12.869l-1.89 1.09-1.888 1.09V19.412l1.889 1.09 1.889 1.09 1.888-1.09 1.889-1.09V15.05l-1.889-1.091zM8.514 1l-.864.498-.863.499v1.994l.863.498.864.499.863-.499.863-.498V1.997l-.863-.499z" fill="#0193c7" fill-rule="evenodd"/><path d="M43.809 22.021c.46.23 1.043.398 1.752.503.708.105 1.445.172 2.21.201.767.029 1.446.043 2.04.043h.79c.315 0 .578-.01.79-.029.612-.019 1.138-.09 1.578-.215.441-.124.776-.33 1.006-.617.23-.288.344-.69.344-1.206 0-.632-.172-1.049-.517-1.25-.344-.2-.87-.301-1.58-.301h-3.33c-.594 0-1.187-.029-1.78-.086a5.376 5.376 0 0 1-1.623-.402 2.5 2.5 0 0 1-1.163-1.02c-.287-.469-.431-1.125-.431-1.967 0-.996.172-1.776.517-2.34a3.154 3.154 0 0 1 1.464-1.264c.632-.277 1.379-.455 2.24-.531.862-.077 1.8-.115 2.815-.115.612 0 1.282.01 2.01.029a32.56 32.56 0 0 1 2.053.114c.642.058 1.135.144 1.48.259.535.038.947.187 1.234.445.287.259.43.58.43.962v1.034c-.153-.153-.435-.278-.846-.373-.412-.096-.881-.168-1.408-.216a29.067 29.067 0 0 0-1.565-.1c-.517-.02-.957-.03-1.32-.03h-2.27c-.593 0-1.105.049-1.536.145-.43.095-.765.272-1.005.53-.24.26-.359.647-.359 1.164 0 .402.082.713.244.933.163.22.402.369.718.445.316.077.714.115 1.192.115h3.905c.9 0 1.685.077 2.355.23.67.153 1.192.488 1.565 1.005.374.517.56 1.32.56 2.412 0 1.034-.215 1.857-.646 2.47-.43.612-1.02 1.053-1.766 1.32-.747.269-1.618.431-2.613.49-.747.056-1.465.085-2.154.085h-2.182a60.055 60.055 0 0 1-1.91-.086 10 10 0 0 1-1.666-.23c-.488-.115-.88-.273-1.177-.474-.297-.2-.445-.473-.445-.818zM62.302 24.75c-.536 0-.89-.082-1.062-.244-.172-.163-.259-.522-.259-1.077v-9.362c.25-.096.575-.187.977-.273.402-.086.852-.172 1.35-.258a22.903 22.903 0 0 1 1.593-.216 16.576 16.576 0 0 1 1.68-.086c.728 0 1.355.058 1.881.172.527.115.977.321 1.35.618.373.297.694.732.962 1.306h-.546c.173-.44.412-.799.718-1.077.306-.277.67-.488 1.092-.631a6.703 6.703 0 0 1 1.263-.302 8.558 8.558 0 0 1 1.149-.086c1.244 0 2.22.11 2.929.33.708.22 1.22.603 1.536 1.149.316.546.474 1.307.474 2.283v6.547c0 .517-.091.848-.273.991-.182.144-.53.216-1.048.216h-2.182V16.88c0-.785-.163-1.307-.489-1.565-.325-.258-.813-.388-1.464-.388-.307 0-.613.043-.92.13-.306.086-.56.205-.76.358-.201.154-.302.335-.302.546v8.788h-3.503v-8.328c0-.479-.182-.838-.546-1.077-.364-.24-.842-.36-1.436-.36-.363 0-.689.025-.976.073a2.094 2.094 0 0 0-.703.23c-.182.105-.283.243-.302.416v9.046zM87.66 24.893c-1.264 0-2.288-.043-3.073-.129-.785-.086-1.388-.258-1.81-.517a1.955 1.955 0 0 1-.86-1.077c-.154-.46-.23-1.043-.23-1.752 0-.976.105-1.723.315-2.24.21-.516.57-.866 1.077-1.048.508-.182 1.192-.273 2.053-.273a102.926 102.926 0 0 1 3.389.058c.574.019 1.077.053 1.508.1.43.048.722.091.876.13 0-.69-.058-1.235-.173-1.637-.115-.402-.306-.709-.574-.92-.268-.21-.608-.344-1.02-.401a10.89 10.89 0 0 0-1.479-.086c-.65 0-1.306.014-1.967.043-.66.028-1.282.076-1.866.143a11.24 11.24 0 0 0-1.537.273v-.66c0-.48.115-.828.345-1.049.23-.22.526-.368.89-.445.421-.095 1.039-.162 1.852-.2.814-.039 1.68-.058 2.6-.058 1.186 0 2.182.057 2.986.172.804.115 1.45.345 1.938.69.488.344.838.847 1.048 1.507.21.66.316 1.546.316 2.656v5.801c-.23.326-.895.56-1.995.704-1.101.143-2.638.215-4.61.215zm-.03-1.493c.652 0 1.192-.014 1.623-.043.43-.03.78-.081 1.048-.158s.47-.172.603-.288v-3.56c-.19-.058-.492-.11-.904-.158a26.104 26.104 0 0 0-1.25-.115 16.072 16.072 0 0 0-1.062-.043c-.574 0-1.043.043-1.407.13-.364.085-.627.282-.79.588-.163.306-.244.785-.244 1.436 0 .516.058.942.172 1.277.115.336.345.575.69.718.344.144.852.216 1.522.216M100.381 24.75h-2.44c-.365 0-.633-.091-.805-.273-.172-.182-.259-.541-.259-1.077v-9.534c.498-.134 1.211-.278 2.14-.431.928-.153 1.996-.23 3.202-.23 1.244 0 2.22.077 2.929.23.708.153 1.23.373 1.565.66.335.288.55.651.646 1.092.096.44.144.967.144 1.58h-3.332v-.403c-.019-.46-.124-.794-.315-1.005-.192-.21-.431-.34-.718-.388a5.227 5.227 0 0 0-.862-.071c-.421 0-.8.043-1.134.129-.335.086-.589.206-.761.359zM113.418 24.864c-.9 0-1.603-.1-2.11-.301-.508-.201-.867-.536-1.077-1.005-.21-.47-.316-1.115-.316-1.939v-6.49h-1.178v-1.837h1.178v-1.695c0-.402.029-.699.086-.89a.524.524 0 0 1 .36-.373c.18-.058.454-.086.817-.086h2.24c0 .057-.005.148-.014.272-.01.125-.015.283-.015.474v2.298h2.757v1.837h-2.728v6.174c0 .747.072 1.288.216 1.623.143.335.521.503 1.134.503.192 0 .416-.02.675-.058.258-.038.435-.076.531-.115v1.35l-.861.143c-.46.077-1.025.115-1.695.115M119.477 24.75c-.574 0-.933-.082-1.077-.244-.143-.163-.215-.474-.215-.934V10.248h3.504v3.36c.21-.058.493-.11.847-.159.354-.047.727-.08 1.12-.1.392-.02.76-.029 1.105-.029 1.245 0 2.245.096 3.001.287.757.192 1.321.493 1.695.905.373.412.622.933.746 1.565.125.632.187 1.388.187 2.269v4.824c0 .46-.038.8-.115 1.02a.69.69 0 0 1-.445.445c-.22.076-.55.114-.99.114H127v-6.92c0-.805-.105-1.412-.316-1.824a1.625 1.625 0 0 0-.933-.833c-.411-.143-.952-.215-1.622-.215-.23 0-.503.014-.819.043a13.52 13.52 0 0 0-.919.115c-.296.048-.53.11-.703.187v9.448zM136.047 24.864c-1.13 0-1.91-.244-2.34-.732-.431-.488-.647-1.259-.647-2.312v-8.528h3.504v8.356c0 .67.086 1.134.258 1.393.173.258.48.388.92.388.21 0 .41-.02.603-.058.19-.038.315-.067.373-.086v1.32c-.077.02-.21.049-.402.087a9.778 9.778 0 0 1-.833.115c-.364.038-.842.057-1.436.057zm-1.206-13.066c-.555 0-.957-.072-1.206-.215-.25-.144-.374-.417-.374-.819 0-.402.13-.68.388-.832.259-.154.666-.23 1.22-.23.556.02.953.1 1.192.244.24.144.35.416.33.818 0 .402-.114.675-.344.819-.23.143-.632.215-1.206.215M141.33 24.75c-.63 0-.947-.326-.947-.977v-9.735c.575-.23 1.393-.426 2.456-.588a23.546 23.546 0 0 1 3.546-.245c1.36 0 2.436.077 3.23.23.795.153 1.389.412 1.781.775.393.364.651.843.776 1.436.124.594.186 1.33.186 2.211V23.4c0 .344-.024.617-.072.818a.602.602 0 0 1-.373.43c-.2.087-.512.13-.933.13l-2.068-.028v-7.697c0-.67-.21-1.158-.632-1.464-.42-.307-1.043-.46-1.866-.46a6.37 6.37 0 0 0-.92.072 6.477 6.477 0 0 0-.918.201 2.493 2.493 0 0 0-.718.33v9.018zM155.087 24.75l-.03-13.268c0-.478.077-.804.23-.976.154-.172.489-.258 1.006-.258h2.297v8.213l4.394-4.452c.306-.287.617-.488.933-.603.316-.114.78-.182 1.393-.2.46 0 .885.009 1.278.028.392.019.751.038 1.076.058-.076.057-.22.167-.43.33s-.436.335-.675.517c-.24.182-.464.35-.675.502l-3.647 3.303 5.083 5.485c.23.249.469.483.718.703.249.22.488.426.718.617-.651.02-1.293.03-1.924.03h-1.752c-.555 0-.967-.068-1.235-.202a3.302 3.302 0 0 1-.833-.632l-3.187-3.474-1.235.804v3.475zM50.124 28.78H47.77v-.612h5.417v.612h-2.354v6.088h-.709zM58.03 32.561h-4.21c.037.523.238.946.602 1.268.364.322.823.484 1.378.484.313 0 .6-.056.862-.168.261-.111.488-.276.68-.493l.382.44a2.158 2.158 0 0 1-.837.613c-.335.14-.704.21-1.106.21-.517 0-.975-.11-1.373-.33a2.382 2.382 0 0 1-.934-.914 2.605 2.605 0 0 1-.335-1.32c0-.492.107-.932.32-1.321.215-.39.508-.693.882-.91a2.46 2.46 0 0 1 1.258-.325c.466 0 .884.108 1.254.325.37.217.66.519.871.905.21.386.316.828.316 1.326zm-2.43-2.182c-.486 0-.892.155-1.221.464-.329.31-.515.713-.56 1.21h3.57c-.045-.497-.231-.9-.56-1.21-.328-.31-.739-.464-1.23-.464M61.515 34.916c-.498 0-.943-.109-1.336-.326a2.357 2.357 0 0 1-.923-.914 2.63 2.63 0 0 1-.335-1.325c0-.492.111-.932.335-1.321.223-.39.53-.693.923-.91a2.716 2.716 0 0 1 1.336-.325c.434 0 .821.084 1.162.254.342.169.611.416.81.741l-.508.345a1.586 1.586 0 0 0-.632-.56 1.874 1.874 0 0 0-.832-.186c-.364 0-.691.08-.982.244-.29.162-.517.394-.68.694-.162.3-.243.64-.243 1.024 0 .389.081.732.244 1.028.163.297.39.527.68.69.29.162.617.244.98.244.3 0 .578-.06.833-.182.255-.121.466-.306.632-.555l.507.344c-.197.326-.469.573-.813.742-.345.17-.731.254-1.158.254M67.382 29.795c.632 0 1.134.183 1.507.55.374.367.56.902.56 1.603v2.92h-.68v-2.852c0-.524-.13-.922-.392-1.197-.261-.274-.635-.412-1.12-.412-.542 0-.971.162-1.287.484-.316.322-.474.767-.474 1.335v2.642h-.68v-5.035h.651v.928c.186-.306.442-.543.771-.712.329-.17.71-.254 1.144-.254M73.374 34.916c-.485 0-.922-.11-1.312-.33a2.409 2.409 0 0 1-.919-.915 2.605 2.605 0 0 1-.335-1.32c0-.492.112-.932.335-1.321.224-.39.53-.693.92-.91.388-.216.826-.325 1.31-.325.485 0 .922.108 1.312.325.39.217.694.52.914.91.22.389.33.83.33 1.32 0 .492-.11.932-.33 1.321-.22.39-.525.694-.914.914-.39.22-.827.33-1.311.33zm0-.603a1.9 1.9 0 0 0 .961-.244c.284-.163.506-.394.666-.694.16-.3.239-.642.239-1.024 0-.383-.08-.725-.24-1.024-.159-.3-.38-.532-.665-.695a1.9 1.9 0 0 0-.961-.244 1.9 1.9 0 0 0-.962.244 1.734 1.734 0 0 0-.67.694c-.163.3-.245.642-.245 1.025 0 .382.082.724.244 1.024.163.3.386.531.67.694a1.9 1.9 0 0 0 .963.244M77.317 27.766h.68v7.102h-.68zM81.95 34.916c-.486 0-.923-.11-1.312-.33a2.41 2.41 0 0 1-.919-.915 2.606 2.606 0 0 1-.335-1.32c0-.492.112-.932.335-1.321.224-.39.53-.693.92-.91.388-.216.826-.325 1.31-.325.485 0 .922.108 1.312.325.389.217.694.52.914.91.22.389.33.83.33 1.32 0 .492-.11.932-.33 1.321-.22.39-.525.694-.914.914-.39.22-.827.33-1.311.33zm0-.603a1.9 1.9 0 0 0 .961-.244c.284-.163.506-.394.666-.694.16-.3.239-.642.239-1.024 0-.383-.08-.725-.24-1.024-.159-.3-.38-.532-.665-.695a1.9 1.9 0 0 0-.962-.244 1.9 1.9 0 0 0-.962.244 1.733 1.733 0 0 0-.67.694c-.162.3-.244.642-.244 1.025 0 .382.082.724.244 1.024.163.3.386.531.67.694a1.9 1.9 0 0 0 .963.244M90.554 29.833v4.422c0 .855-.209 1.489-.627 1.9-.418.412-1.048.617-1.89.617-.466 0-.908-.068-1.326-.205-.418-.138-.757-.327-1.02-.57l.345-.517c.243.217.538.386.886.508a3.31 3.31 0 0 0 1.096.181c.638 0 1.107-.148 1.406-.445.3-.296.45-.757.45-1.383v-.64a2.05 2.05 0 0 1-.827.727c-.342.165-.72.248-1.135.248-.472 0-.9-.103-1.287-.31a2.297 2.297 0 0 1-.91-.872 2.451 2.451 0 0 1-.33-1.268c0-.472.11-.893.33-1.264.22-.37.522-.657.905-.86a2.7 2.7 0 0 1 1.292-.307c.428 0 .814.086 1.158.258.345.172.623.421.833.747v-.967zm-2.575 4.24c.364 0 .693-.078.986-.234.294-.156.522-.375.685-.656.162-.28.244-.6.244-.957s-.082-.675-.244-.952a1.71 1.71 0 0 0-.68-.651 2.056 2.056 0 0 0-.99-.235c-.364 0-.691.077-.982.23-.29.153-.517.37-.68.65-.162.282-.243.6-.243.958 0 .357.08.677.244.957.162.281.39.5.68.656.29.156.617.234.98.234M92.459 29.833h.68v5.035h-.68zm.344-1.1a.482.482 0 0 1-.354-.144.47.47 0 0 1-.143-.345.46.46 0 0 1 .143-.335.48.48 0 0 1 .354-.143.49.49 0 0 1 .354.139.482.482 0 0 1 0 .684.482.482 0 0 1-.354.144M96.795 29.795c.657 0 1.16.164 1.512.493.35.328.526.815.526 1.46v3.12h-.65v-.785a1.557 1.557 0 0 1-.676.612c-.296.147-.649.22-1.057.22-.562 0-1.008-.133-1.34-.401a1.298 1.298 0 0 1-.498-1.063c0-.427.155-.772.465-1.033.309-.262.802-.393 1.478-.393h1.599v-.306c0-.434-.121-.764-.364-.99-.243-.227-.597-.34-1.063-.34-.319 0-.625.052-.918.157a2.31 2.31 0 0 0-.757.436l-.306-.508c.255-.216.562-.384.919-.502a3.574 3.574 0 0 1 1.13-.177zm-.24 4.585c.383 0 .712-.088.986-.264.274-.175.479-.429.613-.76v-.824h-1.58c-.861 0-1.292.3-1.292.9 0 .294.112.525.335.694.223.17.536.254.938.254M108.127 34.973l-.928-.957c-.568.606-1.315.91-2.24.91-.434 0-.822-.073-1.163-.216a1.87 1.87 0 0 1-.799-.603 1.448 1.448 0 0 1-.287-.886c0-.401.128-.762.383-1.081.255-.32.689-.654 1.301-1.005-.319-.332-.539-.614-.66-.847a1.587 1.587 0 0 1-.182-.742c0-.427.153-.772.46-1.034.306-.261.717-.392 1.234-.392.479 0 .858.118 1.14.354.28.236.42.561.42.976 0 .332-.111.63-.334.895-.224.265-.61.557-1.159.876l1.838 1.895c.204-.363.354-.794.45-1.292l.555.172c-.121.6-.32 1.114-.593 1.542l.956.985zm-2.88-6.346c-.333 0-.593.083-.78.249a.837.837 0 0 0-.283.66c0 .198.051.386.153.565.102.179.303.421.603.728.485-.281.82-.52 1.005-.718.185-.198.278-.415.278-.651a.765.765 0 0 0-.259-.608c-.172-.15-.412-.225-.718-.225zm-.25 5.733c.74 0 1.34-.252 1.8-.756l-2.02-2.077c-.53.3-.895.571-1.096.814a1.242 1.242 0 0 0-.301.813c0 .364.148.656.445.876.297.22.688.33 1.172.33M115.153 34.925a3.655 3.655 0 0 1-1.795-.44 3.22 3.22 0 0 1-1.254-1.22 3.403 3.403 0 0 1-.454-1.747c0-.645.15-1.227.454-1.747.303-.52.723-.927 1.259-1.22a3.685 3.685 0 0 1 1.8-.44c.497 0 .957.082 1.377.248.422.166.78.409 1.072.727l-.45.45c-.523-.53-1.183-.794-1.98-.794a2.91 2.91 0 0 0-1.446.364 2.655 2.655 0 0 0-1.02.995 2.757 2.757 0 0 0-.368 1.417c0 .523.123.995.369 1.416.245.422.585.753 1.02.996.433.242.915.364 1.444.364.804 0 1.465-.268 1.982-.804l.45.45a2.9 2.9 0 0 1-1.077.732 3.704 3.704 0 0 1-1.383.253M120.82 34.916c-.486 0-.923-.11-1.312-.33a2.409 2.409 0 0 1-.92-.915 2.605 2.605 0 0 1-.334-1.32c0-.492.111-.932.335-1.321.223-.39.53-.693.919-.91.389-.216.826-.325 1.311-.325s.922.108 1.311.325c.39.217.694.52.914.91.22.389.33.83.33 1.32 0 .492-.11.932-.33 1.321-.22.39-.524.694-.914.914-.39.22-.826.33-1.31.33zm0-.603a1.9 1.9 0 0 0 .96-.244c.285-.163.507-.394.666-.694.16-.3.24-.642.24-1.024 0-.383-.08-.725-.24-1.024-.16-.3-.381-.532-.665-.695a1.9 1.9 0 0 0-.962-.244 1.9 1.9 0 0 0-.962.244 1.733 1.733 0 0 0-.67.694c-.163.3-.244.642-.244 1.025 0 .382.081.724.244 1.024.163.3.386.531.67.694a1.9 1.9 0 0 0 .962.244M127.327 29.795c.632 0 1.135.183 1.508.55.373.367.56.902.56 1.603v2.92h-.68v-2.852c0-.524-.13-.922-.392-1.197-.262-.274-.635-.412-1.12-.412-.542 0-.972.162-1.287.484-.316.322-.474.767-.474 1.335v2.642h-.68v-5.035h.651v.928c.185-.306.442-.543.77-.712.33-.17.71-.254 1.144-.254M132.592 34.916c-.409 0-.8-.06-1.173-.177-.373-.118-.665-.267-.875-.445l.306-.536c.21.165.475.301.794.406.32.106.651.158.996.158.459 0 .799-.072 1.02-.215a.686.686 0 0 0 .33-.608c0-.185-.061-.33-.183-.436a1.209 1.209 0 0 0-.46-.239 6.534 6.534 0 0 0-.736-.158 8.483 8.483 0 0 1-.986-.234 1.451 1.451 0 0 1-.636-.407c-.176-.191-.264-.456-.264-.794 0-.422.176-.766.527-1.034.35-.268.839-.402 1.464-.402.326 0 .651.043.977.13.325.085.593.198.803.339l-.296.545c-.415-.287-.91-.43-1.484-.43-.434 0-.76.076-.98.23-.221.152-.331.353-.331.602 0 .192.062.345.187.46.124.115.279.2.464.254.185.054.44.11.765.167.403.077.725.153.967.23.243.076.45.207.622.392.173.185.259.44.259.766 0 .44-.184.79-.55 1.048-.367.258-.876.388-1.527.388M140.46 29.833v5.035h-.651v-.92a1.863 1.863 0 0 1-.737.714c-.313.17-.67.254-1.072.254-.657 0-1.176-.184-1.555-.55-.38-.368-.57-.905-.57-1.613v-2.92h.68v2.852c0 .53.13.932.392 1.206.262.275.635.412 1.12.412.53 0 .947-.161 1.254-.483.306-.322.46-.77.46-1.345v-2.642zM142.365 27.766h.68v7.102h-.68zM147.61 34.561a1.286 1.286 0 0 1-.474.264c-.188.06-.385.09-.589.09-.472 0-.835-.127-1.09-.382-.256-.255-.384-.616-.384-1.082v-3.044h-.9v-.574h.9v-1.1h.68v1.1h1.531v.575h-1.531v3.005c0 .3.075.528.225.684.15.157.365.235.646.235.14 0 .276-.023.407-.067.13-.045.244-.109.34-.192zM150.72 34.916c-.484 0-.922-.11-1.31-.33a2.409 2.409 0 0 1-.92-.915 2.605 2.605 0 0 1-.335-1.32c0-.492.112-.932.335-1.321.224-.39.53-.693.92-.91.388-.216.826-.325 1.31-.325.485 0 .922.108 1.312.325.39.217.694.52.914.91.22.389.33.83.33 1.32 0 .492-.11.932-.33 1.321-.22.39-.525.694-.914.914-.39.22-.827.33-1.311.33zm0-.603a1.9 1.9 0 0 0 .962-.244c.284-.163.506-.394.666-.694.16-.3.239-.642.239-1.024 0-.383-.08-.725-.24-1.024-.159-.3-.38-.532-.665-.695a1.9 1.9 0 0 0-.961-.244 1.9 1.9 0 0 0-.963.244 1.734 1.734 0 0 0-.67.694c-.162.3-.244.642-.244 1.025 0 .382.082.724.244 1.024.163.3.387.531.67.694a1.9 1.9 0 0 0 .963.244M155.315 30.82c.16-.34.397-.595.713-.767.316-.172.707-.258 1.172-.258v.66l-.162-.01c-.53 0-.945.163-1.245.489-.3.325-.45.782-.45 1.369v2.565h-.68v-5.035h.652zM158.425 29.833h.68v5.035h-.68zm.345-1.1a.482.482 0 0 1-.354-.144.47.47 0 0 1-.144-.345c0-.127.048-.239.144-.335a.48.48 0 0 1 .354-.143.49.49 0 0 1 .354.139.482.482 0 0 1 0 .684.482.482 0 0 1-.354.144M162.761 29.795c.657 0 1.162.164 1.513.493.35.328.526.815.526 1.46v3.12h-.65v-.785a1.558 1.558 0 0 1-.676.612c-.296.147-.649.22-1.057.22-.562 0-1.008-.133-1.34-.401a1.298 1.298 0 0 1-.498-1.063c0-.427.155-.772.464-1.033.31-.262.802-.393 1.48-.393h1.597v-.306c0-.434-.12-.764-.363-.99-.243-.227-.597-.34-1.063-.34-.319 0-.625.052-.919.157-.293.105-.545.25-.756.436l-.306-.508c.255-.216.562-.384.919-.502a3.574 3.574 0 0 1 1.13-.177zm-.239 4.585c.383 0 .712-.088.986-.264.274-.175.478-.429.612-.76v-.824h-1.579c-.861 0-1.292.3-1.292.9 0 .294.112.525.335.694.223.17.536.254.938.254" fill="#1a1b1b"/></svg>