<svg xmlns="http://www.w3.org/2000/svg" width="130.665" height="49.366" viewBox="0 0 97.999 37.025"><g data-name="Camada 1"><path d="m8.185 36.014.072-5.939c.043-3.489-.055-4.714-4.309-7.181-1.708-.99-3.263-3.006-2.893-5.02L3.139 6.517l1.638.587-.09.242s-2.294 6.742.996 10.426c1.022 1.144 1.966 1.758 2.973 2.37l.008.005.004.002.049.03.049.03.067.04c2.268 1.374 4.373 2.313 4.79 5.322v.005l.003.015.002.016.002.015.012.11.001.016.002.015.003.032.002.016.001.016.002.016.008.101c.005.057.008.114.012.172l.002.043.008.216V26.393c.002.08.003.163.003.246l-.027 6.303V33c-.224.963-.74 1.551-1.847 1.88l-.015.003-.003.001-.053.015-.007.002h-.003l-.004.002-.014.003-.007.002-.036.01h-.002l-.005.001-.007.002-.043.01-.008.003h-.001l-.006.002-.007.001-.007.002-.037.009-.007.001h-.001l-.007.002-.007.002-.007.002-.007.001-.008.002-.007.002-.008.002-.007.001-.008.002-.007.002-.008.001-.007.002-.007.002-.008.001-.007.002-.008.001-.007.002-.008.002-.008.002h-.007l-.008.003-.007.001-.008.002-.007.001-.008.002-.008.002-.007.001-.081.017-.066.013-.014.004-.079.016-.049.01-.028.006-.077.016-.034.008-.04.009-.075.015-.02.005-.053.011-.072.016-.005.001-.065.014-.063.014-.007.002-.068.015-.049.011-.019.004-.066.016-.035.008-.03.007-.064.015-.023.005-.04.01-.063.014-.01.003-.05.012-.06.015-.06.015-.046.011-.012.003-.057.015-.034.01-.022.005-.055.014-.023.007-.03.008-.054.015-.012.003-.04.012-.051.014-.003.001-.047.014-.017.005-.032.01-.048.014-.033.01-.015.005-.047.015-.045.015-.045.015-.04.014-.01.003-.145.053-.027.01-.027.011-.039.016-.022.01-.016.006-.036.016-.03.013-.007.002-.035.017-.008.003-.027.013-.034.016v.001l-.032.016-.009.004-.024.013-.031.016-.002.001-.029.017-.03.017-.003.002-.022.013-.004.002-.029.018-.002.001-.015.01-.028.018-.03.021-.006.004-.024.017-.001.002-.025.018-.003.003-.021.016-.024.02-.022.018zM20.91 36.025l-.071-5.939c-.043-3.49.054-4.714 4.308-7.181 1.708-.99 3.263-3.006 2.893-5.02L25.956 6.527l-1.638.587-.001.018.079.213s2.238 6.579-.879 10.29a.947.947 0 0 1-.105.147c-1.059 1.185-2.034 1.801-3.082 2.436-2.295 1.397-4.439 2.325-4.858 5.368a8.148 8.148 0 0 0-.062 1.063l.026 6.303.001.058c.205.885.658 1.453 1.59 1.794.22.073.46.136.719.19 1.756.363 2.685.605 3.165 1.03" fill="#fff" fill-rule="evenodd"/><path d="M6.593 12.95c0 2.206.686 3.696 2.2 5.027 1.316 1.155 2.719 1.974 4.333 2.62 1.872.747 1.832.582 3.624-.143 2.34-.946 4.77-2.467 5.824-4.878.493-1.128.534-2.627.384-3.897-.005-.047-.328-1.536-.55-1.656-.237-.129-.746.273-1.53.564-3.018 1.12-5.353.127-8.08-.913-1.39-.553-2.935-1.94-4.646-.378-1.71 1.56-1.559 2.493-1.559 3.655" fill="#dd3539" fill-rule="evenodd"/><path d="M22.749 10.824c.273.731.6 2.928-.175 4.752-.774 1.824-3.22 3.967-5.824 4.878-1.792.725-1.752.89-3.624.142-1.614-.645-4.791-2.32-6.142-4.732-1.351-2.413-1.562-8.276 1.3-11.897 2.877-3.64 5.512-1.355 3.317-.074-.831.485-1.811 1.476-2.744 2.561-1.45 1.684-.915 4.39 1.097 4.208 2.013-.183 4.482-5.26 5.305-.777.823 4.482 8.05 5.99 7.49.94" fill="#931b24" fill-rule="evenodd"/><path d="M13.512 1.057c1.371-.274 1.371.51 1.371.915 0 .404-.693.732-1.097.732-.936 0-1.755-1.35-.274-1.647" fill="#931b24" fill-rule="evenodd"/><path d="m50.047 8.428-3.281 10.255H43.06l-1.656-5.479-1.743 5.479h-3.706L32.673 8.428h3.56l1.787 5.83 1.89-5.83h3.179l1.787 5.904 1.89-5.904zM51 10.67h3.31v8.014H51zm1.655-.644c-.596 0-1.077-.159-1.443-.476a1.53 1.53 0 0 1-.55-1.209c0-.488.184-.89.55-1.208.366-.318.847-.476 1.443-.476.605 0 1.089.151 1.45.454.362.302.542.693.542 1.172 0 .508-.18.925-.542 1.252-.361.327-.845.49-1.45.49zm8.687.498c.986 0 1.78.298 2.38.894.601.595.902 1.494.902 2.695v4.57h-3.311v-3.999c0-.918-.327-1.377-.982-1.377-.37 0-.671.13-.9.389-.23.258-.345.666-.345 1.223v3.765h-3.31v-8.014h3.149v.792a3.05 3.05 0 0 1 1.084-.704c.41-.156.855-.234 1.333-.234zm13.39 4.146c0 .049-.015.307-.044.776h-5.567c.117.303.313.535.586.696.274.161.615.242 1.026.242.351 0 .647-.044.886-.132.24-.088.5-.24.784-.454l1.728 1.743c-.78.86-1.948 1.29-3.501 1.29-.967 0-1.816-.179-2.549-.535-.732-.357-1.3-.853-1.7-1.487-.4-.635-.6-1.348-.6-2.14 0-.8.198-1.515.593-2.145.396-.63.938-1.121 1.627-1.473.688-.351 1.462-.527 2.321-.527.811 0 1.55.161 2.22.484a3.811 3.811 0 0 1 1.597 1.42c.395.626.593 1.373.593 2.242zm-4.38-1.89c-.342 0-.625.093-.85.279-.224.185-.371.449-.44.79h2.579c-.069-.332-.215-.593-.44-.783-.224-.19-.508-.286-.85-.286" fill="#931b24"/><path d="M36.13 24.127v1.758h4.278v2.608H36.13v3.281h-3.457V21.52h8.336v2.607zm14.489-.366v8.013h-3.15v-.761c-.293.302-.635.53-1.025.68-.391.152-.806.228-1.246.228-1.015 0-1.83-.31-2.446-.93-.615-.62-.923-1.556-.923-2.806v-4.424h3.31v3.853c0 .547.089.937.265 1.172.175.234.434.351.776.351.322 0 .59-.129.806-.388.215-.259.322-.666.322-1.223v-3.765zm7.031-.146c.987 0 1.78.297 2.38.893.602.596.902 1.494.902 2.696v4.57h-3.31v-4c0-.917-.328-1.376-.982-1.376-.371 0-.672.13-.901.388-.23.259-.344.667-.344 1.223v3.765h-3.311v-8.013h3.15v.791a3.054 3.054 0 0 1 1.084-.703c.41-.156.854-.235 1.332-.235zm13.727-2.71v10.87h-3.15v-.66c-.478.537-1.21.806-2.197.806-.703 0-1.35-.169-1.941-.505a3.646 3.646 0 0 1-1.407-1.458c-.346-.635-.52-1.367-.52-2.197 0-.83.174-1.56.52-2.19a3.657 3.657 0 0 1 1.407-1.451 3.852 3.852 0 0 1 1.94-.506c.89 0 1.568.23 2.037.69v-3.4zm-4.556 8.438c.381 0 .693-.14.938-.418.244-.278.366-.667.366-1.165s-.122-.883-.367-1.157a1.2 1.2 0 0 0-.937-.41 1.2 1.2 0 0 0-.938.41c-.244.274-.366.66-.366 1.157 0 .498.122.887.366 1.165.245.278.557.418.938.418zm6.02-5.582h3.312v8.013h-3.311zm1.656-.644c-.596 0-1.077-.16-1.443-.477a1.53 1.53 0 0 1-.55-1.208c0-.489.184-.891.55-1.209.366-.317.847-.476 1.443-.476.606 0 1.089.152 1.45.454.362.303.542.694.542 1.172 0 .508-.18.926-.541 1.253-.362.327-.845.49-1.45.49zm8.687.497c.987 0 1.78.298 2.38.894.602.596.902 1.494.902 2.696v4.57h-3.31v-4c0-.917-.328-1.376-.983-1.376-.37 0-.67.13-.9.388-.23.259-.344.667-.344 1.223v3.765h-3.311v-8.013h3.15v.791a3.053 3.053 0 0 1 1.084-.703c.41-.156.854-.235 1.332-.235zM97 23.761v6.417c0 1.523-.422 2.668-1.267 3.435-.845.766-2.048 1.15-3.611 1.15-.801 0-1.548-.086-2.242-.257-.693-.17-1.284-.417-1.772-.74l1.113-2.255c.313.234.708.424 1.186.57.48.147.938.22 1.377.22.665 0 1.148-.14 1.451-.424.303-.283.454-.698.454-1.245v-.147c-.498.567-1.236.85-2.212.85-.684 0-1.321-.159-1.912-.476a3.606 3.606 0 0 1-1.413-1.363c-.352-.59-.528-1.267-.528-2.029 0-.761.176-1.435.528-2.021a3.622 3.622 0 0 1 1.413-1.355 3.976 3.976 0 0 1 1.912-.477c1.094 0 1.885.352 2.373 1.055v-.908zm-4.644 4.996c.39 0 .716-.12.974-.36.26-.238.389-.549.389-.93 0-.38-.13-.688-.389-.923-.258-.234-.583-.351-.974-.351-.4 0-.73.117-.989.351-.259.235-.388.542-.388.923s.132.692.395.93c.264.24.591.36.982.36" fill="#fff"/></g></svg>